<?xml version="1.0" standalone="no"?>
<!DOCTYPE svg PUBLIC "-//W3C//DTD SVG 1.1//EN" "http://www.w3.org/Graphics/SVG/1.1/DTD/svg11.dtd" >
<svg xmlns="http://www.w3.org/2000/svg" xmlns:xlink="http://www.w3.org/1999/xlink" version="1.1">
<metadata>
Created by FontForge 20170731 at Thu Jun  1 22:30:43 2017
 By Aleksey,,,
</metadata>
<defs>
<font id="Sandro-RegularItalic" horiz-adv-x="496" >
  <font-face 
    font-family="Sandro"
    font-weight="400"
    font-style="italic"
    font-stretch="normal"
    units-per-em="1000"
    panose-1="2 0 5 4 3 0 0 9 0 3"
    ascent="800"
    descent="-200"
    x-height="370"
    cap-height="603"
    bbox="-388 -284 997 777"
    underline-thickness="50"
    underline-position="-150"
    slope="-9"
    unicode-range="U+000D-FB02"
  />
<missing-glyph horiz-adv-x="400" 
d="M40 410h320v-410h-320v410zM354 6v397h-308v-397h308z" />
    <glyph glyph-name=".notdef" horiz-adv-x="400" 
d="M40 410h320v-410h-320v410zM354 6v397h-308v-397h308z" />
    <glyph glyph-name=".null" horiz-adv-x="0" 
 />
    <glyph glyph-name="uni000D" unicode="&#xd;" horiz-adv-x="248" 
 />
    <glyph glyph-name="space" unicode=" " horiz-adv-x="350" 
 />
    <glyph glyph-name="exclam" unicode="!" horiz-adv-x="256" 
d="M204 603h38l-76 -489h-39zM157 50q8 -8 8 -20q0 -16 -11.5 -27t-27.5 -11q-12 0 -19.5 7.5t-7.5 19.5q0 16 11 27.5t27 11.5q12 0 20 -8z" />
    <glyph glyph-name="quotedbl" unicode="&#x22;" horiz-adv-x="222" 
d="M180 603l-39 -192h-22l23 192h38zM271 603l-39 -192h-22l23 192h38z" />
    <glyph glyph-name="numbersign" unicode="#" 
d="M458 182h-101l-59 -182h-36l57 182h-108l-55 -182h-38l55 182h-97l6 39h103l38 129h-98l6 39h104l53 169h40l-53 -169h109l53 169h40l-54 -169h88l-6 -39h-95l-40 -129h94zM262 350l-39 -129h109l39 129h-109z" />
    <glyph glyph-name="dollar" unicode="$" 
d="M290 307q-30 16 -50.5 28.5t-35.5 27.5q-32 32 -32 73q0 38 15.5 71.5t42.5 57.5q45 41 108 46l14 84h36l-14 -85q37 -5 66.5 -27.5t42.5 -56.5l-33 -24q-29 63 -82 71l-38 -240q8 -5 52 -28q27 -15 44.5 -33t26.5 -42q6 -15 6 -35q0 -47 -25 -89q-32 -56 -96 -91
q-30 -15 -61 -21l-15 -91h-36l14 89q-62 1 -102 35.5t-52 94.5l35 16q9 -48 42 -78q36 -33 83 -30zM332 573q-21 0 -41.5 -9.5t-36.5 -25.5q-36 -34 -42 -78q-2 -12 -2 -16q0 -30 25 -53q11 -11 28 -21.5t34 -19.5zM282 32q24 5 48 18.5t42 31.5q39 40 46 89q1 5 1 15
q0 33 -27 60q-19 18 -69 44z" />
    <glyph glyph-name="percent" unicode="%" horiz-adv-x="531" 
d="M552 603l-456 -617l-22 15l454 616zM322 575q23 -28 23 -64q0 -32 -14 -59t-37 -46q-19 -16 -43 -25t-48 -9q-50 0 -81 34q-24 26 -24 63q0 64 52 106q37 34 91 34q52 0 81 -34zM170 550q-31 -23 -36 -60q-1 -5 -1 -13q0 -27 17 -47q21 -24 58 -24q38 0 66 24
q30 25 36 60l1 11q0 28 -18 49q-22 25 -58 25q-37 0 -65 -25zM505 198q23 -28 23 -65q0 -31 -13.5 -58.5t-36.5 -46.5q-42 -34 -92 -34q-49 0 -80 34q-24 26 -24 66q0 60 51 104q39 33 91 33q51 0 81 -33zM353 173q-14 -11 -23.5 -27t-12.5 -34l-1 -11q0 -27 18 -48
q10 -12 25.5 -18.5t32.5 -6.5q35 0 66 25q31 26 35 59q1 4 1 13q0 29 -17 48q-23 25 -59 25q-35 0 -65 -25z" />
    <glyph glyph-name="ampersand" unicode="&#x26;" horiz-adv-x="514" 
d="M414 100q-67 -50 -120 -77q-67 -35 -120 -35q-33 0 -60 12.5t-45 34.5q-30 36 -30 87q0 84 83 155q27 23 60 43.5t77 45.5q-24 40 -33 62q-10 28 -10 52q0 29 13 55.5t36 45.5q39 33 88 33q23 0 42 -8.5t31 -23.5q20 -25 20 -59q0 -7 -2 -21q-8 -47 -47 -84
q-28 -26 -89 -64l117 -204l89 84l28 -16l-100 -96l73 -122h-41zM286 553q-26 -26 -32 -59q-1 -4 -1 -12q0 -20 11 -46q8 -18 13 -26q5 -9 13 -27q17 12 37 25q41 24 64 55q16 25 16 55q0 10 -1 14q-8 29 -33 41q-11 5 -28 5q-32 0 -59 -25zM234 310q-66 -37 -96 -64
q-28 -26 -44 -54t-16 -63q0 -38 21 -67q30 -38 80 -38q48 0 111 36q37 21 106 70l-119 206z" />
    <glyph glyph-name="quotesingle" unicode="'" horiz-adv-x="178" 
d="M203 603l-39 -192h-22l23 192h38z" />
    <glyph glyph-name="parenleft" unicode="(" horiz-adv-x="192" 
d="M234 603q-78 -175 -108 -367q-16 -107 -16 -203q0 -68 10 -155l-33 -20q-14 59 -14 149l1 38q1 90 16 191q15 93 44 197q34 117 75 191z" />
    <glyph glyph-name="parenright" unicode=")" horiz-adv-x="192" 
d="M182 624q14 -67 14 -148q0 -28 -1 -43q-3 -101 -18 -197q-15 -93 -43 -191q-34 -115 -74 -187l-26 20q79 187 107 358q17 111 17 211q0 83 -10 156z" />
    <glyph glyph-name="asterisk" unicode="*" horiz-adv-x="495" 
d="M323 603h39l-21 -120l120 40l5 -37l-120 -35l58 -95l-35 -23l-52 99l-85 -99l-28 22l88 96l-110 35l19 37l107 -40z" />
    <glyph glyph-name="plus" unicode="+" 
d="M294 410h38l-30 -186h186l-6 -38h-185l-30 -186h-38l29 186h-185l5 38h186z" />
    <glyph glyph-name="comma" unicode="," horiz-adv-x="248" 
d="M166 48l-95 -181l-23 9l84 183z" />
    <glyph glyph-name="hyphenminus" unicode="-" horiz-adv-x="152" 
d="M195 274l-5 -36h-152l5 36h152z" />
    <glyph glyph-name="period" unicode="." horiz-adv-x="248" 
d="M153 50q8 -8 8 -20q0 -16 -11.5 -27t-27.5 -11q-12 0 -19.5 7.5t-7.5 19.5q0 16 11 27.5t27 11.5q12 0 20 -8z" />
    <glyph glyph-name="slash" unicode="/" horiz-adv-x="512" 
d="M586 646l-546 -760l-27 16l548 758z" />
    <glyph glyph-name="zero" unicode="0" horiz-adv-x="489" 
d="M484 616.5q29 -39.5 29 -107.5q0 -61 -28 -195q-21 -100 -50 -175t-84 -117q-49 -39 -121 -39h-4q-118 0 -118 166q0 66 18 158q27 124 48 186.5t56 101.5q48 57 155 66q70 -5 99 -44.5zM304.5 606q-28.5 -13 -47.5 -37q-20 -23 -32 -50.5t-29 -79.5q-7 -23 -28 -117
q-1 -7 -2 -11.5t-2 -8.5q-20 -82 -20 -148q0 -133 93 -133q151 0 209 273l7 35q13 67 19 106t6 71q0 53 -22.5 83.5t-79.5 33.5q-43 -4 -71.5 -17z" />
    <glyph glyph-name="one" unicode="1" horiz-adv-x="488" 
d="M402 662h40l-140 -662h-38l127 601q-13 -15 -26 -29.5t-26 -29.5q-33 -36 -76 -85h-43z" />
    <glyph glyph-name="two" unicode="2" horiz-adv-x="489" 
d="M195 567q36 45 87.5 70t103.5 25q68 0 108 -41t40 -104q0 -38 -15.5 -77.5t-47.5 -77.5l-346 -327h323l-7 -33h-409l414 385q53 63 53 126q0 53 -35.5 82t-89.5 29q-41 0 -81 -19t-69 -55t-38 -84h-36q9 56 45 101z" />
    <glyph glyph-name="three" unicode="3" horiz-adv-x="488" 
d="M425 398q33 22 53.5 56t20.5 68q0 43 -35 68t-86 25q-72 0 -122.5 -42t-63.5 -110h-38q16 84 78.5 135.5t149.5 51.5q66 0 109 -29.5t43 -86.5q0 -51 -32 -102.5t-83 -75.5q54 -34 54 -112q0 -65 -25.5 -125t-78.5 -98.5t-131 -38.5q-70 0 -113 34t-43 101q0 45 16 77h38
q-16 -35 -16 -69q0 -51 35.5 -79.5t90.5 -28.5q49 0 93 26t71 76t27 118q0 39 -18 63.5t-57 38.5h-13l9 37q34 0 67 22z" />
    <glyph glyph-name="four" unicode="4" horiz-adv-x="488" 
d="M425 150l-32 -147h-37l31 147h-292l104 492h38l-99 -454h259l56 262h37q-8 -42 -20.5 -97.5t-18.5 -83.5l-18 -81h61l-8 -38h-61z" />
    <glyph glyph-name="five" unicode="5" horiz-adv-x="488" 
d="M118 134q0 -53 33.5 -85t91.5 -32q54 0 101 31.5t75 87t28 123.5q0 56 -26 91t-75 35q-35 0 -71.5 -15t-65.5 -40h-37l66 310h325l-7 -36h-288l-49 -226q33 21 69.5 33t69.5 12q62 0 94 -43.5t32 -113.5q0 -45 -15 -96t-43 -93t-64 -61q-65 -34 -127 -34q-66 0 -110 37.5
t-44 102.5q0 34 7 62t11 34l35 -3q-16 -38 -16 -81z" />
    <glyph glyph-name="six" unicode="6" horiz-adv-x="488" 
d="M431.5 323.5q30.5 -40.5 30.5 -99.5q0 -63 -29 -118.5t-81.5 -89.5t-119.5 -34q-65 0 -99.5 43t-34.5 108q0 32 5 53q26 121 66 207t85 142t104 109h54q-72 -53 -139.5 -146t-94.5 -189q2 6 22.5 21t52.5 27.5t72 12.5l17 -1q59 -5 89.5 -45.5zM336 48.5q42 26.5 64.5 72
t22.5 101.5q0 46 -23.5 75t-74.5 33h-11q-44 0 -85 -26t-67 -70.5t-26 -94.5q0 -49 25 -83t77 -34q56 0 98 26.5z" />
    <glyph glyph-name="seven" unicode="7" horiz-adv-x="486" 
d="M585 635l-7 -29q-50 -62 -74 -93q-72 -89 -122.5 -155.5t-95.5 -135.5q-59 -89 -120 -222h-40q60 131 128 238q42 65 89.5 127t115.5 145l70 88h-335l9 37h382z" />
    <glyph glyph-name="eight" unicode="8" horiz-adv-x="488" 
d="M472 625.5q25 -31.5 25 -78.5q0 -24 -3 -35q-14 -64 -39 -98t-68 -56q77 -38 77 -132q0 -63 -29 -119t-82 -90.5t-120 -34.5q-65 0 -100 42.5t-35 108.5q0 76 43.5 136t111.5 85q-26 17 -38.5 41t-12.5 59q0 57 25 105.5t67.5 76.5t91.5 28q4 0 7 -1t7 -1q47 -5 72 -36.5
zM309 604q-31 -22 -50 -58t-19 -78q0 -40 18 -64.5t58 -24.5q57 0 91 30.5t47 96.5q4 18 4 37q0 37 -17.5 60t-56.5 23h-9q-35 0 -66 -22zM230 303.5q-41 -26.5 -67 -70.5t-26 -94q0 -49 25.5 -83t77.5 -34q56 0 97.5 26.5t64 72t22.5 101.5q0 46 -23.5 75t-74.5 33h-12
q-43 0 -84 -26.5z" />
    <glyph glyph-name="nine" unicode="9" horiz-adv-x="488" 
d="M184 302.5q-31 39.5 -31 97.5q0 64 29 120t81.5 90t120.5 34q64 0 99 -43.5t35 -108.5q0 -29 -5 -52q-26 -121 -66 -207t-85 -141.5t-104 -109.5h-54q72 55 138.5 147t95.5 189q-2 -5 -21.5 -20t-52 -28t-73.5 -13l-17 1q-59 5 -90 44.5zM387 322q41 26 67 70t26 94
t-25 84.5t-77 34.5q-40 0 -71 -13.5t-49 -28.5q-23 -20 -44 -60t-21 -100q0 -45 24 -74t75 -33h11q43 0 84 26z" />
    <glyph glyph-name="colon" unicode=":" horiz-adv-x="248" 
d="M205 368.5q8 -9.5 6 -23.5q-1 -14 -12 -23.5t-25 -9.5q-13 0 -20.5 7.5t-7.5 19.5q0 16 11.5 27.5t26.5 11.5q13 0 21 -9.5zM153 50q8 -8 8 -20q0 -16 -11.5 -27t-27.5 -11q-12 0 -19.5 7.5t-7.5 19.5q0 16 11 27.5t27 11.5q12 0 20 -8z" />
    <glyph glyph-name="semicolon" unicode=";" horiz-adv-x="248" 
d="M210 368.5q8 -9.5 6 -23.5q-1 -14 -12.5 -23.5t-25.5 -9.5t-21.5 9.5t-6.5 23.5q3 14 14 23.5t25 9.5q13 0 21 -9.5zM166 48l-95 -181l-23 9l84 183z" />
    <glyph glyph-name="less" unicode="&#x3c;" 
d="M458 33l-6 -37l-380 188l7 42l438 179l-6 -37l-393 -163z" />
    <glyph glyph-name="equal" unicode="=" 
d="M493 254h-410l7 38h409zM471 118h-409l6 38h410z" />
    <glyph glyph-name="greater" unicode="&#x3e;" 
d="M444 205l-342 163l5 37l382 -179l-7 -42l-440 -188l6 37z" />
    <glyph glyph-name="question" unicode="?" horiz-adv-x="393" 
d="M360 242q-6 -53 -47 -91q-42 -37 -99 -37q-53 0 -84 33q-24 27 -24 67q0 13 1 19q10 52 46 82q31 25 88 40q33 8 53 15t36 18q37 25 45 78q1 6 1 19q0 36 -18 58q-27 32 -72 32t-79 -29q-35 -30 -41 -72q-4 -31 -3 -43h-37q0 33 4 51q9 56 57 94q48 35 106 35
q31 0 56.5 -10.5t41.5 -30.5q25 -31 25 -77q0 -8 -2 -26q-10 -64 -52 -97q-33 -29 -104 -46q-51 -12 -72 -26q-41 -25 -41 -78q0 -32 21 -51t56 -19q40 0 68 28q26 30 32 64h38zM223.5 50q7.5 -8 7.5 -20q0 -16 -11.5 -27t-26.5 -11q-14 0 -22 9.5t-5 23.5q2 14 13 23.5
t24 9.5t20.5 -8z" />
    <glyph glyph-name="at" unicode="@" horiz-adv-x="640" 
d="M527 470h35l-123 -259q-13 -28 -12 -39q0 -18 31 -18q23 0 51.5 19t54.5 49q26 31 44 66.5t22 67.5q3 18 3 35q0 73 -51 126q-30 29 -71 45t-86 16q-54 0 -106.5 -22.5t-96.5 -61.5q-43 -39 -71.5 -90t-37.5 -106q-3 -21 -3 -41q0 -84 53 -150q33 -38 78 -59.5t98 -21.5
q69 0 131.5 27.5t104.5 80.5h45q-44 -64 -119 -102q-75 -40 -167 -40q-64 0 -115.5 24t-85.5 67q-28 34 -42.5 77t-14.5 92q0 28 4 52q10 63 42.5 119t81.5 99q48 42 106.5 65.5t118.5 23.5q57 0 104 -19t80 -54q26 -28 40 -65t14 -79q0 -20 -3 -41q-7 -46 -30.5 -89
t-56.5 -75q-32 -32 -68 -50t-68 -18q-22 0 -36.5 10t-17.5 29q-52 -39 -110 -39q-50 0 -74 34q-16 22 -16 57q0 17 2 26q7 42 27.5 86t51.5 80q33 38 72 60t82 22q28 0 51 -14t37 -39zM370 186q37 30 52 64l56 117q4 7 4 18q0 17 -11 36q-9 14 -24.5 23t-36.5 9
q-29 0 -60.5 -20.5t-59.5 -53.5q-26 -31 -44 -68t-23 -68q-1 -5 -1 -16q0 -27 13 -46q19 -27 59 -27q37 1 76 32z" />
    <glyph glyph-name="A" unicode="A" horiz-adv-x="513" 
d="M155 198l-112 -198h-39l351 623l154 -623h-39l-50 198h-265zM340 526l-165 -292h236z" />
    <glyph glyph-name="B" unicode="B" horiz-adv-x="452" 
d="M65 0l95 603h121q41 0 69.5 -6.5t49.5 -28.5q34 -34 34 -91q0 -16 -3 -34q-7 -42 -28.5 -72t-60.5 -51q47 -10 74.5 -43.5t27.5 -81.5q0 -45 -19.5 -84.5t-57.5 -67.5q-34 -25 -68 -34t-80 -9h-154zM155 330h67q44 0 65 3t47 19q27 18 40.5 41t19.5 56q2 14 2 21
q0 24 -9.5 44.5t-27.5 33.5q-19 13 -42 16t-58 3h-66zM109 36h92q47 0 73.5 3.5t53.5 19.5q36 22 57 55.5t21 72.5q0 29 -12.5 52t-35.5 35q-23 13 -53 16.5t-71 3.5h-84z" />
    <glyph glyph-name="C" unicode="C" horiz-adv-x="591" 
d="M620 480q-27 42 -80 69q-50 26 -107 26q-56 0 -109 -22t-98 -61q-44 -39 -73.5 -89.5t-38.5 -104.5q-3 -19 -3 -39q0 -84 55 -148q35 -38 82 -60.5t98 -22.5q52 0 115 26q67 28 102 66l-9 -53q-48 -36 -102.5 -55.5t-109.5 -19.5q-62 0 -115.5 24t-90.5 67
q-30 34 -46.5 78t-16.5 93q0 26 4 47q10 63 43.5 120t84.5 100q50 43 111 66.5t125 23.5q55 0 104 -20.5t83 -57.5z" />
    <glyph glyph-name="D" unicode="D" horiz-adv-x="522" 
d="M160 603h109q73 0 118 -14q53 -17 94 -62q65 -73 65 -176q0 -27 -4 -50q-11 -63 -43.5 -120.5t-84.5 -100.5q-56 -46 -116 -64q-52 -16 -124 -16h-109zM178 36q64 0 115.5 16t99.5 57q45 38 73 87.5t37 104.5q3 23 3 44q0 45 -15 85.5t-44 71.5q-35 37 -79 51t-106 14
h-69l-84 -531h69z" />
    <glyph glyph-name="E" unicode="E" horiz-adv-x="406" 
d="M193 567l-35 -219h244l-6 -36h-243l-44 -276h249l-5 -36h-288l95 603h288l-6 -36h-249z" />
    <glyph glyph-name="F" unicode="F" horiz-adv-x="355" 
d="M193 567l-35 -219h200l-6 -36h-199l-50 -312h-38l95 603h243l-5 -36h-205z" />
    <glyph glyph-name="G" unicode="G" horiz-adv-x="659" 
d="M676 290q-10 -66 -27 -106q-25 -56 -67 -94q-50 -47 -115 -72.5t-130 -25.5q-61 0 -113.5 24t-89.5 67q-30 35 -46 78.5t-16 91.5q0 16 4 46q10 64 43 120.5t84 100.5q51 43 112 67t125 24q80 0 140 -37t99 -104l-35 -24q-31 61 -85.5 95t-126.5 34q-54 0 -107 -22
t-98 -60q-45 -39 -74.5 -88.5t-37.5 -102.5q-3 -22 -3 -43q0 -87 53 -149q31 -38 78 -60t103 -22q47 0 95.5 17.5t92.5 48.5q42 33 65 71t33 89h-216l6 36h254z" />
    <glyph glyph-name="H" unicode="H" horiz-adv-x="573" 
d="M525 347l40 256h38l-95 -603h-38l49 311h-366l-50 -311h-38l95 603h38l-40 -256h367z" />
    <glyph glyph-name="I" unicode="I" horiz-adv-x="168" 
d="M103 0h-38l95 603h38z" />
    <glyph glyph-name="J" unicode="J" horiz-adv-x="174" 
d="M205 603l-94 -592q-11 -65 -35 -97q-32 -40 -93 -40q-33 0 -56.5 17.5t-32.5 47.5l32 22q7 -22 25 -36.5t41 -14.5q40 0 60 34q15 24 21 67l93 592h39z" />
    <glyph glyph-name="K" unicode="K" horiz-adv-x="455" 
d="M485 603h51l-341 -290l264 -313h-50l-244 288l-19 -16l-43 -272h-38l95 603h38l-44 -281z" />
    <glyph glyph-name="L" unicode="L" horiz-adv-x="262" 
d="M109 36h153l-5 -36h-192l95 603h38z" />
    <glyph glyph-name="M" unicode="M" horiz-adv-x="718" 
d="M650 499h-2l-293 -519l-127 519h-2l-182 -499h-37l228 623l135 -549l309 549l31 -623h-36z" />
    <glyph glyph-name="N" unicode="N" horiz-adv-x="674" 
d="M606 -20l-420 538l-83 -518h-38l97 611l421 -534l83 526h39z" />
    <glyph glyph-name="O" unicode="O" horiz-adv-x="683" 
d="M554 587q54 -24 90 -67q30 -35 46 -79t16 -93q0 -14 -4 -46q-10 -63 -43 -119t-85 -100q-50 -43 -111 -67t-123 -24q-64 0 -116.5 24t-89.5 67q-61 72 -61 170q0 26 4 49q10 62 43 118t84 100q50 43 110.5 67t123.5 24q62 0 116 -24zM323.5 553.5
q-53.5 -21.5 -97.5 -59.5q-44 -37 -73 -87t-38 -105q-3 -21 -3 -42q0 -88 54 -150q32 -38 78 -60t102 -22q55 0 108 21.5t98 60.5q44 37 73.5 87t38.5 105q3 21 3 41q0 43 -14 81.5t-39 69.5q-33 38 -79.5 59.5t-101.5 21.5q-56 0 -109.5 -21.5z" />
    <glyph glyph-name="P" unicode="P" horiz-adv-x="378" 
d="M103 0h-38l95 603h106q44 0 73.5 -6.5t51.5 -28.5q38 -38 38 -95q0 -40 -19 -82t-53 -66q-29 -22 -64 -30.5t-76 -8.5h-68zM224 322q33 0 59.5 7t50.5 26q45 35 54 91q2 14 2 22q0 49 -32 75q-19 15 -42.5 19.5t-59.5 4.5h-63l-39 -245h70z" />
    <glyph glyph-name="Q" unicode="Q" horiz-adv-x="683" 
d="M550 64q-47 -34 -102.5 -53t-107.5 -19q-63 0 -116 23.5t-90 66.5q-30 34 -45.5 77.5t-15.5 92.5q0 27 4 50q10 63 43 119.5t84 99.5q50 43 111 66.5t124 23.5q62 0 115 -24t90 -66q30 -33 46 -77t16 -93q0 -26 -4 -47q-9 -63 -39.5 -115.5t-82.5 -102.5l66 -86h-52z
M557 114q89 81 106 183q4 32 4 46q0 87 -51 150q-32 38 -79 60t-103 22q-55 0 -109 -21.5t-98 -59.5q-44 -37 -73.5 -87t-38.5 -105q-3 -21 -3 -42q0 -87 54 -151q32 -38 79.5 -59.5t103.5 -21.5q44 0 89.5 17t87.5 46l-125 156h54z" />
    <glyph glyph-name="R" unicode="R" horiz-adv-x="390" 
d="M363 0h-44l-151 286h-19l-46 -286h-38l95 603h75q47 0 78 -5.5t55 -24.5q44 -37 44 -99q0 -14 -3 -31q-14 -79 -68 -118q-53 -41 -130 -39zM203 322q36 0 61 5t49 23q24 17 38.5 42t18.5 53q2 16 2 25q0 28 -12 50t-36 34q-18 9 -40 11t-41 2h-25h-25l-39 -245h49z" />
    <glyph glyph-name="S" unicode="S" horiz-adv-x="435" 
d="M424 504q-17 35 -43.5 53t-67.5 18q-47 0 -87 -33q-21 -19 -34 -44.5t-13 -53.5q0 -31 27 -55q15 -15 37.5 -27t28.5 -15l106 -60q51 -37 51 -94q0 -17 -2 -26q-13 -74 -77 -125q-30 -24 -66.5 -37t-73.5 -13q-62 0 -103 35t-53 95l36 15q12 -51 44 -80t84 -29
q30 0 59 10.5t52 30.5q24 19 40 45.5t21 55.5q1 5 1 15q0 36 -30 63q-20 16 -36 25q-26 13 -38 20l-100 57q-47 33 -47 86q0 6 2 22q5 33 21 62t40 49q23 20 53.5 31t64.5 11q46 0 82 -23t51 -62z" />
    <glyph glyph-name="T" unicode="T" horiz-adv-x="360" 
d="M199 0h-38l89 567h-156l6 36h350l-5 -36h-156z" />
    <glyph glyph-name="U" unicode="U" horiz-adv-x="528" 
d="M526 603h38l-59 -376l-4 -20q-8 -44 -15 -66q-17 -45 -48 -79q-35 -34 -82 -52t-94 -18t-87 18t-65 52q-22 36 -24 79q0 30 9 86l59 376h39l-58 -365q-1 -8 -5 -34t-4 -47q0 -44 16 -71q18 -27 54 -42.5t73 -15.5t76 15q42 17 68 43q25 27 35.5 61.5t19.5 90.5z" />
    <glyph glyph-name="V" unicode="V" horiz-adv-x="444" 
d="M235 88h2l260 515h38l-317 -623l-119 623h39z" />
    <glyph glyph-name="W" unicode="W" horiz-adv-x="884" 
d="M231 85l312 549l139 -549l249 518h39l-302 -623l-142 558l-318 -558l-103 623h38z" />
    <glyph glyph-name="X" unicode="X" horiz-adv-x="395" 
d="M111 603h43l97 -259l179 259h43l-204 -295l117 -308h-42l-104 273l-189 -273h-41l213 308z" />
    <glyph glyph-name="Y" unicode="Y" horiz-adv-x="447" 
d="M98 603h43l129 -305l226 305h42l-255 -345l-41 -258h-38l41 258z" />
    <glyph glyph-name="Z" unicode="Z" horiz-adv-x="454" 
d="M440 36l-6 -36h-424l457 567h-333l6 36h400l-458 -567h358z" />
    <glyph glyph-name="bracketleft" unicode="[" horiz-adv-x="240" 
d="M71 -122h98l-7 -40h-136l121 765h136l-6 -41h-98z" />
    <glyph glyph-name="backslash" unicode="\" horiz-adv-x="512" 
d="M161 660l325 -645l-32 -15l-324 646z" />
    <glyph glyph-name="bracketright" unicode="]" horiz-adv-x="240" 
d="M238 562h-97l6 41h136l-121 -765h-136l7 40h97z" />
    <glyph glyph-name="asciicircum" unicode="^" 
d="M82 241l240 362h42l127 -362h-37l-116 326l-219 -326h-37z" />
    <glyph glyph-name="underscore" unicode="_" horiz-adv-x="400" 
d="M-16 -100l6 40h400l-6 -40h-400z" />
    <glyph glyph-name="grave" unicode="`" horiz-adv-x="250" 
d="M199 571l63 -117l-33 -14l-81 116z" />
    <glyph glyph-name="a" unicode="a" horiz-adv-x="448" 
d="M386 0h-36l11 66h-2q-26 -35 -69 -55q-39 -19 -84 -19q-41 0 -72.5 15t-51.5 42q-30 43 -30 101q0 18 3 37q14 83 71 136q27 26 63 40.5t77 14.5q44 0 78.5 -18.5t53.5 -53.5h1l10 64h36zM199.5 331q-28.5 -13 -51.5 -35q-22 -22 -37 -50.5t-20 -58.5q-2 -20 -2 -29
q0 -49 24 -84q35 -48 98 -48q69 0 116 49q45 47 56 116q2 10 2 30q0 48 -25 79q-36 44 -101 44q-31 0 -59.5 -13z" />
    <glyph glyph-name="b" unicode="b" horiz-adv-x="448" 
d="M166 660h36l-56 -354h2q28 35 69 53.5t85 18.5q81 0 123 -55q30 -41 30 -99q0 -17 -3 -37q-7 -41 -25 -76.5t-46 -61.5q-62 -57 -143 -57q-44 0 -76 19q-39 21 -52 55h-2l-10 -66h-36zM307.5 39q29.5 13 51.5 35q27 27 43 64t16 75q0 49 -24 83q-16 22 -41 35t-56 13
q-68 0 -116 -46q-22 -21 -36.5 -50t-19.5 -62q-2 -11 -2 -31q0 -47 23 -81q32 -48 99 -48q33 0 62.5 13z" />
    <glyph glyph-name="c" unicode="c" horiz-adv-x="382" 
d="M390 284q-46 60 -121 60q-32 0 -62 -12.5t-55 -34.5q-29 -27 -46 -63.5t-17 -72.5q0 -51 28 -87q17 -22 43 -35t58 -13q39 0 77 17.5t69 48.5l-7 -49q-68 -51 -143 -51q-40 0 -72.5 15t-54.5 42q-35 41 -35 102q0 17 3 35q7 39 26.5 74t49.5 62t67.5 41.5t77.5 14.5
q75 0 122 -46z" />
    <glyph glyph-name="d" unicode="d" horiz-adv-x="448" 
d="M361 66h-2q-26 -35 -69 -55q-39 -19 -84 -19q-41 0 -72.5 15t-51.5 42q-30 43 -30 101q0 18 3 37q14 83 71 136q27 26 63 40.5t77 14.5q44 0 78.5 -18.5t53.5 -53.5h1l56 354h36l-105 -660h-36zM327 75q45 47 56 116q2 10 2 30q0 48 -25 79q-36 44 -101 44
q-31 0 -59.5 -13t-51.5 -35q-22 -22 -37 -50.5t-20 -58.5q-2 -20 -2 -29q0 -49 24 -84q35 -48 98 -48q69 0 116 49z" />
    <glyph glyph-name="e" unicode="e" horiz-adv-x="408" 
d="M90 182q-3 -18 -3 -33q0 -47 27 -80q17 -21 42.5 -32t57.5 -11q42 0 79.5 22.5t64.5 61.5l27 -18q-33 -48 -80 -74t-102 -26q-40 0 -71 15t-50 43q-30 40 -30 99q0 18 3 37q5 38 24 72.5t47 61.5t63.5 42.5t75.5 15.5t71 -15.5t50 -42.5q28 -40 28 -99q0 -19 -3 -39h-321
zM381 215q1 52 -31 91q-33 38 -90 38q-54 0 -104 -38q-46 -37 -60 -91h285z" />
    <glyph glyph-name="f" unicode="f" horiz-adv-x="192" 
d="M98 0h-36l53 336h-41l5 34h41l26 165q9 63 29 91q16 21 39.5 32.5t50.5 11.5q18 0 31 -5l-6 -33l-13 3q-10 2 -15 2q-41 0 -60 -37q-14 -26 -20 -72l-26 -158h93l-5 -34h-93z" />
    <glyph glyph-name="g" unicode="g" horiz-adv-x="454" 
d="M394 18q-7 -51 -19.5 -87.5t-41.5 -69.5q-31 -35 -72.5 -53t-86.5 -18q-75 0 -118 41q-39 36 -39 95q0 15 1 22h36q-1 -5 -1 -14q0 -48 31 -77q34 -34 93 -34q79 0 127 55q24 29 35.5 61.5t19.5 78.5l7 46h-1q-31 -34 -72 -53t-84 -19q-40 0 -70.5 15t-50.5 43
q-30 41 -30 99q0 18 3 37q14 80 73 136q29 26 65.5 41t75.5 15q45 0 75.5 -18t52.5 -54h2l9 64h36zM205 331q-29 -13 -51 -35q-28 -28 -43.5 -65t-15.5 -74q0 -48 23 -83q35 -48 99 -48q67 0 116 49q27 29 42.5 65.5t15.5 77.5q0 49 -25 82q-36 44 -101 44q-31 0 -60 -13z
" />
    <glyph glyph-name="h" unicode="h" horiz-adv-x="392" 
d="M202 660l-55 -348h2q21 31 52.5 48.5t67.5 17.5q67 0 90 -42q12 -20 12 -56q0 -22 -5 -57l-36 -223h-36l36 223q5 30 5 50t-6 36q-15 35 -69 35q-63 0 -97 -53q-24 -37 -37 -109l-28 -182h-36l104 660h36z" />
    <glyph glyph-name="i" unicode="i" horiz-adv-x="187" 
d="M198.5 516.5q8.5 -9.5 6.5 -23.5t-13.5 -23.5t-25.5 -9.5q-12 0 -19.5 7.5t-7.5 19.5q0 16 11 27.5t27 11.5q13 0 21.5 -9.5zM111 0h-36l59 370h36z" />
    <glyph glyph-name="j" unicode="j" horiz-adv-x="187" 
d="M198.5 516.5q8.5 -9.5 6.5 -23.5t-13.5 -23.5t-25.5 -9.5q-12 0 -19.5 7.5t-7.5 19.5q0 16 11 27.5t27 11.5q13 0 21.5 -9.5zM77 -216h-36l93 586h36z" />
    <glyph glyph-name="k" unicode="k" horiz-adv-x="342" 
d="M131 213l177 157h46l-180 -160l174 -210h-47l-154 185l-24 -21l-25 -164h-36l104 660h36z" />
    <glyph glyph-name="l" unicode="l" horiz-adv-x="159" 
d="M98 0h-36l104 660h36z" />
    <glyph glyph-name="m" unicode="m" horiz-adv-x="580" 
d="M149 323h1q17 26 44.5 40.5t57.5 14.5q36 0 60 -17.5t33 -50.5q21 33 51.5 50.5t67.5 17.5q67 0 86 -43q10 -21 10 -53q0 -20 -5 -50l-37 -232h-36l38 237q4 32 4 44q0 20 -5 31q-13 32 -61 32q-52 0 -84 -42q-23 -30 -32 -89l-34 -213h-36l36 228q4 32 4 46q0 22 -5 34
q-13 36 -63 36q-53 0 -82 -48q-25 -38 -32 -93l-32 -203h-36l58 370h36z" />
    <glyph glyph-name="n" unicode="n" horiz-adv-x="392" 
d="M147 312h2q21 31 52.5 48.5t67.5 17.5q67 0 90 -42q12 -20 12 -56q0 -22 -5 -57l-36 -223h-36l36 223q5 30 5 50t-6 36q-15 35 -69 35q-63 0 -97 -53q-24 -37 -37 -109l-28 -182h-36l58 370h36z" />
    <glyph glyph-name="o" unicode="o" horiz-adv-x="438" 
d="M351.5 363.5q33.5 -14.5 55.5 -41.5q37 -43 37 -107q0 -49 -22 -92.5t-59 -75.5q-31 -26 -69 -40.5t-78 -14.5t-72.5 15t-53.5 42q-18 21 -28 48.5t-10 57.5q0 48 21.5 91t58.5 75q32 27 69 42t77 15t73.5 -14.5zM207 331.5q-31 -12.5 -55 -34.5q-29 -28 -46.5 -64
t-17.5 -73q0 -50 30 -86q17 -23 43 -35.5t58 -12.5q34 0 65.5 11.5t56.5 33.5q31 27 48.5 63t17.5 78q0 53 -30 86q-40 46 -107 46q-32 0 -63 -12.5z" />
    <glyph glyph-name="p" unicode="p" horiz-adv-x="448" 
d="M146 303h1q26 36 70 55q42 20 83 20q81 0 124 -58q30 -40 30 -100q0 -18 -3 -38q-13 -82 -69 -136q-28 -26 -64.5 -40t-77.5 -14q-45 0 -79.5 18.5t-50.5 53.5h-2l-45 -280h-36l93 586h36zM179 294q-27 -30 -42.5 -67t-15.5 -78q0 -49 25 -80q35 -43 100 -43
q32 0 61 12.5t51 34.5q28 27 43.5 62.5t15.5 75.5q0 48 -23 83q-15 24 -40.5 37t-58.5 13q-68 0 -116 -50z" />
    <glyph glyph-name="q" unicode="q" horiz-adv-x="448" 
d="M352 -216h-36l45 280h-2q-28 -35 -69 -53.5t-85 -18.5q-40 0 -72 14.5t-51 39.5q-31 40 -31 100q0 17 3 35q7 40 25.5 76.5t46.5 62.5q28 27 64.5 42.5t77.5 15.5t78 -20q36 -19 51 -55h1l11 67h36zM146 294q-45 -48 -56 -117q-2 -10 -2 -30q0 -49 25 -78q33 -43 100 -43
q31 0 60 12.5t52 34.5q27 26 43 62t16 75q0 49 -23 84q-15 24 -40.5 37t-58.5 13q-69 0 -116 -50z" />
    <glyph glyph-name="r" unicode="r" horiz-adv-x="222" 
d="M149 322h1q33 56 89 56q16 0 38 -9l-24 -32q-11 7 -25 7q-53 0 -78 -58q-13 -32 -23 -97l-29 -189h-36l58 370h36z" />
    <glyph glyph-name="s" unicode="s" horiz-adv-x="300" 
d="M265 302q-7 20 -22.5 31t-36.5 11q-25 0 -45 -17q-13 -9 -20.5 -22.5t-7.5 -27.5q0 -16 10 -27t29 -20q28 -12 41 -16q51 -19 69 -53q6 -13 6 -31q0 -36 -19 -69q-25 -43 -73 -60q-22 -9 -48 -9q-47 0 -77 26.5t-34 71.5l37 11q5 -35 25 -55t55 -20q36 0 63 24
q16 14 25 33t9 39q0 21 -15 36q-12 9 -46 24q-48 18 -68 35q-26 21 -26 51q0 6 2 16q6 39 41 68q34 26 75 26q28 0 52.5 -17t31.5 -43z" />
    <glyph glyph-name="t" unicode="t" horiz-adv-x="167" 
d="M102 0h-36l53 336h-41l5 34h41l21 132h36l-21 -132h65l-5 -34h-65z" />
    <glyph glyph-name="u" unicode="u" horiz-adv-x="378" 
d="M380 370l-35 -222q-6 -39 -13 -62t-26 -44q-23 -25 -54.5 -37.5t-64.5 -12.5t-60 12.5t-42 37.5q-12 20 -12 48q0 18 6 58l35 222h36l-32 -209q-6 -38 -6 -56q0 -22 6 -39q15 -40 75 -40t88 40q21 31 30 95l33 209h36z" />
    <glyph glyph-name="v" unicode="v" horiz-adv-x="346" 
d="M185 65l179 305h37l-231 -390l-108 390h37z" />
    <glyph glyph-name="w" unicode="w" horiz-adv-x="602" 
d="M182 66l181 324l80 -324l176 304h37l-229 -390l-80 319l-180 -319l-105 390h37z" />
    <glyph glyph-name="x" unicode="x" horiz-adv-x="354" 
d="M74 370h44l94 -150l142 150h43l-165 -175l119 -195h-42l-105 170l-158 -170h-43l182 195z" />
    <glyph glyph-name="y" unicode="y" horiz-adv-x="368" 
d="M53 370h37l105 -335l195 335h36l-340 -586h-37l122 210z" />
    <glyph glyph-name="z" unicode="z" horiz-adv-x="384" 
d="M384 34l-6 -34h-376l356 336h-253l5 34h328l-354 -336h300z" />
    <glyph glyph-name="braceleft" unicode="{" horiz-adv-x="240" 
d="M70 239q35 23 50 39q18 20 24 53l22 141q11 70 40 99q28 30 96 32l-5 -37q-36 0 -54 -10q-29 -18 -34 -54l-23 -148q-10 -58 -29 -86q-17 -25 -51 -45v-4q14 -12 22.5 -21.5t13.5 -23.5q6 -16 6 -40q0 -17 -5 -49l-24 -148q-1 -5 -1 -14q0 -28 19 -39q14 -11 50 -11
l-5 -35q-66 0 -88 32q-12 19 -12 52q0 23 4 46l23 141q1 7 1 19q0 21 -8 36q-9 18 -37 40z" />
    <glyph glyph-name="bar" unicode="|" horiz-adv-x="256" 
d="M208 629h38l-126 -800h-38z" />
    <glyph glyph-name="braceright" unicode="}" horiz-adv-x="240" 
d="M239 204q-35 -23 -49 -40q-18 -23 -24 -55l-22 -141q-5 -36 -14.5 -59.5t-24.5 -38.5q-34 -32 -98 -32l6 35q35 0 53 11q29 16 34 53l24 148q8 57 29 89q15 24 50 45l1 4q-29 22 -36 45q-6 17 -6 40q0 22 4 46l24 148q1 5 1 14q0 27 -18 40q-16 10 -51 10l6 37
q35 -1 56.5 -8.5t31.5 -23.5q12 -18 12 -49q0 -18 -5 -50l-21 -141q-2 -14 -2 -19q0 -20 8 -34q8 -15 37 -39z" />
    <glyph glyph-name="asciitilde" unicode="~" 
d="M290 222l42 -21q20 -11 35 -11q25 0 45.5 17t41.5 47l36 -18q-26 -36 -58 -59q-36 -28 -73 -28q-19 0 -38 7.5t-44 22.5q-31 17 -48 24t-35 7q-25 0 -45.5 -15.5t-43.5 -44.5l-35 19l27 27q33 34 64 47q16 8 40 8q36 0 89 -29z" />
    <glyph glyph-name="Euro" 
d="M557 506q-28 39 -59 54q-33 15 -88 15q-84 0 -149 -58t-93 -163h319l-17 -36h-311l-3 -20q-2 -16 -2 -20l-3 -20h291l-16 -36h-275q2 -89 48 -141.5t129 -52.5q57 0 90 12t72 44l-8 -46q-38 -28 -72 -37q-31 -9 -87 -9q-99 0 -154.5 63t-56.5 167h-70l16 36h55l3 21
q2 14 2 22l3 17h-64l17 36h56q32 115 109.5 186t180.5 71q100 0 155 -63z" />
    <glyph glyph-name="Zcaron" horiz-adv-x="454" 
d="M340 653l-97 85l35 23l70 -61l91 61l25 -23zM440 36l-6 -36h-424l457 567h-333l6 36h400l-458 -567h358z" />
    <glyph glyph-name="zcaron" horiz-adv-x="384" 
d="M283 447l-97 86l34 22l70 -61l92 61l24 -22zM384 34l-6 -34h-376l356 336h-253l5 34h328l-354 -336h300z" />
    <glyph glyph-name="uni00A0" unicode="&#xa0;" horiz-adv-x="248" 
 />
    <glyph glyph-name="exclamdown" unicode="&#xa1;" horiz-adv-x="256" 
d="M209 368.5q8 -9.5 6 -23.5q-1 -14 -12 -23.5t-25 -9.5q-13 0 -20.5 7.5t-7.5 19.5q0 16 11.5 27.5t26.5 11.5q13 0 21 -9.5zM110 -232h-38l78 489h38z" />
    <glyph glyph-name="cent" unicode="&#xa2;" 
d="M469 406q-19 27 -46.5 43t-60.5 18l-50 -319q35 3 69 20.5t61 45.5h1l-7 -48q-29 -22 -62.5 -36t-66.5 -16l-17 -102h-36l17 103q-35 3 -63 19t-46 43q-31 42 -31 95q0 16 3 31q10 75 67 132q26 27 59.5 44t71.5 21l15 94h36l-15 -93q67 -5 109 -47zM326 466
q-59 -9 -103 -55q-42 -44 -53 -104q-2 -16 -2 -25q0 -44 23 -79q31 -47 85 -54z" />
    <glyph glyph-name="sterling" unicode="&#xa3;" 
d="M55 23q23 23 55 38t60 14q26 18 44 43t23 52l1 24h-100l6 36h90l-48 110q-14 30 -20 50t-6 43q0 41 18 76t50 60q26 20 57 31t62 11q33 0 59.5 -12.5t44.5 -34.5q27 -35 27 -81q0 -16 -3 -31h-38q2 16 2 24q0 38 -21 64q-27 35 -81 35q-24 0 -47 -9t-42 -26
q-22 -20 -35.5 -46.5t-13.5 -54.5q0 -19 6 -37t17 -40l30 -64q16 -36 23 -68h109l-6 -36h-101l-3 -27q-4 -27 -20.5 -53.5t-40.5 -47.5l8 -2l25 -10q38 -15 61 -21q17 -5 25 -5q26 0 51 19t44 47l30 -20q-25 -33 -55 -56q-37 -26 -72 -26q-19 0 -38 6t-48 18q-26 11 -44 17
t-34 6q-24 0 -46.5 -12.5t-48.5 -34.5z" />
    <glyph glyph-name="currency" unicode="&#xa4;" 
d="M151 427l28 -33q37 24 69 35t70 11q37 0 65.5 -11t58.5 -35l39 33l24 -29l-37 -32q25 -53 25 -93q0 -15 -3 -33q-6 -35 -20.5 -64t-42.5 -62l27 -32l-33 -29l-28 33q-37 -24 -69 -35t-70 -11q-37 0 -65.5 11t-58.5 35l-39 -33l-24 29l37 32q-25 53 -25 93q0 15 3 33
q6 35 20.5 64t42.5 62l-27 32zM186 354q-31 -25 -49 -61t-18 -77q0 -51 33 -89q20 -23 48 -36t61 -13t65 13t59 36q26 22 43 51t24 62q2 18 2 27q0 53 -32 87q-19 22 -47.5 34.5t-62.5 13.5q-70 -1 -126 -48z" />
    <glyph glyph-name="yen" unicode="&#xa5;" 
d="M245 318h-129l6 36h107l-106 249h47l126 -301l221 301h46l-184 -249h107l-5 -36h-128l-45 -60h163l-5 -36h-164l-35 -222h-38l35 222h-163l5 36h164z" />
    <glyph glyph-name="brokenbar" unicode="&#xa6;" horiz-adv-x="256" 
d="M193 529h38l-32 -200h-38zM129 129h38l-31 -200h-38z" />
    <glyph glyph-name="section" unicode="&#xa7;" 
d="M152 -9l-2 -10q-2 -20 -2 -27q0 -36 19 -54t62 -18q46 0 78 24t39 69q2 12 2 17q0 32 -28 55q-17 14 -42.5 23.5t-31.5 11.5q-60 21 -85 48q-26 28 -26 69q0 57 30.5 100.5t84.5 65.5q-31 16 -46 38t-15 54q0 39 16 70.5t43 51.5q42 32 104 32q72 0 96 -38q16 -24 16 -71
q0 -10 -2 -36h-38q2 11 2 30q0 39 -20 59t-64 20q-48 0 -81 -31.5t-33 -82.5q0 -32 28 -55q13 -10 31 -17t47 -16q53 -19 75 -43q23 -26 23 -72q0 -20 -2 -31q-7 -44 -37 -78.5t-75 -54.5q68 -29 68 -98q0 -78 -59 -120q-43 -30 -105 -30q-59 0 -86 23.5t-27 70.5q0 22 4 43
l1 8h38zM310 132q21 8 38 23q20 17 32 41t12 49q0 37 -20 60q-13 15 -31.5 23.5t-38.5 8.5q-21 0 -42.5 -8.5t-38.5 -23.5q-21 -17 -33.5 -41.5t-12.5 -48.5q0 -35 22 -60q28 -31 71 -31q21 0 42 8z" />
    <glyph glyph-name="dieresis" unicode="&#xa8;" horiz-adv-x="337" 
d="M199 532q7 -7 7 -19q0 -16 -11 -27t-26 -11q-12 0 -19.5 7.5t-7.5 18.5q0 16 11 27t26 11q13 0 20 -7zM350 530q7 -9 5 -23t-12.5 -23t-24.5 -9q-13 0 -21 9t-6 23t13 23t25 9t21 -9z" />
    <glyph glyph-name="copyright" unicode="&#xa9;" horiz-adv-x="640" 
d="M203.5 16q-52.5 24 -89.5 67q-29 34 -44.5 78t-15.5 93q0 16 4 48q10 63 43 119.5t83 99.5t110 66.5t124 23.5q63 0 115 -23.5t89 -66.5q29 -34 44.5 -77.5t15.5 -93.5q0 -16 -4 -48q-10 -63 -43 -119.5t-83 -99.5t-110 -67t-123 -24t-115.5 24zM433 51q53 21 97 59
q43 37 71.5 86.5t37.5 105.5q4 30 4 44q0 43 -13.5 81t-38.5 67q-31 37 -78 58t-102 21t-108 -21t-97 -58q-43 -37 -71.5 -87t-37.5 -105q-4 -30 -4 -44q0 -43 13.5 -81t39.5 -67q32 -38 78 -59t102 -21q54 0 107 21zM517 246q-14 -52 -62 -87q-46 -33 -101 -33
q-37 0 -67 13.5t-49 38.5q-30 39 -30 93q0 16 3 34q14 79 66 127q53 50 132 50q58 0 91 -30q35 -32 35 -86h-38q-1 35 -28 56.5t-66 21.5q-60 0 -102 -40q-40 -39 -51 -98q-2 -16 -2 -25q0 -43 23 -74q32 -42 90 -42q35 0 71 21q36 23 46 60h39z" />
    <glyph glyph-name="ordfeminine" unicode="&#xaa;" horiz-adv-x="269" 
d="M313 385h-23l6 40h-2q-16 -21 -43.5 -33t-54.5 -12q-26 0 -47 9t-34 25q-21 26 -21 62q0 29 13 56.5t34 45.5q38 33 91 33q29 0 51.5 -11t33.5 -32h1l7 38h23zM158 557q-16 -14 -26 -34t-10 -40q0 -30 16 -49q20 -27 59 -27t73 27q16 15 25.5 35.5t9.5 41.5
q0 31 -22.5 52t-59.5 21q-36 0 -65 -27z" />
    <glyph glyph-name="guillemotleft" unicode="&#xab;" horiz-adv-x="318" 
d="M190 142l-26 -21l-95 135l137 135l20 -21l-114 -114zM286 142l-26 -21l-95 135l137 135l20 -21l-114 -114z" />
    <glyph glyph-name="logicalnot" unicode="&#xac;" 
d="M454 254h-371l7 38h409l-33 -213h-39z" />
    <glyph glyph-name="hyphen" unicode="&#xad;" horiz-adv-x="152" 
d="M195 274l-5 -36h-152l5 36h152z" />
    <glyph glyph-name="registered" unicode="&#xae;" horiz-adv-x="640" 
d="M203.5 16q-52.5 24 -89.5 67q-29 34 -44.5 78t-15.5 93q0 16 4 48q10 63 43 119.5t83 99.5t110 66.5t124 23.5q63 0 115 -23.5t89 -66.5q29 -34 44.5 -77.5t15.5 -93.5q0 -16 -4 -48q-10 -63 -43 -119.5t-83 -99.5t-110 -67t-123 -24t-115.5 24zM433 51q53 21 97 59
q43 37 71.5 86.5t37.5 105.5q4 30 4 44q0 43 -13.5 81t-38.5 67q-31 37 -78 58t-102 21t-108 -21t-97 -58q-43 -37 -71.5 -87t-37.5 -105q-4 -30 -4 -44q0 -43 13.5 -81t39.5 -67q32 -38 78 -59t102 -21q54 0 107 21zM492 126h-50l-72 156h-79l-25 -156h-38l54 339h148
q64 0 89 -23q17 -17 17 -48q0 -60 -42 -89q-31 -21 -80 -23zM364 321h40q48 -2 74 20q9 7 14.5 19t5.5 24q0 11 -5 18q-14 18 -48 23q-11 1 -31 1h-100l-16 -105h66z" />
    <glyph glyph-name="macron" unicode="&#xaf;" horiz-adv-x="365" 
d="M390 539l-6 -36h-244l6 36h244z" />
    <glyph glyph-name="degree" unicode="&#xb0;" horiz-adv-x="320" 
d="M345.5 453q-13.5 -27 -36.5 -47q-43 -35 -91 -35q-23 0 -43.5 9.5t-35.5 25.5q-23 28 -23 65q0 6 2 20q6 48 48 85q19 17 42.5 26t48.5 9q49 0 79 -35q23 -28 23 -67q0 -29 -13.5 -56zM186 553q-16 -15 -26 -35.5t-10 -40.5q0 -32 20.5 -52t53.5 -20q36 0 66 25
q30 27 34 61q1 5 1 14q0 27 -16 48q-23 25 -59 25q-34 0 -64 -25z" />
    <glyph glyph-name="plusminus" unicode="&#xb1;" 
d="M294 410h38l-24 -154h186l-7 -38h-185l-24 -154h-39l24 154h-185l6 38h186zM50 38h409l-6 -38h-410z" />
    <glyph glyph-name="uni00B2" unicode="&#xb2;" horiz-adv-x="298" 
d="M312 272l-5 -27h-241l169 148q40 35 55 53q34 41 34 74q0 25 -18 43q-21 21 -60 21q-41 0 -69 -21t-35 -58h-27q5 23 12.5 38.5t22.5 29.5q20 18 46.5 28t53.5 10q24 0 44 -8t34 -22q23 -25 23 -60q0 -22 -9 -42t-25 -41q-22 -25 -56 -56l-127 -110h178z" />
    <glyph glyph-name="uni00B3" unicode="&#xb3;" horiz-adv-x="298" 
d="M218 447q36 0 61.5 19.5t30.5 52.5q1 4 1 11q0 24 -18.5 39t-47.5 15q-34 0 -55.5 -16t-28.5 -46h-27q10 41 40.5 65t75.5 24q42 0 68 -26q21 -23 21 -54q0 -32 -20 -57.5t-54 -39.5q24 -8 38 -28.5t14 -45.5q0 -9 -1 -14q-9 -45 -45 -76q-36 -30 -87 -30q-43 0 -72 26
q-23 20 -23 54q0 9 1 14h27q-2 -32 16 -49.5t54 -17.5q42 0 72 26t30 64q0 30 -21 46.5t-55 16.5z" />
    <glyph glyph-name="acute" unicode="&#xb4;" horiz-adv-x="250" 
d="M278 556l-118 -116l-28 14l99 117z" />
    <glyph glyph-name="uni00B5" unicode="&#xb5;" horiz-adv-x="378" 
d="M22 -216l92 586h36l-28 -183q-5 -30 -5 -56q0 -27 6 -50q15 -55 70 -55q60 0 88 40q21 31 30 95l33 209h36l-35 -222q-6 -39 -13 -62t-26 -44q-23 -25 -54.5 -37.5t-64.5 -12.5q-26 0 -51 17q-29 20 -34 49h-1l-43 -274h-36z" />
    <glyph glyph-name="paragraph" unicode="&#xb6;" 
d="M273 296q-61 0 -93 45q-23 34 -23 79q0 8 2 28q23 155 187 155h157l-5 -36h-32l-112 -709h-39l112 709h-73l-112 -709h-39z" />
    <glyph glyph-name="periodcentered" unicode="&#xb7;" horiz-adv-x="248" 
d="M183.5 228.5q8.5 -9.5 6.5 -23.5q-3 -14 -14 -23.5t-25 -9.5t-21.5 9.5t-5.5 23.5t13 23.5t25 9.5q13 0 21.5 -9.5z" />
    <glyph glyph-name="cedilla" unicode="&#xb8;" horiz-adv-x="239" 
d="M67 -146l-28 15l93 115l42 -18z" />
    <glyph glyph-name="uni00B9" unicode="&#xb9;" horiz-adv-x="298" 
d="M198 576l16 27h76l-56 -358h-28l53 331h-61z" />
    <glyph glyph-name="ordmasculine" unicode="&#xba;" horiz-adv-x="262" 
d="M312 578q25 -27 25 -63q0 -30 -14 -56t-37 -45q-44 -34 -96 -34q-25 0 -46 9t-36 25q-26 29 -26 64q0 28 14 54.5t38 45.5q41 33 93 33q54 0 85 -33zM151 558q-17 -16 -27 -35.5t-10 -39.5q0 -29 18 -49q24 -27 62 -27q40 0 72 26q18 14 28.5 34t10.5 42q0 30 -19 49
q-24 26 -64 26t-71 -26z" />
    <glyph glyph-name="guillemotright" unicode="&#xbb;" horiz-adv-x="318" 
d="M191 256l-79 114l26 21l96 -135l-138 -135l-20 21zM287 256l-79 114l26 21l96 -135l-138 -135l-20 21z" />
    <glyph glyph-name="onequarter" unicode="&#xbc;" horiz-adv-x="744" 
d="M640 603l-455 -617l-23 15l455 617zM171 576l16 27h76l-57 -358h-27l53 331h-61zM678 93l-4 -27h-52l-11 -66h-27l10 66h-207l1 3l278 305h4l-44 -281h52zM630 294h-4l-180 -198v-3h152z" />
    <glyph glyph-name="onehalf" unicode="&#xbd;" horiz-adv-x="744" 
d="M605 603l-455 -617l-24 15l456 617zM171 576l16 27h76l-57 -358h-27l53 331h-61zM666 27l-4 -27h-241l169 148q6 6 24 22.5t31 30.5q34 39 34 73q0 26 -18 44q-23 21 -61 21q-41 0 -68.5 -21t-34.5 -58h-27q4 22 12 38t24 30q19 18 45.5 28t53.5 10q24 0 44 -8t34 -22
q24 -24 24 -61q0 -21 -9 -40.5t-26 -40.5q-20 -25 -57 -56l-126 -111h177z" />
    <glyph glyph-name="threequarters" unicode="&#xbe;" horiz-adv-x="744" 
d="M682 603l-455 -617l-23 15l455 617zM229 447q36 0 61.5 19.5t31.5 52.5q1 3 1 10q0 24 -19 39.5t-48 15.5q-34 0 -55.5 -16t-28.5 -46h-27q10 41 40.5 65t75.5 24q42 0 68 -26q21 -23 21 -54q0 -32 -20 -57.5t-54 -39.5q24 -8 38 -28.5t14 -45.5t-12.5 -48.5t-33.5 -41.5
q-36 -30 -87 -30q-43 0 -72 26q-23 21 -23 55q0 9 1 13h27q-2 -32 16 -49.5t54 -17.5q42 0 72 26t30 64q0 30 -21 46.5t-55 16.5zM710 93l-4 -27h-52l-11 -66h-27l10 66h-207l1 3l278 305h4l-44 -281h52zM662 294h-4l-180 -198v-3h152z" />
    <glyph glyph-name="questiondown" unicode="&#xbf;" horiz-adv-x="393" 
d="M278.5 370q7.5 -8 7.5 -20q0 -16 -11.5 -27t-26.5 -11q-14 0 -21.5 9.5t-6.5 23.5q2 14 13.5 23.5t24.5 9.5t20.5 -8zM91 127q3 26 15.5 50t31.5 42q42 37 99 37q55 0 84 -34q25 -28 25 -66q0 -5 -2 -19q-8 -51 -46 -83q-31 -25 -88 -40q-31 -7 -51.5 -14t-36.5 -18
q-38 -26 -46 -78q-2 -14 -2 -20q0 -32 20 -57q25 -33 71 -33q44 0 80 30q34 29 40 72q4 30 3 42h37q0 -32 -3 -51q-9 -55 -58 -93q-23 -17 -50.5 -26.5t-55.5 -9.5q-63 0 -97 41q-25 31 -25 76q0 18 2 27q10 63 52 99q36 29 103 45q26 6 42.5 11t29.5 14q33 22 41 63
q1 5 1 14q0 32 -21 52t-56 20q-40 0 -68 -28q-27 -29 -32 -65h-39z" />
    <glyph glyph-name="Agrave" unicode="&#xc0;" horiz-adv-x="513" 
d="M363 777l63 -118l-33 -13l-81 116zM155 198l-112 -198h-39l351 623l154 -623h-39l-50 198h-265zM340 526l-165 -292h236z" />
    <glyph glyph-name="Aacute" unicode="&#xc1;" horiz-adv-x="513" 
d="M442 762l-118 -116l-28 13l99 118zM155 198l-112 -198h-39l351 623l154 -623h-39l-50 198h-265zM340 526l-165 -292h236z" />
    <glyph glyph-name="Acircumflex" unicode="&#xc2;" horiz-adv-x="513" 
d="M378 761l96 -85l-34 -23l-70 61l-92 -61l-24 23zM155 198l-112 -198h-39l351 623l154 -623h-39l-50 198h-265zM340 526l-165 -292h236z" />
    <glyph glyph-name="Atilde" unicode="&#xc3;" horiz-adv-x="513" 
d="M250 692q14 22 32 36.5t39 14.5q13 0 24.5 -4t28.5 -11q4 -2 26 -10q11 -6 22 -6q27 0 44 33l20 -18q-9 -22 -29.5 -37t-42.5 -15q-18 0 -50 16t-52 16q-14 0 -23 -8.5t-17 -24.5zM155 198l-112 -198h-39l351 623l154 -623h-39l-50 198h-265zM340 526l-165 -292h236z" />
    <glyph glyph-name="Adieresis" unicode="&#xc4;" horiz-adv-x="513" 
d="M321 735.5q8 -9.5 5 -22.5q-1 -14 -11.5 -23t-24.5 -9t-22 9t-6 23q3 14 13.5 23t23.5 9q14 0 22 -9.5zM470.5 735.5q7.5 -9.5 5.5 -22.5q-1 -14 -12 -23t-25 -9t-21 9t-6 23q2 14 12.5 23t24.5 9t21.5 -9.5zM155 198l-112 -198h-39l351 623l154 -623h-39l-50 198h-265z
M340 526l-165 -292h236z" />
    <glyph glyph-name="Aring" unicode="&#xc5;" horiz-adv-x="513" 
d="M422 760.5q17 -16.5 17 -41.5q0 -17 -7.5 -33.5t-21.5 -27.5q-23 -20 -52 -20q-26 0 -43 16.5t-17 41.5q0 17 8.5 33t21.5 28q23 20 52 20q25 0 42 -16.5zM344 732.5q-13 -12.5 -13 -31.5q0 -14 9 -22.5t23 -8.5q16 0 28.5 10.5t14.5 26.5q3 16 -6 27t-26 11t-30 -12.5z
M155 198l-112 -198h-39l351 623l154 -623h-39l-50 198h-265zM340 526l-165 -292h236z" />
    <glyph glyph-name="AE" unicode="&#xc6;" horiz-adv-x="754" 
d="M157 198l-110 -198h-43l338 603h264l8 -36h-249l55 -219h242l10 -36h-242l68 -276h249l9 -36h-292l-49 198h-258zM336 518l-158 -284h228z" />
    <glyph glyph-name="Ccedilla" unicode="&#xc7;" horiz-adv-x="591" 
d="M620 480q-27 42 -80 69q-50 26 -107 26q-56 0 -109 -22t-98 -61q-44 -39 -73.5 -89.5t-38.5 -104.5q-3 -19 -3 -39q0 -84 55 -148q35 -38 82 -60.5t98 -22.5q52 0 115 26q67 28 102 66l-9 -53q-48 -36 -102.5 -55.5t-109.5 -19.5q-62 0 -115.5 24t-90.5 67
q-30 34 -46.5 78t-16.5 93q0 26 4 47q10 63 43.5 120t84.5 100q50 43 111 66.5t125 23.5q55 0 104 -20.5t83 -57.5zM243 -146l-28 15l93 115l42 -18z" />
    <glyph glyph-name="Egrave" unicode="&#xc8;" horiz-adv-x="406" 
d="M310 777l62 -118l-33 -13l-81 116zM193 567l-35 -219h244l-6 -36h-243l-44 -276h249l-5 -36h-288l95 603h288l-6 -36h-249z" />
    <glyph glyph-name="Eacute" unicode="&#xc9;" horiz-adv-x="406" 
d="M404 762l-118 -116l-28 13l100 118zM193 567l-35 -219h244l-6 -36h-243l-44 -276h249l-5 -36h-288l95 603h288l-6 -36h-249z" />
    <glyph glyph-name="Ecircumflex" unicode="&#xca;" horiz-adv-x="406" 
d="M324 761l97 -85l-35 -23l-70 61l-91 -61l-25 23zM193 567l-35 -219h244l-6 -36h-243l-44 -276h249l-5 -36h-288l95 603h288l-6 -36h-249z" />
    <glyph glyph-name="Edieresis" unicode="&#xcb;" horiz-adv-x="406" 
d="M265.5 737.5q7.5 -7.5 7.5 -19.5q0 -16 -11 -26.5t-26 -10.5q-12 0 -19.5 7t-7.5 19q0 16 10.5 27t26.5 11q12 0 19.5 -7.5zM417 735.5q8 -9.5 5 -22.5q-1 -14 -11.5 -23t-24.5 -9t-22 9t-6 23q3 14 13.5 23t23.5 9q14 0 22 -9.5zM193 567l-35 -219h244l-6 -36h-243
l-44 -276h249l-5 -36h-288l95 603h288l-6 -36h-249z" />
    <glyph glyph-name="Igrave" unicode="&#xcc;" horiz-adv-x="168" 
d="M191 777l63 -118l-33 -13l-81 116zM103 0h-38l95 603h38z" />
    <glyph glyph-name="Iacute" unicode="&#xcd;" horiz-adv-x="168" 
d="M270 762l-118 -116l-28 13l99 118zM103 0h-38l95 603h38z" />
    <glyph glyph-name="Icircumflex" unicode="&#xce;" horiz-adv-x="168" 
d="M205 761l97 -85l-35 -23l-70 61l-91 -61l-25 23zM103 0h-38l95 603h38z" />
    <glyph glyph-name="Idieresis" unicode="&#xcf;" horiz-adv-x="168" 
d="M149 735.5q8 -9.5 5 -22.5q-1 -14 -11.5 -23t-24.5 -9t-22 9t-6 23q3 14 13.5 23t23.5 9q14 0 22 -9.5zM298.5 735.5q7.5 -9.5 5.5 -22.5q-1 -14 -12 -23t-25 -9t-21 9t-6 23q2 14 12.5 23t24.5 9t21.5 -9.5zM103 0h-38l95 603h38z" />
    <glyph glyph-name="Eth" unicode="&#xd0;" horiz-adv-x="522" 
d="M114 311h-64l5 36h65l40 256h109q73 0 118 -14q53 -17 94 -62q65 -73 65 -176q0 -27 -4 -50q-11 -63 -43.5 -120.5t-84.5 -100.5q-56 -46 -116 -64q-52 -16 -124 -16h-109zM158 347h139l-6 -36h-138l-44 -275h69q64 0 115.5 16t99.5 57q45 38 73 87.5t37 104.5q3 23 3 44
q0 45 -15 85.5t-44 71.5q-35 37 -79 51t-106 14h-69z" />
    <glyph glyph-name="Ntilde" unicode="&#xd1;" horiz-adv-x="674" 
d="M331 692q12 22 31 36.5t40 14.5q13 0 24.5 -4t28.5 -11q4 -2 26 -10q11 -6 22 -6q13 0 24.5 9.5t18.5 23.5l21 -18q-9 -22 -30 -37t-43 -15q-17 0 -49 16q-34 16 -52 16q-14 0 -23 -8.5t-17 -24.5zM606 -20l-420 538l-83 -518h-38l97 611l421 -534l83 526h39z" />
    <glyph glyph-name="Ograve" unicode="&#xd2;" horiz-adv-x="683" 
d="M449 777l62 -118l-33 -13l-80 116zM554 587q54 -24 90 -67q30 -35 46 -79t16 -93q0 -14 -4 -46q-10 -63 -43 -119t-85 -100q-50 -43 -111 -67t-123 -24q-64 0 -116.5 24t-89.5 67q-61 72 -61 170q0 26 4 49q10 62 43 118t84 100q50 43 110.5 67t123.5 24q62 0 116 -24z
M323.5 553.5q-53.5 -21.5 -97.5 -59.5q-44 -37 -73 -87t-38 -105q-3 -21 -3 -42q0 -88 54 -150q32 -38 78 -60t102 -22q55 0 108 21.5t98 60.5q44 37 73.5 87t38.5 105q3 21 3 41q0 43 -14 81.5t-39 69.5q-33 38 -79.5 59.5t-101.5 21.5q-56 0 -109.5 -21.5z" />
    <glyph glyph-name="Oacute" unicode="&#xd3;" horiz-adv-x="683" 
d="M527 762l-117 -116l-28 13l99 118zM554 587q54 -24 90 -67q30 -35 46 -79t16 -93q0 -14 -4 -46q-10 -63 -43 -119t-85 -100q-50 -43 -111 -67t-123 -24q-64 0 -116.5 24t-89.5 67q-61 72 -61 170q0 26 4 49q10 62 43 118t84 100q50 43 110.5 67t123.5 24q62 0 116 -24z
M323.5 553.5q-53.5 -21.5 -97.5 -59.5q-44 -37 -73 -87t-38 -105q-3 -21 -3 -42q0 -88 54 -150q32 -38 78 -60t102 -22q55 0 108 21.5t98 60.5q44 37 73.5 87t38.5 105q3 21 3 41q0 43 -14 81.5t-39 69.5q-33 38 -79.5 59.5t-101.5 21.5q-56 0 -109.5 -21.5z" />
    <glyph glyph-name="Ocircumflex" unicode="&#xd4;" horiz-adv-x="683" 
d="M462 761l97 -85l-34 -23l-71 61l-91 -61l-25 23zM554 587q54 -24 90 -67q30 -35 46 -79t16 -93q0 -14 -4 -46q-10 -63 -43 -119t-85 -100q-50 -43 -111 -67t-123 -24q-64 0 -116.5 24t-89.5 67q-61 72 -61 170q0 26 4 49q10 62 43 118t84 100q50 43 110.5 67t123.5 24
q62 0 116 -24zM323.5 553.5q-53.5 -21.5 -97.5 -59.5q-44 -37 -73 -87t-38 -105q-3 -21 -3 -42q0 -88 54 -150q32 -38 78 -60t102 -22q55 0 108 21.5t98 60.5q44 37 73.5 87t38.5 105q3 21 3 41q0 43 -14 81.5t-39 69.5q-33 38 -79.5 59.5t-101.5 21.5q-56 0 -109.5 -21.5z
" />
    <glyph glyph-name="Otilde" unicode="&#xd5;" horiz-adv-x="683" 
d="M336 692q12 22 31 36.5t39 14.5q13 0 25 -4t29 -11q4 -2 26 -10q11 -6 22 -6q13 0 24 9.5t19 23.5l21 -18q-9 -22 -30 -37t-43 -15q-17 0 -49 16q-34 16 -52 16q-24 0 -40 -33zM554 587q54 -24 90 -67q30 -35 46 -79t16 -93q0 -14 -4 -46q-10 -63 -43 -119t-85 -100
q-50 -43 -111 -67t-123 -24q-64 0 -116.5 24t-89.5 67q-61 72 -61 170q0 26 4 49q10 62 43 118t84 100q50 43 110.5 67t123.5 24q62 0 116 -24zM323.5 553.5q-53.5 -21.5 -97.5 -59.5q-44 -37 -73 -87t-38 -105q-3 -21 -3 -42q0 -88 54 -150q32 -38 78 -60t102 -22
q55 0 108 21.5t98 60.5q44 37 73.5 87t38.5 105q3 21 3 41q0 43 -14 81.5t-39 69.5q-33 38 -79.5 59.5t-101.5 21.5q-56 0 -109.5 -21.5z" />
    <glyph glyph-name="Odieresis" unicode="&#xd6;" horiz-adv-x="683" 
d="M406.5 735.5q7.5 -9.5 5.5 -22.5q-1 -14 -12 -23t-25 -9t-21 9t-6 23q2 14 12.5 23t24.5 9t21.5 -9.5zM554.5 737.5q7.5 -7.5 7.5 -19.5q0 -16 -11 -26.5t-26 -10.5q-13 0 -20 7t-7 19q0 16 10.5 27t25.5 11q13 0 20.5 -7.5zM554 587q54 -24 90 -67q30 -35 46 -79t16 -93
q0 -14 -4 -46q-10 -63 -43 -119t-85 -100q-50 -43 -111 -67t-123 -24q-64 0 -116.5 24t-89.5 67q-61 72 -61 170q0 26 4 49q10 62 43 118t84 100q50 43 110.5 67t123.5 24q62 0 116 -24zM323.5 553.5q-53.5 -21.5 -97.5 -59.5q-44 -37 -73 -87t-38 -105q-3 -21 -3 -42
q0 -88 54 -150q32 -38 78 -60t102 -22q55 0 108 21.5t98 60.5q44 37 73.5 87t38.5 105q3 21 3 41q0 43 -14 81.5t-39 69.5q-33 38 -79.5 59.5t-101.5 21.5q-56 0 -109.5 -21.5z" />
    <glyph glyph-name="multiply" unicode="&#xd7;" 
d="M104 382l28 28l152 -181l210 181l20 -28l-208 -177l151 -179l-28 -26l-152 180l-209 -180l-21 26l209 179z" />
    <glyph glyph-name="Oslash" unicode="&#xd8;" horiz-adv-x="683" 
d="M126 95q-53 71 -53 159q0 27 4 48q10 62 43 118t84 100q50 43 110.5 67t123.5 24q59 0 108 -20.5t86 -58.5l85 73l20 -21l-86 -74q55 -69 55 -160q0 -27 -4 -48q-10 -63 -43 -119t-85 -100q-50 -43 -111 -67t-123 -24q-59 0 -109 21t-86 60l-84 -73l-18 23zM602 506
q-31 33 -74.5 51t-94.5 18q-56 0 -109.5 -21.5t-97.5 -59.5q-44 -37 -73 -87t-38 -105q-4 -20 -4 -44q0 -76 45 -137zM174 98q33 -34 76.5 -52t95.5 -18q55 0 108 21.5t98 60.5q44 37 73.5 87t38.5 105q3 21 3 40q0 82 -46 142z" />
    <glyph glyph-name="Ugrave" unicode="&#xd9;" horiz-adv-x="528" 
d="M359 777l63 -118l-33 -13l-81 116zM526 603h38l-59 -376l-4 -20q-8 -44 -15 -66q-17 -45 -48 -79q-35 -34 -82 -52t-94 -18t-87 18t-65 52q-22 36 -24 79q0 30 9 86l59 376h39l-58 -365q-1 -8 -5 -34t-4 -47q0 -44 16 -71q18 -27 54 -42.5t73 -15.5t76 15q42 17 68 43
q25 27 35.5 61.5t19.5 90.5z" />
    <glyph glyph-name="Uacute" unicode="&#xda;" horiz-adv-x="528" 
d="M462 762l-118 -116l-28 13l99 118zM526 603h38l-59 -376l-4 -20q-8 -44 -15 -66q-17 -45 -48 -79q-35 -34 -82 -52t-94 -18t-87 18t-65 52q-22 36 -24 79q0 30 9 86l59 376h39l-58 -365q-1 -8 -5 -34t-4 -47q0 -44 16 -71q18 -27 54 -42.5t73 -15.5t76 15q42 17 68 43
q25 27 35.5 61.5t19.5 90.5z" />
    <glyph glyph-name="Ucircumflex" unicode="&#xdb;" horiz-adv-x="528" 
d="M385 761l97 -85l-35 -23l-70 61l-91 -61l-25 23zM526 603h38l-59 -376l-4 -20q-8 -44 -15 -66q-17 -45 -48 -79q-35 -34 -82 -52t-94 -18t-87 18t-65 52q-22 36 -24 79q0 30 9 86l59 376h39l-58 -365q-1 -8 -5 -34t-4 -47q0 -44 16 -71q18 -27 54 -42.5t73 -15.5t76 15
q42 17 68 43q25 27 35.5 61.5t19.5 90.5z" />
    <glyph glyph-name="Udieresis" unicode="&#xdc;" horiz-adv-x="528" 
d="M329 735.5q8 -9.5 5 -22.5q-1 -14 -11.5 -23t-24.5 -9t-22 9t-6 23q3 14 13.5 23t23.5 9q14 0 22 -9.5zM478.5 735.5q7.5 -9.5 5.5 -22.5q-1 -14 -12 -23t-25 -9t-21 9t-6 23q2 14 12.5 23t24.5 9t21.5 -9.5zM526 603h38l-59 -376l-4 -20q-8 -44 -15 -66q-17 -45 -48 -79
q-35 -34 -82 -52t-94 -18t-87 18t-65 52q-22 36 -24 79q0 30 9 86l59 376h39l-58 -365q-1 -8 -5 -34t-4 -47q0 -44 16 -71q18 -27 54 -42.5t73 -15.5t76 15q42 17 68 43q25 27 35.5 61.5t19.5 90.5z" />
    <glyph glyph-name="Yacute" unicode="&#xdd;" horiz-adv-x="447" 
d="M433 762l-118 -116l-28 13l99 118zM98 603h43l129 -305l226 305h42l-255 -345l-41 -258h-38l41 258z" />
    <glyph glyph-name="Thorn" unicode="&#xde;" horiz-adv-x="378" 
d="M160 603h38l-20 -128h68q44 0 73.5 -6.5t51.5 -28.5q38 -38 38 -95q0 -40 -19 -82t-53 -66q-51 -39 -141 -39h-68l-25 -158h-38zM203 194q33 0 59.5 7t51.5 26q45 35 54 91q2 16 2 23q0 23 -8 42.5t-24 31.5q-18 15 -42 19.5t-60 4.5h-63l-39 -245h69z" />
    <glyph glyph-name="germandbls" unicode="&#xdf;" horiz-adv-x="427" 
d="M115 336h-39l5 34h39l24 150q5 34 14.5 59.5t29.5 45.5q22 22 52 33.5t62 11.5q54 0 85 -36q23 -29 23 -70q0 -43 -24 -80t-65 -52l-1 -2q31 -9 56 -29t40 -49q23 -44 23 -97q0 -22 -2 -33q-7 -44 -30.5 -83.5t-58.5 -70.5q-35 -30 -77.5 -49.5t-86.5 -23.5l6 34
q37 5 72.5 21.5t64.5 42.5q60 51 74 129q3 17 3 33q0 56 -34 98q-43 50 -120 58l5 34q46 1 78.5 28t39.5 72q1 6 1 16q0 34 -23.5 55t-60.5 21q-23 0 -46 -10t-37 -29q-12 -16 -17.5 -37t-11.5 -54l-80 -507h-36z" />
    <glyph glyph-name="agrave" unicode="&#xe0;" horiz-adv-x="448" 
d="M286 571l63 -117l-33 -14l-81 116zM386 0h-36l11 66h-2q-26 -35 -69 -55q-39 -19 -84 -19q-41 0 -72.5 15t-51.5 42q-30 43 -30 101q0 18 3 37q14 83 71 136q27 26 63 40.5t77 14.5q44 0 78.5 -18.5t53.5 -53.5h1l10 64h36zM199.5 331q-28.5 -13 -51.5 -35
q-22 -22 -37 -50.5t-20 -58.5q-2 -20 -2 -29q0 -49 24 -84q35 -48 98 -48q69 0 116 49q45 47 56 116q2 10 2 30q0 48 -25 79q-36 44 -101 44q-31 0 -59.5 -13z" />
    <glyph glyph-name="aacute" unicode="&#xe1;" horiz-adv-x="448" 
d="M389 556l-118 -116l-28 14l99 117zM386 0h-36l11 66h-2q-26 -35 -69 -55q-39 -19 -84 -19q-41 0 -72.5 15t-51.5 42q-30 43 -30 101q0 18 3 37q14 83 71 136q27 26 63 40.5t77 14.5q44 0 78.5 -18.5t53.5 -53.5h1l10 64h36zM199.5 331q-28.5 -13 -51.5 -35
q-22 -22 -37 -50.5t-20 -58.5q-2 -20 -2 -29q0 -49 24 -84q35 -48 98 -48q69 0 116 49q45 47 56 116q2 10 2 30q0 48 -25 79q-36 44 -101 44q-31 0 -59.5 -13z" />
    <glyph glyph-name="acircumflex" unicode="&#xe2;" horiz-adv-x="448" 
d="M312 555l97 -85l-34 -23l-70 62l-91 -62l-26 23zM386 0h-36l11 66h-2q-26 -35 -69 -55q-39 -19 -84 -19q-41 0 -72.5 15t-51.5 42q-30 43 -30 101q0 18 3 37q14 83 71 136q27 26 63 40.5t77 14.5q44 0 78.5 -18.5t53.5 -53.5h1l10 64h36zM199.5 331q-28.5 -13 -51.5 -35
q-22 -22 -37 -50.5t-20 -58.5q-2 -20 -2 -29q0 -49 24 -84q35 -48 98 -48q69 0 116 49q45 47 56 116q2 10 2 30q0 48 -25 79q-36 44 -101 44q-31 0 -59.5 -13z" />
    <glyph glyph-name="atilde" unicode="&#xe3;" horiz-adv-x="448" 
d="M186 486q13 22 31 37t39 15q22 0 54 -16l25 -10q11 -6 23 -6q13 0 25 9.5t19 23.5l20 -17q-9 -22 -30 -37t-43 -15q-16 0 -50 16t-52 16q-14 0 -23 -8.5t-17 -24.5zM386 0h-36l11 66h-2q-26 -35 -69 -55q-39 -19 -84 -19q-41 0 -72.5 15t-51.5 42q-30 43 -30 101
q0 18 3 37q14 83 71 136q27 26 63 40.5t77 14.5q44 0 78.5 -18.5t53.5 -53.5h1l10 64h36zM199.5 331q-28.5 -13 -51.5 -35q-22 -22 -37 -50.5t-20 -58.5q-2 -20 -2 -29q0 -49 24 -84q35 -48 98 -48q69 0 116 49q45 47 56 116q2 10 2 30q0 48 -25 79q-36 44 -101 44
q-31 0 -59.5 -13z" />
    <glyph glyph-name="adieresis" unicode="&#xe4;" horiz-adv-x="448" 
d="M255 532q7 -7 7 -19q0 -16 -11 -27t-26 -11q-12 0 -19.5 7.5t-7.5 18.5q0 16 11 27t26 11q13 0 20 -7zM406 530q7 -9 5 -23t-12.5 -23t-24.5 -9q-13 0 -21 9t-6 23t13 23t25 9t21 -9zM386 0h-36l11 66h-2q-26 -35 -69 -55q-39 -19 -84 -19q-41 0 -72.5 15t-51.5 42
q-30 43 -30 101q0 18 3 37q14 83 71 136q27 26 63 40.5t77 14.5q44 0 78.5 -18.5t53.5 -53.5h1l10 64h36zM199.5 331q-28.5 -13 -51.5 -35q-22 -22 -37 -50.5t-20 -58.5q-2 -20 -2 -29q0 -49 24 -84q35 -48 98 -48q69 0 116 49q45 47 56 116q2 10 2 30q0 48 -25 79
q-36 44 -101 44q-31 0 -59.5 -13z" />
    <glyph glyph-name="aring" unicode="&#xe5;" horiz-adv-x="448" 
d="M357 554.5q17 -16.5 17 -41.5q0 -35 -28 -60q-24 -21 -53 -21q-26 0 -43 16.5t-17 42.5q0 33 29 60q25 20 52 20q26 0 43 -16.5zM281 528.5q-13 -10.5 -15 -26.5q-3 -16 6 -27t26 -11q18 0 30.5 13t12.5 31q0 14 -8.5 22.5t-22.5 8.5q-16 0 -29 -10.5zM386 0h-36l11 66
h-2q-26 -35 -69 -55q-39 -19 -84 -19q-41 0 -72.5 15t-51.5 42q-30 43 -30 101q0 18 3 37q14 83 71 136q27 26 63 40.5t77 14.5q44 0 78.5 -18.5t53.5 -53.5h1l10 64h36zM199.5 331q-28.5 -13 -51.5 -35q-22 -22 -37 -50.5t-20 -58.5q-2 -20 -2 -29q0 -49 24 -84
q35 -48 98 -48q69 0 116 49q45 47 56 116q2 10 2 30q0 48 -25 79q-36 44 -101 44q-31 0 -59.5 -13z" />
    <glyph glyph-name="ae" unicode="&#xe6;" horiz-adv-x="679" 
d="M655 88q-35 -45 -81.5 -70.5t-98.5 -25.5q-48 0 -86.5 24.5t-50.5 66.5h-1q-19 -46 -71 -69q-44 -22 -97 -22q-27 0 -53 7t-46 21q-38 26 -38 69q0 70 70 108q51 26 111 26q36 0 63 -8.5t50 -30.5q4 28 4 41q0 43 -16 72q-26 47 -94 47q-53 0 -130 -34l7 37q63 31 136 31
q52 0 85 -27t43 -76q28 46 75.5 74.5t97.5 28.5q41 0 72 -16t51 -44q28 -40 28 -99q0 -18 -3 -38h-320q-2 -18 -2 -25q0 -49 26 -84q32 -46 96 -46q42 0 80.5 22.5t65.5 60.5zM651 214q2 54 -32 91q-16 18 -39 28.5t-49 10.5q-56 0 -104 -38q-48 -40 -61 -92h285zM123 173
q-54 -27 -54 -80q0 -35 31 -51q29 -16 78 -16q46 0 83 19q54 27 54 76q0 33 -31 51q-30 18 -76 18q-50 0 -85 -17z" />
    <glyph glyph-name="ccedilla" unicode="&#xe7;" horiz-adv-x="382" 
d="M390 284q-46 60 -121 60q-32 0 -62 -12.5t-55 -34.5q-29 -27 -46 -63.5t-17 -72.5q0 -51 28 -87q17 -22 43 -35t58 -13q39 0 77 17.5t69 48.5l-7 -49q-68 -51 -143 -51q-40 0 -72.5 15t-54.5 42q-35 41 -35 102q0 17 3 35q7 39 26.5 74t49.5 62t67.5 41.5t77.5 14.5
q75 0 122 -46zM138 -146l-28 15l93 115l42 -18z" />
    <glyph glyph-name="egrave" unicode="&#xe8;" horiz-adv-x="408" 
d="M266 571l63 -117l-33 -14l-81 116zM90 182q-3 -18 -3 -33q0 -47 27 -80q17 -21 42.5 -32t57.5 -11q42 0 79.5 22.5t64.5 61.5l27 -18q-33 -48 -80 -74t-102 -26q-40 0 -71 15t-50 43q-30 40 -30 99q0 18 3 37q5 38 24 72.5t47 61.5t63.5 42.5t75.5 15.5t71 -15.5
t50 -42.5q28 -40 28 -99q0 -19 -3 -39h-321zM381 215q1 52 -31 91q-33 38 -90 38q-54 0 -104 -38q-46 -37 -60 -91h285z" />
    <glyph glyph-name="eacute" unicode="&#xe9;" horiz-adv-x="408" 
d="M369 556l-118 -116l-28 14l99 117zM90 182q-3 -18 -3 -33q0 -47 27 -80q17 -21 42.5 -32t57.5 -11q42 0 79.5 22.5t64.5 61.5l27 -18q-33 -48 -80 -74t-102 -26q-40 0 -71 15t-50 43q-30 40 -30 99q0 18 3 37q5 38 24 72.5t47 61.5t63.5 42.5t75.5 15.5t71 -15.5
t50 -42.5q28 -40 28 -99q0 -19 -3 -39h-321zM381 215q1 52 -31 91q-33 38 -90 38q-54 0 -104 -38q-46 -37 -60 -91h285z" />
    <glyph glyph-name="ecircumflex" unicode="&#xea;" horiz-adv-x="408" 
d="M292 555l97 -85l-34 -23l-70 62l-91 -62l-26 23zM90 182q-3 -18 -3 -33q0 -47 27 -80q17 -21 42.5 -32t57.5 -11q42 0 79.5 22.5t64.5 61.5l27 -18q-33 -48 -80 -74t-102 -26q-40 0 -71 15t-50 43q-30 40 -30 99q0 18 3 37q5 38 24 72.5t47 61.5t63.5 42.5t75.5 15.5
t71 -15.5t50 -42.5q28 -40 28 -99q0 -19 -3 -39h-321zM381 215q1 52 -31 91q-33 38 -90 38q-54 0 -104 -38q-46 -37 -60 -91h285z" />
    <glyph glyph-name="edieresis" unicode="&#xeb;" horiz-adv-x="408" 
d="M235 532q7 -7 7 -19q0 -16 -11 -27t-26 -11q-12 0 -19.5 7.5t-7.5 18.5q0 16 11 27t26 11q13 0 20 -7zM386 530q7 -9 5 -23t-12.5 -23t-24.5 -9q-13 0 -21 9t-6 23t13 23t25 9t21 -9zM90 182q-3 -18 -3 -33q0 -47 27 -80q17 -21 42.5 -32t57.5 -11q42 0 79.5 22.5
t64.5 61.5l27 -18q-33 -48 -80 -74t-102 -26q-40 0 -71 15t-50 43q-30 40 -30 99q0 18 3 37q5 38 24 72.5t47 61.5t63.5 42.5t75.5 15.5t71 -15.5t50 -42.5q28 -40 28 -99q0 -19 -3 -39h-321zM381 215q1 52 -31 91q-33 38 -90 38q-54 0 -104 -38q-46 -37 -60 -91h285z" />
    <glyph glyph-name="igrave" unicode="&#xec;" horiz-adv-x="187" 
d="M156 571l62 -117l-32 -14l-81 116zM111 0h-36l59 370h36z" />
    <glyph glyph-name="iacute" unicode="&#xed;" horiz-adv-x="187" 
d="M258 556l-117 -116l-28 14l99 117zM111 0h-36l59 370h36z" />
    <glyph glyph-name="icircumflex" unicode="&#xee;" horiz-adv-x="187" 
d="M182 555l96 -85l-33 -23l-71 62l-91 -62l-25 23zM111 0h-36l59 370h36z" />
    <glyph glyph-name="idieresis" unicode="&#xef;" horiz-adv-x="187" 
d="M126 530q7 -9 5 -23t-12.5 -23t-24.5 -9q-13 0 -21 9t-6 23t13 23t25 9t21 -9zM274 532q7 -7 7 -19q0 -16 -11 -27t-26 -11q-12 0 -19.5 7.5t-7.5 19.5q0 16 11 26.5t26 10.5q13 0 20 -7zM111 0h-36l59 370h36z" />
    <glyph glyph-name="eth" unicode="&#xf0;" horiz-adv-x="438" 
d="M202 662q55 -35 99 -76l135 70l16 -26l-128 -66q72 -74 102 -159q23 -66 23 -135q0 -34 -4 -62q-17 -105 -87 -165q-31 -26 -68 -38.5t-74 -12.5q-40 0 -72.5 15t-54.5 42q-37 45 -37 105q0 15 3 31q5 38 25.5 73.5t51.5 62.5q32 27 70 42t78 15q47 0 82 -19
q25 -14 44 -37q-11 65 -35 112q-23 48 -82 112l-127 -66l-16 27l119 60q-33 33 -93 71zM207 331.5q-31 -12.5 -55 -34.5q-29 -28 -46.5 -64t-17.5 -73q0 -50 30 -86q17 -23 43 -35.5t58 -12.5q34 0 65.5 11.5t56.5 33.5q31 27 48.5 63t17.5 78q0 53 -30 86q-40 46 -107 46
q-32 0 -63 -12.5z" />
    <glyph glyph-name="ntilde" unicode="&#xf1;" horiz-adv-x="392" 
d="M158 486q13 22 31 37t39 15q22 0 54 -16l25 -10q11 -6 23 -6q13 0 25 9.5t19 23.5l20 -17q-9 -22 -30 -37t-43 -15q-16 0 -50 16t-52 16q-14 0 -23 -8.5t-17 -24.5zM147 312h2q21 31 52.5 48.5t67.5 17.5q67 0 90 -42q12 -20 12 -56q0 -22 -5 -57l-36 -223h-36l36 223
q5 30 5 50t-6 36q-15 35 -69 35q-63 0 -97 -53q-24 -37 -37 -109l-28 -182h-36l58 370h36z" />
    <glyph glyph-name="ograve" unicode="&#xf2;" horiz-adv-x="438" 
d="M281 571l62 -117l-33 -14l-80 116zM351.5 363.5q33.5 -14.5 55.5 -41.5q37 -43 37 -107q0 -49 -22 -92.5t-59 -75.5q-31 -26 -69 -40.5t-78 -14.5t-72.5 15t-53.5 42q-18 21 -28 48.5t-10 57.5q0 48 21.5 91t58.5 75q32 27 69 42t77 15t73.5 -14.5zM207 331.5
q-31 -12.5 -55 -34.5q-29 -28 -46.5 -64t-17.5 -73q0 -50 30 -86q17 -23 43 -35.5t58 -12.5q34 0 65.5 11.5t56.5 33.5q31 27 48.5 63t17.5 78q0 53 -30 86q-40 46 -107 46q-32 0 -63 -12.5z" />
    <glyph glyph-name="oacute" unicode="&#xf3;" horiz-adv-x="438" 
d="M383 556l-117 -116l-28 14l99 117zM351.5 363.5q33.5 -14.5 55.5 -41.5q37 -43 37 -107q0 -49 -22 -92.5t-59 -75.5q-31 -26 -69 -40.5t-78 -14.5t-72.5 15t-53.5 42q-18 21 -28 48.5t-10 57.5q0 48 21.5 91t58.5 75q32 27 69 42t77 15t73.5 -14.5zM207 331.5
q-31 -12.5 -55 -34.5q-29 -28 -46.5 -64t-17.5 -73q0 -50 30 -86q17 -23 43 -35.5t58 -12.5q34 0 65.5 11.5t56.5 33.5q31 27 48.5 63t17.5 78q0 53 -30 86q-40 46 -107 46q-32 0 -63 -12.5z" />
    <glyph glyph-name="ocircumflex" unicode="&#xf4;" horiz-adv-x="438" 
d="M307 555l97 -85l-34 -23l-70 62l-91 -62l-26 23zM351.5 363.5q33.5 -14.5 55.5 -41.5q37 -43 37 -107q0 -49 -22 -92.5t-59 -75.5q-31 -26 -69 -40.5t-78 -14.5t-72.5 15t-53.5 42q-18 21 -28 48.5t-10 57.5q0 48 21.5 91t58.5 75q32 27 69 42t77 15t73.5 -14.5z
M207 331.5q-31 -12.5 -55 -34.5q-29 -28 -46.5 -64t-17.5 -73q0 -50 30 -86q17 -23 43 -35.5t58 -12.5q34 0 65.5 11.5t56.5 33.5q31 27 48.5 63t17.5 78q0 53 -30 86q-40 46 -107 46q-32 0 -63 -12.5z" />
    <glyph glyph-name="otilde" unicode="&#xf5;" horiz-adv-x="438" 
d="M180 486q13 22 31.5 37t38.5 15q22 0 54 -16q4 -2 26 -10q11 -6 22 -6q13 0 25 9.5t19 23.5l20 -17q-9 -22 -30 -37t-43 -15q-17 0 -49 16q-34 16 -52 16q-24 0 -40 -33zM351.5 363.5q33.5 -14.5 55.5 -41.5q37 -43 37 -107q0 -49 -22 -92.5t-59 -75.5q-31 -26 -69 -40.5
t-78 -14.5t-72.5 15t-53.5 42q-18 21 -28 48.5t-10 57.5q0 48 21.5 91t58.5 75q32 27 69 42t77 15t73.5 -14.5zM207 331.5q-31 -12.5 -55 -34.5q-29 -28 -46.5 -64t-17.5 -73q0 -50 30 -86q17 -23 43 -35.5t58 -12.5q34 0 65.5 11.5t56.5 33.5q31 27 48.5 63t17.5 78
q0 53 -30 86q-40 46 -107 46q-32 0 -63 -12.5z" />
    <glyph glyph-name="odieresis" unicode="&#xf6;" horiz-adv-x="438" 
d="M251 530q7 -9 5 -23t-12.5 -23t-24.5 -9q-13 0 -21 9t-6 23t13 23t25 9t21 -9zM399 532q7 -7 7 -19q0 -16 -11 -27t-26 -11q-12 0 -19.5 7.5t-7.5 18.5q0 16 11 27t26 11q13 0 20 -7zM351.5 363.5q33.5 -14.5 55.5 -41.5q37 -43 37 -107q0 -49 -22 -92.5t-59 -75.5
q-31 -26 -69 -40.5t-78 -14.5t-72.5 15t-53.5 42q-18 21 -28 48.5t-10 57.5q0 48 21.5 91t58.5 75q32 27 69 42t77 15t73.5 -14.5zM207 331.5q-31 -12.5 -55 -34.5q-29 -28 -46.5 -64t-17.5 -73q0 -50 30 -86q17 -23 43 -35.5t58 -12.5q34 0 65.5 11.5t56.5 33.5
q31 27 48.5 63t17.5 78q0 53 -30 86q-40 46 -107 46q-32 0 -63 -12.5z" />
    <glyph glyph-name="divide" unicode="&#xf7;" 
d="M334.5 400.5q8.5 -9.5 6.5 -23.5t-13.5 -23.5t-25.5 -9.5q-12 0 -19.5 7.5t-7.5 19.5q0 16 11 27.5t27 11.5q13 0 21.5 -9.5zM78 224h410l-6 -38h-409zM278.5 58q7.5 -8 7.5 -20q0 -16 -11.5 -27t-26.5 -11q-14 0 -21.5 9.5t-6.5 23.5q2 14 13.5 23.5t24.5 9.5t20.5 -8z
" />
    <glyph glyph-name="oslash" unicode="&#xf8;" horiz-adv-x="438" 
d="M80 62q-28 42 -28 93q0 48 21.5 91t58.5 75q32 27 69 42t77 15q71 0 117 -44l59 50l18 -23l-57 -50q29 -42 29 -97q0 -49 -22 -92t-59 -75q-31 -26 -69 -40.5t-78 -14.5q-36 0 -66.5 12.5t-51.5 35.5l-56 -48l-17 22zM366 309q-38 35 -96 35q-32 0 -63 -12.5t-55 -34.5
q-29 -27 -46.5 -63t-17.5 -73q0 -41 21 -75zM126 64q35 -38 93 -38q34 0 65.5 11.5t56.5 33.5q31 27 48.5 63t17.5 78q0 43 -21 74z" />
    <glyph glyph-name="ugrave" unicode="&#xf9;" horiz-adv-x="378" 
d="M243 571l63 -117l-33 -14l-81 116zM380 370l-35 -222q-6 -39 -13 -62t-26 -44q-23 -25 -54.5 -37.5t-64.5 -12.5t-60 12.5t-42 37.5q-12 20 -12 48q0 18 6 58l35 222h36l-32 -209q-6 -38 -6 -56q0 -22 6 -39q15 -40 75 -40t88 40q21 31 30 95l33 209h36z" />
    <glyph glyph-name="uacute" unicode="&#xfa;" horiz-adv-x="378" 
d="M362 556l-118 -116l-28 14l99 117zM380 370l-35 -222q-6 -39 -13 -62t-26 -44q-23 -25 -54.5 -37.5t-64.5 -12.5t-60 12.5t-42 37.5q-12 20 -12 48q0 18 6 58l35 222h36l-32 -209q-6 -38 -6 -56q0 -22 6 -39q15 -40 75 -40t88 40q21 31 30 95l33 209h36z" />
    <glyph glyph-name="ucircumflex" unicode="&#xfb;" horiz-adv-x="378" 
d="M277 555l97 -85l-34 -23l-70 62l-92 -62l-25 23zM380 370l-35 -222q-6 -39 -13 -62t-26 -44q-23 -25 -54.5 -37.5t-64.5 -12.5t-60 12.5t-42 37.5q-12 20 -12 48q0 18 6 58l35 222h36l-32 -209q-6 -38 -6 -56q0 -22 6 -39q15 -40 75 -40t88 40q21 31 30 95l33 209h36z
" />
    <glyph glyph-name="udieresis" unicode="&#xfc;" horiz-adv-x="378" 
d="M221.5 530q7.5 -9 4.5 -23q-1 -13 -11.5 -22.5t-24.5 -9.5t-22 9t-6 23q3 14 13.5 23t24.5 9t21.5 -9zM371 530q7 -9 5 -23t-12.5 -23t-24.5 -9q-13 0 -21 9t-6 23t13 23t25 9t21 -9zM380 370l-35 -222q-6 -39 -13 -62t-26 -44q-23 -25 -54.5 -37.5t-64.5 -12.5t-60 12.5
t-42 37.5q-12 20 -12 48q0 18 6 58l35 222h36l-32 -209q-6 -38 -6 -56q0 -22 6 -39q15 -40 75 -40t88 40q21 31 30 95l33 209h36z" />
    <glyph glyph-name="yacute" unicode="&#xfd;" horiz-adv-x="368" 
d="M361 556l-118 -116l-28 14l99 117zM53 370h37l105 -335l195 335h36l-340 -586h-37l122 210z" />
    <glyph glyph-name="thorn" unicode="&#xfe;" horiz-adv-x="448" 
d="M63 -216h-36l139 876h36l-56 -357h1q26 36 70 55q42 20 83 20q81 0 124 -58q30 -40 30 -100q0 -18 -3 -38q-13 -82 -69 -136q-28 -26 -64.5 -40t-77.5 -14q-45 0 -79.5 18.5t-50.5 53.5h-2zM179 294q-27 -30 -42.5 -67t-15.5 -78q0 -49 25 -80q35 -43 100 -43
q32 0 61 12.5t51 34.5q28 27 43.5 62.5t15.5 75.5q0 48 -23 83q-15 24 -40.5 37t-58.5 13q-68 0 -116 -50z" />
    <glyph glyph-name="ydieresis" unicode="&#xff;" horiz-adv-x="368" 
d="M219 532q7 -7 7 -19q0 -16 -11 -27t-26 -11q-12 0 -19.5 7.5t-7.5 18.5q0 16 11 27t26 11q13 0 20 -7zM370 530q7 -9 5 -23t-12.5 -23t-24.5 -9q-13 0 -21 9t-6 23t13 23t25 9t21 -9zM53 370h37l105 -335l195 335h36l-340 -586h-37l122 210z" />
    <glyph glyph-name="dotlessi" unicode="&#x131;" horiz-adv-x="187" 
d="M111 0h-36l59 370h36z" />
    <glyph glyph-name="Lslash" unicode="&#x141;" horiz-adv-x="262" 
d="M110 283l-72 -45l6 39l72 45l44 281h38l-40 -254l114 71l-6 -39l-114 -71l-43 -274h153l-5 -36h-192z" />
    <glyph glyph-name="lslash" unicode="&#x142;" horiz-adv-x="183" 
d="M123 313l-67 -43l6 36l67 43l49 311h36l-45 -286l67 43l-6 -36l-67 -43l-53 -338h-36z" />
    <glyph glyph-name="OE" unicode="&#x152;" horiz-adv-x="954" 
d="M638 155h-1q-46 -73 -131 -119q-39 -21 -82 -32.5t-85 -11.5q-59 0 -112 23t-89 64q-65 71 -65 172q0 28 4 51q10 63 43.5 120t84.5 100q50 42 111 65.5t125 23.5q41 0 79.5 -11.5t70.5 -33.5q67 -45 91 -120h2l25 157h288l-6 -36h-249l-35 -219h244l-5 -36h-244
l-44 -276h249l-5 -36h-288zM326 553.5q-54 -21.5 -98 -59.5t-74 -88t-39 -104q-4 -30 -4 -43q0 -88 57 -153q32 -36 79 -57t99 -21q55 0 110 22t100 63q86 76 105 189q4 30 4 43q0 42 -13.5 81t-38.5 68q-32 38 -78 59.5t-101 21.5q-54 0 -108 -21.5z" />
    <glyph glyph-name="oe" unicode="&#x153;" horiz-adv-x="756" 
d="M440 182q-4 -15 -4 -33q0 -43 26 -77q35 -46 99 -46q89 0 144 85l27 -18q-31 -49 -78 -75t-102 -26q-54 0 -92 30q-41 30 -51 79q-34 -51 -83 -79q-51 -30 -108 -30q-40 0 -73 14.5t-55 41.5q-38 44 -38 106q0 48 22.5 92t59.5 76q31 27 69 41.5t79 14.5q53 0 97 -29
q42 -30 57 -79q27 51 74.5 79.5t102.5 28.5q81 0 122 -58q28 -40 28 -96q0 -14 -4 -42h-319zM210 331.5q-32 -12.5 -56 -34.5q-25 -23 -41.5 -52.5t-22.5 -62.5q-2 -16 -2 -22q0 -51 31 -87q39 -47 102 -47q33 0 63.5 12t55.5 34q30 27 48 62t18 74q0 52 -28 89
q-39 47 -103 47q-33 0 -65 -12.5zM729 215q1 52 -31 91q-33 38 -90 38q-55 0 -103 -38q-47 -39 -59 -91h283z" />
    <glyph glyph-name="Scaron" unicode="&#x160;" horiz-adv-x="435" 
d="M329 653l-97 85l34 23l71 -61l91 61l25 -23zM424 504q-17 35 -43.5 53t-67.5 18q-47 0 -87 -33q-21 -19 -34 -44.5t-13 -53.5q0 -31 27 -55q15 -15 37.5 -27t28.5 -15l106 -60q51 -37 51 -94q0 -17 -2 -26q-13 -74 -77 -125q-30 -24 -66.5 -37t-73.5 -13q-62 0 -103 35
t-53 95l36 15q12 -51 44 -80t84 -29q30 0 59 10.5t52 30.5q24 19 40 45.5t21 55.5q1 5 1 15q0 36 -30 63q-20 16 -36 25q-26 13 -38 20l-100 57q-47 33 -47 86q0 6 2 22q5 33 21 62t40 49q23 20 53.5 31t64.5 11q46 0 82 -23t51 -62z" />
    <glyph glyph-name="scaron" unicode="&#x161;" horiz-adv-x="300" 
d="M222 447l-98 86l34 22l71 -61l91 61l25 -22zM265 302q-7 20 -22.5 31t-36.5 11q-25 0 -45 -17q-13 -9 -20.5 -22.5t-7.5 -27.5q0 -16 10 -27t29 -20q28 -12 41 -16q51 -19 69 -53q6 -13 6 -31q0 -36 -19 -69q-25 -43 -73 -60q-22 -9 -48 -9q-47 0 -77 26.5t-34 71.5
l37 11q5 -35 25 -55t55 -20q36 0 63 24q16 14 25 33t9 39q0 21 -15 36q-12 9 -46 24q-48 18 -68 35q-26 21 -26 51q0 6 2 16q6 39 41 68q34 26 75 26q28 0 52.5 -17t31.5 -43z" />
    <glyph glyph-name="Ydieresis" unicode="&#x178;" horiz-adv-x="447" 
d="M297.5 735.5q7.5 -9.5 5.5 -22.5q-1 -14 -12 -23t-25 -9t-21 9t-6 23q2 14 13 23t24 9q14 0 21.5 -9.5zM445.5 737.5q7.5 -7.5 7.5 -19.5q0 -16 -11 -26.5t-26 -10.5q-12 0 -19.5 7t-7.5 19q0 16 10.5 27t26.5 11q12 0 19.5 -7.5zM98 603h43l129 -305l226 305h42
l-255 -345l-41 -258h-38l41 258z" />
    <glyph glyph-name="florin" unicode="&#x192;" 
d="M450 389l-13 -36h-92l-106 -304q-2 -7 -10 -30.5t-16.5 -42.5t-17.5 -33q-34 -55 -93 -55q-31 0 -61 14l12 33q28 -11 52 -11q17 0 29 4t21 16q19 24 38 80l115 329h-55l13 36h54l59 171q2 6 12 31.5t23 42.5q14 17 36.5 26.5t44.5 9.5q29 0 50 -12l-12 -32q-21 8 -40 8
q-40 0 -60 -32q-10 -16 -17.5 -38.5t-9.5 -29.5l-49 -145h93z" />
    <glyph glyph-name="circumflex" unicode="&#x2c6;" horiz-adv-x="341" 
d="M258 555l97 -85l-33 -23l-71 62l-91 -62l-26 23z" />
    <glyph glyph-name="caron" unicode="&#x2c7;" horiz-adv-x="341" 
d="M242 447l-98 86l34 22l71 -61l91 61l25 -22z" />
    <glyph glyph-name="breve" unicode="&#x2d8;" horiz-adv-x="347" 
d="M181 539q4 -25 23 -37t47 -12t51.5 12t35.5 37h34q-10 -39 -49 -63q-36 -22 -77 -22t-71 22q-30 24 -29 63h35z" />
    <glyph glyph-name="dotaccent" unicode="&#x2d9;" horiz-adv-x="250" 
d="M231 532q7 -7 7 -19q0 -16 -11 -27t-26 -11q-12 0 -19.5 7.5t-7.5 18.5q0 16 11 27t26 11q13 0 20 -7z" />
    <glyph glyph-name="ring" unicode="&#x2da;" horiz-adv-x="259" 
d="M262 554.5q17 -16.5 17 -40.5q0 -39 -28 -61q-23 -21 -53 -21q-26 0 -43 17t-17 43q0 31 30 59q23 20 52 20q25 0 42 -16.5zM184 526.5q-13 -12.5 -13 -30.5q0 -14 9 -23t23 -9q16 0 28.5 10.5t14.5 27.5q3 16 -6 26.5t-25 10.5q-18 0 -31 -12.5z" />
    <glyph glyph-name="ogonek" unicode="&#x2db;" horiz-adv-x="257" 
d="M157 2v-2q-29 -20 -46 -36q-14 -13 -22 -29t-8 -29q0 -18 13.5 -27.5t34.5 -9.5q19 0 48 9l-14 -35q-26 -7 -42 -7q-36 0 -57 21q-19 17 -19 44q0 8 1 12q6 26 28 52q19 19 48 37h35z" />
    <glyph glyph-name="tilde" unicode="&#x2dc;" horiz-adv-x="351" 
d="M137 486q13 22 31.5 37t38.5 15q22 0 54 -16l25 -10q12 -6 23 -6q13 0 25 9.5t19 23.5l20 -17q-9 -22 -30 -37t-43 -15q-16 0 -50 16q-32 16 -52 16q-14 0 -23 -8.5t-17 -24.5z" />
    <glyph glyph-name="hungarumlaut" unicode="&#x2dd;" horiz-adv-x="357" 
d="M278 556l-117 -116l-28 14l99 117zM385 556l-118 -116l-28 14l99 117z" />
    <glyph glyph-name="uni0302" unicode="&#x302;" horiz-adv-x="0" 
d="M-116 462h-35l-89 83l-106 -83h-42l154 123z" />
    <glyph glyph-name="uni10D0" unicode="&#x10d0;" horiz-adv-x="418" 
d="M291 379q0 -23 9 -37.5t30 -33.5l34 -24q55 -42 55 -106q0 -42 -16.5 -78t-48.5 -63q-30 -27 -71.5 -41t-88.5 -14q-59 0 -95 33t-36 89q0 42 20 82h39q-18 -36 -18 -72q0 -43 26.5 -69.5t72.5 -26.5q34 0 70.5 16t63.5 43q40 38 40 93q0 35 -17.5 57t-55.5 52
q-28 22 -42.5 42t-14.5 52l1 22h44q-1 -6 -1 -16z" />
    <glyph glyph-name="uni10D1" unicode="&#x10d1;" horiz-adv-x="469" 
d="M73 133q0 62 32.5 112t85.5 82t114 43l12 45q2 8 9 33t10.5 45t3.5 34q0 22 -24 31t-91 9l-36 -1l-11 -54h-39l28 134h39l-8 -40h30q77 0 114.5 -15t37.5 -66q0 -18 -4.5 -40.5t-8 -36.5t-5.5 -21q-12 -43 -15 -59q63 -13 97.5 -55t34.5 -102q0 -51 -20.5 -99.5
t-58.5 -81.5q-28 -24 -67 -36t-81 -12q-107 0 -148 57q-31 40 -31 94zM113.5 161q-1.5 -11 -1.5 -18q0 -64 42.5 -92.5t105.5 -28.5q31 0 60 9.5t51 27.5q31 26 48 65.5t17 89.5q0 51 -30.5 83.5t-89.5 32.5q-41 0 -84 -20.5t-75 -55.5t-41 -76q-1 -6 -2.5 -17z" />
    <glyph glyph-name="uni10D2" unicode="&#x10d2;" horiz-adv-x="502" 
d="M379.5 164q-4.5 -13 -15.5 -38q45 -24 70 -70t25 -100q0 -69 -38 -122.5t-97.5 -82t-120.5 -28.5q-76 0 -129 38.5t-53 109.5q0 83 46.5 141t116.5 88t141 36q12 24 21.5 58t9.5 64q0 76 -70 76q-57 0 -87.5 -40.5t-39.5 -118.5h-43q5 50 26.5 95t58.5 74t88 29
q53 0 80 -29t27 -83q0 -29 -6 -59q-6 -25 -10.5 -38zM198.5 67.5q-58.5 -24.5 -98.5 -71t-40 -111.5q0 -53 38.5 -88t102.5 -35q50 0 100 19.5t84 62.5t34 108q0 54 -29 95t-78 48q-55 -3 -113.5 -27.5z" />
    <glyph glyph-name="uni10D3" unicode="&#x10d3;" horiz-adv-x="653" 
d="M144 -75q-44 47 -62 83t-18 78q0 48 16.5 105t48.5 99q29 39 68.5 61t84.5 22q32 0 59 -18.5t39 -48.5q47 39 81.5 53.5t67.5 14.5q64 0 97.5 -34.5t33.5 -95.5q0 -74 -30 -130t-80.5 -86t-109.5 -30q-61 0 -93.5 34t-32.5 90q0 30 9 66t25 70q0 30 -17.5 52t-53.5 22
q-55 0 -93 -40t-57 -94t-19 -96q0 -41 12 -71.5t33 -54t56 -53.5q96 -11 145.5 -23.5t90.5 -48.5t66 -109h-50q-21 62 -64.5 93t-100.5 39.5t-145 8.5h-117l9 42h101zM363.5 197q-9.5 -32 -9.5 -59q0 -48 27 -75.5t74 -27.5q40 0 78.5 26t63 72.5t24.5 103.5q0 47 -26.5 73
t-69.5 26q-39 0 -77 -20.5t-60 -58.5q-15 -28 -24.5 -60z" />
    <glyph glyph-name="uni10D4" unicode="&#x10d4;" horiz-adv-x="446" 
d="M139.5 224q7.5 29 21.5 52q52 87 159 87q60 0 94.5 -30.5t34.5 -88.5q0 -41 -8 -83.5t-23 -102.5q-4 -17 -10.5 -45.5t-10.5 -49.5q-13 -65 -33 -111t-51 -76q-28 -26 -67 -39.5t-82 -13.5q-66 0 -105.5 36t-39.5 93q0 35 11 66.5t31 67.5l7 13h43q-27 -42 -39 -71
t-12 -66q0 -48 33.5 -73.5t87.5 -25.5q73 0 118 51q25 29 40 72.5t27 101.5q2 10 11 46q16 70 23.5 113.5t7.5 84.5q0 92 -97 92q-79 0 -109 -50t-38 -125h-40q8 46 15.5 75z" />
    <glyph glyph-name="uni10D5" unicode="&#x10d5;" horiz-adv-x="446" 
d="M274 125q35 0 65.5 17.5t49 48.5t18.5 68q0 44 -32 57.5t-78 13.5q-44 0 -72 -18t-46 -62q-12 -33 -20 -68h-40q2 8 8.5 36t16.5 48q53 105 164 105q64 0 102 -27.5t38 -77.5q0 -42 -27 -87t-72 -76q19 -22 26.5 -43t7.5 -47q0 -35 -12 -86t-23.5 -86t-34.5 -61
q-47 -56 -145 -56q-72 0 -111.5 31t-39.5 96q0 28 8.5 57t25.5 77h38q-15 -44 -23 -74t-8 -56q0 -50 29 -70.5t92 -20.5q67 0 101 38t50 114q14 72 14 95q0 29 -12 46t-40 27h-34l8 41h8z" />
    <glyph glyph-name="uni10D6" unicode="&#x10d6;" horiz-adv-x="595" 
d="M183 411q-35 27 -35 77q0 65 32 106q26 35 67 55.5t88 20.5q52 0 88.5 -30.5t36.5 -77.5q0 -36 -16 -71t-48 -87q-30 -50 -39 -68q72 28 119 32q69 -2 100 -39.5t31 -96.5q0 -62 -23.5 -116.5t-67.5 -88.5q-58 -45 -148 -45q-63 0 -96 40t-33 103q0 43 17 89t53 112
q4 8 9 15.5t9 14.5q23 32 28 47q-50 -17 -83 -19q-54 0 -89 27zM379.5 460q34.5 37 34.5 86q0 34 -26 57.5t-64 23.5q-30 0 -61 -15t-51 -43.5t-20 -66.5t21.5 -58.5t61.5 -20.5q70 0 104.5 37zM374 301.5q-43 -23.5 -68.5 -65.5t-25.5 -97q0 -48 25 -84.5t72 -36.5
q50 0 93 28.5t68.5 76t25.5 101.5q0 45 -22.5 71.5t-73.5 32.5q-51 -3 -94 -26.5z" />
    <glyph glyph-name="uni10D7" unicode="&#x10d7;" horiz-adv-x="692" 
d="M194 332.5q50 27.5 110 27.5q38 0 68 -17t54 -55q29 37 67 56t75 19q63 0 94.5 -34.5t31.5 -95.5q0 -49 -22 -113.5t-51 -119.5h-40q74 146 74 227q0 48 -23.5 73t-70.5 25q-46 0 -76 -26t-48 -74q0 -69 -33 -126q-39 -64 -83.5 -90.5t-102.5 -26.5q-66 0 -104 38.5
t-38 101.5q0 65 33 131q35 52 85 79.5zM116 129q0 -51 30.5 -79.5t80.5 -28.5q37 0 71.5 19.5t59.5 53.5q18 25 28 56.5t10 65.5q0 47 -25.5 76t-74.5 29q-97 0 -152 -87q-28 -52 -28 -105z" />
    <glyph glyph-name="uni10D8" unicode="&#x10d8;" horiz-adv-x="430" 
d="M61 42q0 101 30 178q27 67 78 108.5t124 41.5q72 0 107 -43t35 -113q0 -101 -50 -192l-12 -22h-43l12 22q52 98 52 187q0 53 -25.5 87t-77.5 34q-62 0 -105 -38.5t-63.5 -99.5t-20.5 -130q0 -27 2 -40l1 -22h-41q-3 20 -3 42z" />
    <glyph glyph-name="uni10D9" unicode="&#x10d9;" horiz-adv-x="444" 
d="M297 125q31 0 56.5 22.5t40 55.5t14.5 63q0 37 -21 50.5t-65 15.5l9 41q58 -2 87.5 -27.5t29.5 -71.5q0 -43 -26 -90t-72 -82q19 -22 26.5 -42t7.5 -44q0 -49 -8 -82q-4 -24 -14 -51t-12 -31q-20 -54 -46 -80q-51 -49 -141 -49q-67 0 -105.5 35.5t-38.5 99.5q0 71 42 142
h39q-19 -31 -30.5 -65.5t-11.5 -66.5q0 -51 29 -78t85 -27q33 0 56.5 7t43.5 26q27 25 50 89q22 59 22 118q0 27 -10.5 46.5t-39.5 34.5h-23l9 41h17z" />
    <glyph glyph-name="uni10DA" unicode="&#x10da;" horiz-adv-x="793" 
d="M132 -84l-31 27q-41 51 -41 129q0 71 24 143q26 70 72.5 113t109.5 43q22 0 38 -6t31 -27q5 -9 8 -20q1 -3 3.5 -11t6.5 -14q61 77 123 77q31 0 56.5 -18t40.5 -55q30 36 67 56.5t70 20.5q48 0 70.5 -28t22.5 -76q0 -80 -53 -200h-38q23 59 35.5 99t12.5 79q0 42 -16 64
t-45 22q-19 0 -33 -6t-27 -18q-27 -22 -43.5 -59.5t-27.5 -86.5l-5 -21h-43q4 25 7 41q9 36 9 64q0 80 -74 80q-26 -3 -52 -22t-41 -48q-7 -13 -9.5 -17.5t-6.5 -21.5l-4 -21q-5 -38 -9 -55h-40l6 32q12 50 12 77q0 79 -60 79q-46 0 -81 -35.5t-55 -89.5q-22 -56 -22 -118
q0 -59 23 -97t50.5 -55.5t38.5 -17.5q103 0 186 -11t144.5 -50t64.5 -115h-44q-5 84 -104 110.5t-239 26.5l-179 -1l8 37z" />
    <glyph glyph-name="uni10DB" unicode="&#x10db;" horiz-adv-x="448" 
d="M125.5 270q33.5 47 81.5 74t101 27q38 0 71 -24.5t46 -59.5q32 151 40 192t8 59q0 43 -19 67.5t-73 24.5q-85 0 -131 -64q-15 -19 -25 -48.5t-18 -73.5h-35q13 97 64 159.5t150 62.5q57 0 92 -27t35 -83q0 -16 -8.5 -59.5t-27.5 -131.5l-41 -193q-17 -82 -76.5 -136
t-143.5 -54q-66 0 -103.5 37.5t-37.5 100.5q0 19 5 47q12 56 45.5 103zM208.5 302q-43.5 -30 -68.5 -78t-25 -98q0 -49 27.5 -76.5t81.5 -27.5q48 0 88 25t63.5 67.5t23.5 92.5q0 51 -25 88t-70 37q-52 0 -95.5 -30z" />
    <glyph glyph-name="uni10DC" unicode="&#x10dc;" horiz-adv-x="448" 
d="M251.5 356.5q32.5 11.5 73.5 11.5q63 0 99.5 -41t36.5 -105t-31.5 -119.5t-83.5 -88t-109 -32.5q-66 0 -105.5 40t-39.5 104q0 22 6 46l75 361q12 53 42.5 90.5t76.5 37.5h238l-8 -39h-235q-13 0 -22.5 -6t-19.5 -17q-24 -28 -33 -69l-48 -228q55 43 87.5 54.5zM132 133
q0 -52 32 -82.5t81 -30.5q43 0 83.5 25t66 70t25.5 102q0 48 -26 79.5t-76 31.5q-47 0 -87 -22.5t-70 -67.5q-29 -58 -29 -105z" />
    <glyph glyph-name="uni10DD" unicode="&#x10dd;" horiz-adv-x="645" 
d="M346 211q4 30 4 42q0 76 -73 76q-95 0 -131 -80t-36 -182q0 -34 3 -67h-40q-4 44 -4 66q0 85 26 154t75 108.5t116 39.5q33 0 56 -16.5t42 -52.5q66 69 136 69q66 0 96 -36.5t30 -95.5q0 -55 -20 -112t-54 -124h-41q30 56 52 121t22 111q0 96 -92 96q-51 0 -83.5 -31
t-42.5 -80l-17 -76h-40z" />
    <glyph glyph-name="uni10DE" unicode="&#x10de;" horiz-adv-x="448" 
d="M105 110q0 -43 33.5 -66.5t81.5 -23.5q40 0 81.5 22t68.5 63t27 95q0 39 -28 58t-87 21l9 40q152 18 152 120q0 31 -21.5 51t-61.5 40l-20 10q-41 19 -61.5 36.5t-20.5 49.5q0 6 2 18h39q-1 -3 -1 -10q0 -24 16.5 -37t47.5 -26l21 -10q58 -30 79.5 -54.5t21.5 -61.5
q0 -31 -14.5 -60t-41.5 -54q-15 -13 -51 -30q12 -11 19 -15q15 -9 23 -20q16 -25 16 -64q0 -61 -33 -111.5t-84.5 -79.5t-105.5 -29q-71 0 -108 34.5t-37 86.5q0 27 5.5 54.5t22.5 62.5h39q-29 -53 -29 -110z" />
    <glyph glyph-name="uni10DF" unicode="&#x10df;" horiz-adv-x="504" 
d="M119 201q-7 -21 -7 -37q0 -32 19 -51t53 -19q42 0 75 26t33 72q0 34 -16 54l10 44q54 6 107.5 25.5t98.5 51.5q11 0 19 -1t18 -1l-93 -436q-16 -81 -51 -136q-24 -37 -64.5 -56t-86.5 -19q-68 0 -106.5 33.5t-38.5 94.5t31 144h39q-15 -43 -22.5 -74.5t-7.5 -57.5
q0 -48 29.5 -75t82.5 -27q37 0 66.5 15.5t48.5 42.5q16 21 25.5 50.5t17.5 69.5l81 380q-81 -42 -155 -59q6 -37 6 -57q0 -44 -22 -76.5t-57.5 -49.5t-75.5 -17q-50 0 -75 27t-25 72q0 20 5.5 42t16.5 39h36q-8 -13 -15 -34z" />
    <glyph glyph-name="uni10E0" unicode="&#x10e0;" horiz-adv-x="645" 
d="M71 51q0 140 36.5 228.5t107.5 143t189 99.5q14 5 64 19q65 18 104.5 38.5t68.5 66.5h47q-25 -43 -56 -68.5t-67 -41t-100 -34.5q-78 -23 -142 -54.5t-144 -101.5q75 20 106 20q62 0 102 -67q30 34 68.5 51.5t76.5 17.5q63 0 90.5 -34t27.5 -91q0 -53 -21.5 -120.5
t-52.5 -122.5h-45q32 58 54.5 122.5t22.5 118.5q0 42 -19.5 64.5t-64.5 22.5q-99 0 -137 -106l-18 -81h-37l16 70q4 13 4 39q0 79 -75 79q-62 0 -99.5 -39t-52 -94.5t-14.5 -110.5q0 -44 7 -85h-45q-2 32 -2 51z" />
    <glyph glyph-name="uni10E1" unicode="&#x10e1;" horiz-adv-x="466" 
d="M476 321q11 -71 11 -100q0 -70 -31 -124t-87.5 -84t-130.5 -30q-138 0 -138 144q0 40 13 107l87 410h41l-89 -416q-12 -55 -12 -90q0 -50 24 -83.5t85 -33.5q46 0 91.5 24t75 69t29.5 104q0 34 -8 80l-9 60h42z" />
    <glyph glyph-name="uni10E2" unicode="&#x10e2;" horiz-adv-x="670" 
d="M312 16q-53 18 -76.5 45.5t-23.5 76.5q0 67 44 114q22 22 52 38t65 24l15 72q11 54 24.5 87t39.5 53t70 20q49 0 69 -19t20 -63q0 -25 -5.5 -55.5t-17.5 -89.5l-10 -49q36 -29 53 -67.5t17 -92.5q0 -97 -35.5 -174t-98.5 -130q-47 -39 -106.5 -60t-123.5 -21
q-120 0 -188 54t-68 150q0 59 35.5 157.5t75.5 163.5h39q-110 -203 -110 -316q0 -74 51.5 -121t161.5 -47q80 0 136 22.5t100 68.5q42 45 68.5 113t26.5 132q0 40 -9.5 62.5t-34.5 63.5q1 2 -10 -33q-14 -50 -24 -76t-28 -46q-27 -31 -71 -47t-88 -17l-21 -99h-37z
M480 310.5q37 -7.5 64 -18.5q2 15 5 24t3 14q21 95 21 129q0 28 -13.5 37.5t-47.5 9.5q-31 0 -50 -19.5t-26 -49.5l-24 -119q31 0 68 -7.5zM449 72.5q34 21.5 53 62.5t33 115q-50 25 -132 30l-48 -232q60 3 94 24.5zM248 138q0 -64 71 -87l47 226q-12 -4 -21 -6
q-4 -1 -11.5 -3.5t-13.5 -5.5q-56 -30 -67 -85q-5 -20 -5 -39z" />
    <glyph glyph-name="uni10E3" unicode="&#x10e3;" horiz-adv-x="618" 
d="M379 240q1 5 3.5 21t2.5 29q0 40 -28 40q-20 0 -38.5 -14t-44.5 -42q-33 -35 -58 -53t-56 -18q-30 0 -48 21t-18 53q0 15 4.5 32.5t10.5 34t8 23.5h39q-21 -50 -21 -87q0 -36 33 -36q34 0 86 55q36 38 58.5 53t52.5 15q22 0 36.5 -9t23.5 -33q27 21 54 32t49 11
q43 0 63.5 -20.5t20.5 -65.5q0 -42 -13 -104q-26 -122 -44 -211q-12 -54 -23 -87t-30 -62q-33 -47 -86 -69.5t-116 -22.5q-82 0 -124 39t-42 106q0 31 7 56.5t27 75.5h40q-16 -34 -25 -68.5t-9 -59.5q0 -110 134 -110q99 0 153 63q35 42 51 116l56 270q7 30 7 54
q0 28 -12.5 44.5t-44.5 16.5q-36 0 -66 -28.5t-37 -62.5l-27 -124h-36z" />
    <glyph glyph-name="uni10E4" unicode="&#x10e4;" horiz-adv-x="676" 
d="M421 301q38 38 74 53.5t77 15.5q52 0 81.5 -24.5t29.5 -74.5q0 -58 -28 -111t-83 -72q40 -47 40 -117q0 -77 -35 -133t-92 -85t-121 -29q-78 0 -124 37t-46 105q0 24 5 50.5t16 49.5h40q-9 -22 -15 -47t-6 -45q0 -55 40 -83.5t102 -28.5q53 0 97.5 24.5t71.5 71t27 109.5
q0 34 -12.5 60.5t-37.5 38.5q-23 0 -33 1l7 38l24 1q30 3 58.5 23t47 55t18.5 80q0 34 -19 52t-55 18q-38 0 -69 -18t-69 -54q2 -8 2 -22q0 -56 -30.5 -106.5t-80.5 -81t-106 -30.5q-61 0 -102 36.5t-41 97.5q0 59 32.5 110.5t84 81.5t104.5 30q52 0 90 -32q20 -15 36 -45z
M392 227q0 49 -30 79.5t-77 30.5q-42 0 -81.5 -25t-63.5 -65t-24 -82q0 -48 31 -76t75 -28q58 0 106.5 39t59.5 96q4 11 4 31z" />
    <glyph glyph-name="uni10E5" unicode="&#x10e5;" horiz-adv-x="446" 
d="M344 297q-94 0 -133 -43q-15 -18 -23 -38t-15 -47h-39q19 90 78.5 128.5t142.5 38.5q36 0 53.5 -1t23.5 -1l43 202q-44 -41 -82.5 -57t-100.5 -17l8 39q56 4 98 26.5t90 70.5l8 40h40l-151 -727q-19 -89 -77.5 -137.5t-152.5 -48.5q-68 0 -103.5 36.5t-35.5 107.5
q0 38 7.5 63.5t15.5 43t11 23.5h40q-34 -72 -34 -120q0 -55 27.5 -85t82.5 -30q75 0 119 36t59 114l80 379q-31 4 -80 4z" />
    <glyph glyph-name="uni10E6" unicode="&#x10e6;" horiz-adv-x="662" 
d="M605.5 156q10.5 37 10.5 71q0 43 -19.5 69t-64.5 26q-56 0 -93 -42t-48 -98l-10 -44h-39q10 53 10 73q0 52 -19.5 83.5t-61.5 31.5q-37 0 -73.5 -24.5t-59.5 -63.5q-28 -49 -28 -136q0 -48 20 -82t60 -77l16 -17q83 -10 146.5 -26.5t111.5 -54.5t59 -103h-42
q-21 63 -73 94.5t-117 40.5t-154 9h-88l7 38h94q-39 44 -58 86.5t-19 90.5q0 98 40 161q28 45 72 74t93 29q74 0 110 -91q31 38 53 55q47 33 101 33q60 0 87 -36t27 -92q0 -76 -42 -162h-37q18 47 28.5 84z" />
    <glyph glyph-name="uni10E7" unicode="&#x10e7;" horiz-adv-x="446" 
d="M381 -44q-11 -53 -26.5 -93.5t-43.5 -70.5q-30 -33 -70 -50.5t-84 -17.5q-69 0 -105 37t-36 102q0 59 31 138h40q-19 -52 -25.5 -74.5t-6.5 -55.5q0 -106 119 -106q33 0 56.5 12.5t45.5 36.5q44 52 60 128l28 136q-93 0 -123 1.5t-45 5.5q-33 8 -50 31.5t-17 66.5
q0 32 10 76.5t27 104.5h41q-2 -11 -13 -52q-11 -39 -17 -67t-6 -51q0 -18 1.5 -30t6.5 -19q9 -13 25 -20t32 -7h137l51 246h44z" />
    <glyph glyph-name="uni10E8" unicode="&#x10e8;" horiz-adv-x="468" 
d="M486 570q0 58 -65 58q-45 0 -68 -38t-38 -108h-39q9 38 9 70q0 74 -59 74q-17 0 -41 -10.5t-57 -28.5l10 45q53 36 103 36q47 0 78 -58q6 6 16.5 18t20.5 18q36 22 78 22q94 0 94 -90q0 -22 -9 -60l-73 -345q-8 -40 -27.5 -76t-46.5 -60q-59 -55 -149 -55q-59 0 -97 36
t-38 111q0 64 27.5 121.5t74.5 90.5q42 28 115 28q48 0 81 -18q14 -8 28 -22.5t20 -20.5l45 209q7 40 7 53zM300 330q-56 0 -94 -28q-36 -27 -55 -74t-19 -97t25.5 -80t74.5 -30q65 0 115 47q30 30 46.5 73t16.5 97q-21 92 -110 92z" />
    <glyph glyph-name="uni10E9" unicode="&#x10e9;" horiz-adv-x="439" 
d="M84 113q29 130 88 406q6 31 20.5 58t35.5 44q47 41 132 41q58 0 91 -26.5t33 -68.5q0 -61 -48 -99.5t-116.5 -56.5t-137.5 -21l-21 -98q68 72 157 72q60 0 91.5 -36.5t31.5 -100.5q0 -110 -76 -227h-40q34 47 56 109t22 112t-22 78.5t-68 28.5q-62 0 -108.5 -43
t-68.5 -112l-36 -173h-40zM229.5 564q-9.5 -17 -20.5 -47l-17 -84q44 0 101.5 10.5t104 40t46.5 81.5q0 30 -25.5 47t-65.5 17q-49 0 -99 -35q-15 -13 -24.5 -30z" />
    <glyph glyph-name="uni10EA" unicode="&#x10ea;" horiz-adv-x="635" 
d="M502.5 319q-7.5 21 -7.5 49h41q-2 -10 -2 -14q0 -11 7.5 -25t23.5 -35q3 -4 13 -19t15.5 -28t5.5 -23q0 -21 -12.5 -43t-36.5 -51q37 -50 37 -114q0 -71 -36.5 -139t-105 -111.5t-157.5 -43.5q-66 0 -120 27t-85 75.5t-31 109.5q0 107 54.5 220.5t144.5 213.5h45
q-90 -99 -147 -208t-57 -210q0 -90 44 -133q27 -28 71 -43.5t91 -15.5q74 0 131 38.5t88 97.5t31 118t-41 100h-60l8 40h65q36 38 36 64q0 12 -6.5 24t-23.5 38q-16 20 -23.5 41z" />
    <glyph glyph-name="uni10EB" unicode="&#x10eb;" horiz-adv-x="448" 
d="M286 370q50 0 78.5 -19.5t51.5 -51.5l74 350h39l-98 -463q-10 -47 -33 -89t-58 -71q-26 -22 -58.5 -33t-67.5 -11q-74 0 -110.5 37t-36.5 103q0 49 16.5 100.5t48.5 86.5q48 54 137 60q7 1 17 1zM208.5 317.5q-28.5 -12.5 -49.5 -35.5q-26 -29 -39 -69.5t-13 -84.5
q0 -49 29 -77.5t88 -28.5q48 0 92 37q37 29 57 74t20 82q0 48 -31.5 81.5t-79.5 33.5h-11q-34 0 -62.5 -12.5z" />
    <glyph glyph-name="uni10EC" unicode="&#x10ec;" horiz-adv-x="468" 
d="M191 327q21 15 41 24q37 18 88 18q64 0 98.5 -40t34.5 -104q0 -71 -32 -122q-38 -63 -83.5 -92t-100.5 -29q-68 0 -107 39t-39 105q0 19 5 47l72 342q33 151 151 151q27 0 50 -15t39 -45q55 60 104 60t87 -37l-10 -44q-27 19 -45.5 28.5t-35.5 9.5q-81 0 -111 -144h-39
q10 48 10 79q0 32 -12.5 50t-42.5 18q-28 0 -45 -10t-30 -29q-17 -24 -29 -73l-44 -206q5 4 26 19zM132 131q0 -52 31.5 -81t81.5 -29q45 0 83.5 28t61 74.5t22.5 98.5q0 48 -26 78t-78 30q-89 0 -148 -92q-28 -56 -28 -107z" />
    <glyph glyph-name="uni10ED" unicode="&#x10ed;" horiz-adv-x="510" 
d="M60 -118q0 -54 35.5 -86t94.5 -32q75 0 134 32.5t92 87.5t33 120q0 72 -44.5 106t-128.5 44l12 61q-39 11 -61 42.5t-22 72.5q0 49 36.5 93.5t106.5 59.5l9 39h35l-8 -40q34 -6 61 -19.5t41 -32.5l18 -22l12 20q20 31 28 47h35q-14 -29 -36 -62q-3 -6 -8 -13.5t-11 -17.5
l39 -110h-37l-26 74q-55 -92 -174 -131l-6 -29q82 -16 125.5 -59t43.5 -120q0 -85 -44 -149.5t-113 -99t-143 -34.5q-79 0 -124.5 40.5t-45.5 110.5q0 40 25 107h38q-22 -54 -22 -100zM421 301q39 35 65 79q-14 28 -43 45t-67 22l-28 -125l-16 -71q50 15 89 50zM284 418
q-23 -20 -34.5 -44t-11.5 -42q0 -29 16 -49t43 -30l43 191q-33 -6 -56 -26z" />
    <glyph glyph-name="uni10EE" unicode="&#x10ee;" horiz-adv-x="448" 
d="M328 366h11q59 -7 90 -46.5t31 -97.5q0 -63 -29 -119t-81.5 -90t-119.5 -34q-65 0 -100.5 44t-35.5 109q0 26 6 51l98 463h39l-74 -349q104 116 175 188h48q-29 -27 -125 -131q35 12 67 12zM229.5 300.5q-43.5 -24.5 -70.5 -68.5t-27 -101q0 -48 27.5 -80.5t76.5 -32.5
q56 0 97.5 27.5t63.5 74t22 102.5q0 44 -24 72.5t-74 33.5q-48 -3 -91.5 -27.5z" />
    <glyph glyph-name="uni10EF" unicode="&#x10ef;" horiz-adv-x="667" 
d="M22 -213q30 -15 48.5 -22t40.5 -7q34 0 62 17t44 42.5t16 50.5q0 22 -14 35.5t-43 13.5h-27l10 45l200 133q-10 39 -36 127l-19 68q-5 18 -13.5 27t-34.5 12q-21 0 -44 -11t-38 -31.5t-15 -46.5q0 -35 21 -68h-46q-15 33 -15 71q0 32 22.5 61.5t57 47.5t66.5 18
q62 0 82 -72l51 -178l192 126q2 2 36 24.5t34 39.5q0 14 -35 14h-141l8 39h130q38 0 57.5 -10.5t19.5 -34.5q0 -25 -16 -44.5t-45 -43.5l-228 -149l53 -183q7 -26 19 -41t35 -15q30 0 49 16q9 9 13.5 21.5t4.5 23.5q0 24 -7 50t-22 69h47q26 -68 26 -104q0 -28 -3 -36
q-12 -39 -45 -63q-27 -16 -73 -16q-35 0 -54 22t-30 59l-52 172q-40 -27 -111 -73q-14 -8 -26.5 -16.5t-23.5 -15.5q8 -3 21 -7.5t18.5 -8.5t10.5 -11q16 -25 16 -53q0 -36 -21.5 -71t-60 -58t-86.5 -23q-58 0 -118 35l10 46z" />
    <glyph glyph-name="uni10F0" unicode="&#x10f0;" horiz-adv-x="475" 
d="M321.5 608q18.5 -13 48.5 -20l48 -10q43 -9 58 -16q44 -20 44 -54q0 -31 -16.5 -55.5t-49.5 -49.5q17 -16 25 -38t8 -46q0 -31 -14 -46.5t-50 -34.5l-15 -8l27 -28q13 -18 13 -48q0 -56 -31.5 -99.5t-83.5 -67.5t-110 -24q-75 0 -115.5 39t-40.5 110q0 56 21 98h40
q-1 -5 -5.5 -17t-5.5 -16q-6 -23 -6 -59q0 -116 125 -116q47 0 86.5 19t62.5 51.5t23 69.5q0 52 -51 68q-14 5 -42 5h-35l8 39q66 0 112.5 13t46.5 55t-34 53t-89 11h-8l8 40h62q37 0 64.5 18.5t27.5 51.5q0 22 -23 31.5t-63 17.5q-7 1 -12 2t-9 2q-46 9 -80.5 26t-34.5 54
q0 9 2 15h45q0 -23 18.5 -36z" />
    <glyph glyph-name="uni10F1" unicode="&#x10f1;" horiz-adv-x="586" 
d="M128 371q32 125 86 205.5t119 80.5q32 0 49.5 -18t17.5 -49q0 -72 -63 -133.5t-173 -104.5l-4 -20q-12 -63 -12 -115q0 -93 43.5 -144.5t134.5 -51.5q90 0 148.5 39t58.5 106q0 41 -31.5 61.5t-96.5 29.5l8 38q36 -10 65 -10q37 0 60.5 19t23.5 54q0 27 -26 44.5
t-92 35.5l8 37q39 -14 70 -14q26 0 44.5 19t18.5 48q0 30 -33 54l-67 48l10 47l80 -59q53 -37 53 -88q0 -33 -18 -58t-49 -39q43 -24 43 -68q0 -38 -21.5 -65.5t-58.5 -41.5q53 -26 53 -86q0 -49 -31.5 -92.5t-90 -70t-136.5 -26.5q-106 0 -160 61.5t-54 170.5q0 53 14 120
l-50 -21l9 39zM307 472q50 52 50 114q0 35 -35 35q-23 0 -51 -29t-54.5 -82.5t-43.5 -122.5q84 33 134 85z" />
    <glyph glyph-name="uni10F2" unicode="&#x10f2;" horiz-adv-x="354" 
d="M176 23q-75 -30 -148 -40v38q43 1 112 26q-105 47 -105 147q0 65 38 105t103 40t104 -38.5t39 -106.5q0 -100 -107 -147q67 -25 113 -26v-38q-73 10 -149 40zM276 197q0 49 -25.5 77t-74.5 28q-48 0 -73.5 -27.5t-25.5 -77.5q0 -88 99 -131q100 43 100 131z" />
    <glyph glyph-name="uni10F3" unicode="&#x10f3;" horiz-adv-x="337" 
d="M170 106q15 5 35 5q58 0 87 -44t29 -133q0 -115 -37 -166.5t-128 -51.5q-70 0 -111.5 39t-41.5 108q0 80 54 124l22 -21q-34 -34 -34 -100q0 -51 32 -81.5t85 -30.5q68 0 93 43t25 137q0 144 -90 144q-35 0 -56 -21l-22 21l124 208h-196v36h259z" />
    <glyph glyph-name="uni10F4" unicode="&#x10f4;" horiz-adv-x="354" 
d="M220.5 110.5q44.5 32.5 44.5 87.5q0 35 -21 56.5t-68 50.5l-31 20q-57 38 -87 84.5t-30 104.5q0 71 34.5 117t96.5 46q52 0 86.5 -28.5t34.5 -76.5q0 -66 -63 -102l-19 20q38 23 38 79q0 70 -75 70q-39 0 -65.5 -31.5t-26.5 -86.5q0 -56 28 -92t91 -75q70 -41 95 -72
t25 -76q0 -100 -113 -138v-6q61 -7 95.5 -50.5t34.5 -112.5q0 -82 -45 -132.5t-126 -50.5q-68 0 -109.5 38t-41.5 103q0 51 33 85l24 -19q-15 -26 -15 -61q0 -49 31 -78.5t80 -29.5q58 0 92.5 38.5t34.5 105.5q0 71 -38.5 106t-116.5 35h-9l-10 -1v40q67 0 111.5 32.5z" />
    <glyph glyph-name="uni10F5" unicode="&#x10f5;" horiz-adv-x="457" 
d="M292 360h-91q-73 0 -116.5 41.5t-43.5 113.5q0 67 40.5 106.5t112.5 39.5q63 0 100.5 -36.5t37.5 -102.5v-124h109v-38h-109v-76h109v-38h-109v-124q0 -63 -37 -101t-101 -38q-71 0 -112 39.5t-41 107.5q0 72 43.5 113t116.5 41h91v76zM292 519q0 104 -98 104
q-52 0 -81 -27.5t-29 -79.5q0 -118 131 -118h77v121zM215 246q-131 0 -131 -117q0 -52 29 -80t81 -28q98 0 98 104v121h-77z" />
    <glyph glyph-name="uni10F6" unicode="&#x10f6;" horiz-adv-x="615" 
d="M214 639q-36 0 -56.5 -27.5t-20.5 -70.5h-36q0 59 31.5 97.5t84.5 38.5q111 0 111 -148v-259q30 69 102 69q39 0 72 -21.5t52.5 -61.5t19.5 -95q0 -75 -39 -126.5t-105 -51.5q-72 0 -102 68v-187q0 -110 74 -110q35 0 56 27t21 71h35q0 -60 -30.5 -98t-84.5 -38
q-111 0 -111 148v187q-32 -68 -102 -68q-39 0 -72.5 22t-53 63t-19.5 93q0 75 39.5 126.5t105.5 51.5q71 0 102 -69v259q0 110 -74 110zM259.5 61.5q28.5 40.5 28.5 99.5q0 60 -27 100.5t-75 40.5q-44 0 -73 -39t-29 -102q0 -58 28 -99t74 -41q45 0 73.5 40.5zM479.5 38
q23.5 17 38 49t14.5 74q0 58 -27 99.5t-75 41.5q-44 0 -73 -38t-29 -103q0 -57 28.5 -98.5t73.5 -41.5q26 0 49.5 17z" />
    <glyph glyph-name="uni10F7" unicode="&#x10f7;" horiz-adv-x="334" 
d="M95 198q0 34 17.5 66.5t49 53.5t71.5 21q49 0 76 -22.5t27 -64.5q0 -84 -62.5 -138.5t-144.5 -93.5q-24 -12 -27 -15q-86 -68 -86 -159q0 -92 104 -92q64 0 104 41.5t40 112.5q0 36 -16 58l27 21q33 -38 33 -81q0 -54 -27 -97.5t-72.5 -68t-98.5 -24.5q-65 0 -101 31.5
t-36 88.5q0 18 5 43q11 52 33 84.5t57.5 58t113.5 70.5l46 27q28 21 46 53.5t18 69.5q0 28 -16 44t-46 16q-41 0 -68.5 -29.5t-27.5 -72.5q0 -21 14 -46l-25 -21q-28 25 -28 65z" />
    <glyph glyph-name="uni10F8" unicode="&#x10f8;" horiz-adv-x="392" 
d="M165 339l-9 -42q-7 -45 -7 -63q0 -90 83 -90q55 0 91 38t36 98q0 20 -7 51l34 15q14 -32 14 -70q0 -45 -22.5 -83.5t-62 -61.5t-90.5 -23q-70 0 -97 58l-59 -280q-5 -27 -5 -45q0 -87 98 -87q39 0 73 18t54 51t20 77q0 40 -27 69l28 24q42 -34 42 -91q0 -53 -25.5 -95.5
t-70.5 -66.5t-102 -24q-130 0 -130 114q0 18 6 58l96 451h39z" />
    <glyph glyph-name="endash" unicode="&#x2013;" horiz-adv-x="400" 
d="M443 274l-5 -36h-400l5 36h400z" />
    <glyph glyph-name="emdash" unicode="&#x2014;" horiz-adv-x="800" 
d="M739 274l-5 -36h-592l5 36h592z" />
    <glyph glyph-name="quoteleft" unicode="&#x2018;" horiz-adv-x="207" 
d="M126 430l96 181l22 -9l-83 -183z" />
    <glyph glyph-name="quoteright" unicode="&#x2019;" horiz-adv-x="207" 
d="M244 601l-95 -182l-23 9l84 183z" />
    <glyph glyph-name="quotesinglbase" unicode="&#x201a;" horiz-adv-x="207" 
d="M157 48l-95 -181l-24 9l84 183z" />
    <glyph glyph-name="quotedblleft" unicode="&#x201c;" horiz-adv-x="312" 
d="M126 430l96 181l22 -9l-83 -183zM231 430l95 181l23 -9l-83 -183z" />
    <glyph glyph-name="quotedblright" unicode="&#x201d;" horiz-adv-x="312" 
d="M244 601l-95 -182l-23 9l84 183zM349 601l-95 -182l-23 9l83 183z" />
    <glyph glyph-name="quotedblbase" unicode="&#x201e;" horiz-adv-x="312" 
d="M157 48l-95 -181l-24 9l84 183zM262 48l-96 -181l-23 9l84 183z" />
    <glyph glyph-name="dagger" unicode="&#x2020;" 
d="M362 603l-24 -159h144l-5 -36h-145l-87 -550h-39l88 550h-145l5 36h145l25 159h38z" />
    <glyph glyph-name="daggerdbl" unicode="&#x2021;" 
d="M362 603l-24 -159h144l-5 -36h-145l-54 -342h144l-5 -36h-145l-27 -172h-39l28 172h-145l5 36h145l55 342h-145l5 36h145l25 159h38z" />
    <glyph glyph-name="bullet" unicode="&#x2022;" 
d="M377.5 441.5q25.5 -11.5 43.5 -32.5q28 -34 28 -82q0 -38 -16.5 -72t-45.5 -59q-24 -21 -53.5 -33t-60.5 -12q-32 0 -58 12t-43 33q-28 33 -28 80q0 38 16.5 73t45.5 60q51 44 115 44q31 0 56.5 -11.5z" />
    <glyph glyph-name="ellipsis" unicode="&#x2026;" horiz-adv-x="800" 
d="M165 50.5q8 -9.5 5 -23.5q-1 -13 -12 -23t-25 -10q-13 0 -20.5 8t-7.5 20q0 16 11.5 27t26.5 11q14 0 22 -9.5zM429.5 52.5q7.5 -7.5 7.5 -19.5q0 -16 -11 -27.5t-27 -11.5q-13 0 -21.5 9.5t-6.5 23.5t13.5 23.5t25.5 9.5q12 0 19.5 -7.5zM697.5 50.5q7.5 -9.5 5.5 -23.5
q-1 -13 -12 -23t-25 -10q-13 0 -20.5 8t-7.5 20q0 16 11.5 27t26.5 11q14 0 21.5 -9.5z" />
    <glyph glyph-name="perthousand" unicode="&#x2030;" horiz-adv-x="827" 
d="M552 603l-456 -617l-22 15l454 616zM322 575q23 -28 23 -64q0 -32 -14 -59t-37 -46q-19 -16 -43 -25t-48 -9q-50 0 -81 34q-24 26 -24 63q0 64 52 106q37 34 91 34q52 0 81 -34zM170 550q-31 -23 -36 -60q-1 -5 -1 -13q0 -27 17 -47q21 -24 58 -24q38 0 66 24
q30 25 36 60l1 11q0 28 -18 49q-22 25 -58 25q-37 0 -65 -25zM505 198q23 -28 23 -65q0 -31 -13.5 -58.5t-36.5 -46.5q-42 -34 -92 -34q-49 0 -80 34q-24 26 -24 66q0 60 51 104q39 33 91 33q51 0 81 -33zM801 198q23 -28 23 -65q0 -31 -13.5 -58.5t-36.5 -46.5
q-42 -34 -92 -34q-49 0 -80 34q-24 26 -24 66q0 60 51 104q39 33 91 33q51 0 81 -33zM353 173q-14 -11 -23.5 -27t-12.5 -34l-1 -11q0 -27 18 -48q10 -12 25.5 -18.5t32.5 -6.5q35 0 66 25q31 26 35 59q1 4 1 13q0 29 -17 48q-23 25 -59 25q-35 0 -65 -25zM649 173
q-14 -11 -23.5 -27t-12.5 -34l-1 -11q0 -27 18 -48q10 -12 25.5 -18.5t32.5 -6.5q35 0 66 25q31 26 35 59q1 4 1 13q0 29 -17 48q-23 25 -59 25q-35 0 -65 -25z" />
    <glyph glyph-name="guilsinglleft" unicode="&#x2039;" horiz-adv-x="222" 
d="M190 142l-26 -21l-95 135l137 135l20 -21l-114 -114z" />
    <glyph glyph-name="guilsinglright" unicode="&#x203a;" horiz-adv-x="222" 
d="M191 256l-79 114l26 21l96 -135l-138 -135l-20 21z" />
    <glyph glyph-name="fraction" unicode="&#x2044;" horiz-adv-x="103" 
d="M338 603l-455 -617l-23 15l455 617z" />
    <glyph glyph-name="trademark" unicode="&#x2122;" horiz-adv-x="752" 
d="M393 570h-111l-48 -304h-34l48 304h-111l5 33h256zM522 603l68 -261h2l152 261h58l-53 -337h-34l48 304h-3l-180 -304h-2l-82 304h-3l-48 -304h-34l53 337h58z" />
    <glyph glyph-name="minus" unicode="&#x2212;" 
d="M78 224h410l-6 -38h-409z" />
    <glyph glyph-name="fi" unicode="&#xfb01;" horiz-adv-x="380" 
d="M98 0h-36l53 336h-41l5 34h41l26 165q9 63 29 91q16 21 39.5 32.5t50.5 11.5q18 0 31 -5l-6 -33l-13 3q-10 2 -15 2q-41 0 -60 -37q-14 -26 -20 -72l-26 -158h93l-5 -34h-93zM391.5 516.5q8.5 -9.5 6.5 -23.5q-3 -14 -14 -23.5t-25 -9.5t-21.5 9.5t-5.5 23.5t13 23.5
t25 9.5q13 0 21.5 -9.5zM304 0h-36l58 370h36z" />
    <glyph glyph-name="fl" unicode="&#xfb02;" horiz-adv-x="351" 
d="M98 0h-36l53 336h-41l5 34h41l26 165q9 63 29 91q16 21 39.5 32.5t50.5 11.5q18 0 31 -5l-6 -33l-13 3q-10 2 -15 2q-41 0 -60 -37q-14 -26 -20 -72l-26 -158h93l-5 -34h-93zM290 0h-36l104 660h36z" />
    <glyph glyph-name="uni10E30302" horiz-adv-x="618" 
d="M569 442h-41l-104 97l-124 -97h-49l180 143zM379 240q1 5 3.5 21t2.5 29q0 40 -28 40q-20 0 -38.5 -14t-44.5 -42q-33 -35 -58 -53t-56 -18q-30 0 -48 21t-18 53q0 15 4.5 32.5t10.5 34t8 23.5h39q-21 -50 -21 -87q0 -36 33 -36q34 0 86 55q36 38 58.5 53t52.5 15
q22 0 36.5 -9t23.5 -33q27 21 54 32t49 11q43 0 63.5 -20.5t20.5 -65.5q0 -42 -13 -104q-26 -122 -44 -211q-12 -54 -23 -87t-30 -62q-33 -47 -86 -69.5t-116 -22.5q-82 0 -124 39t-42 106q0 31 7 56.5t27 75.5h40q-16 -34 -25 -68.5t-9 -59.5q0 -110 134 -110q99 0 153 63
q35 42 51 116l56 270q7 30 7 54q0 28 -12.5 44.5t-44.5 16.5q-36 0 -66 -28.5t-37 -62.5l-27 -124h-36z" />
    <glyph glyph-name="zero.001" horiz-adv-x="418" 
d="M413.5 526.5q24.5 -33.5 24.5 -91.5q0 -51 -24 -167q-16 -82 -41.5 -147.5t-72.5 -102.5q-43 -32 -103 -32h-3q-102 0 -102 141q0 57 16 135q24 108 41 161t47 86q43 48 133 56q60 -5 84.5 -38.5zM260.5 518.5q-24.5 -11.5 -41.5 -32.5q-17 -19 -28 -43.5t-24 -67.5
q-5 -14 -12 -46t-10 -45q-6 -28 -5 -26q-17 -78 -17 -127q0 -113 79 -113q130 0 179 233q4 18 5 26q12 60 17.5 93.5t5.5 61.5q0 45 -19.5 71.5t-67.5 29.5q-37 -3 -61.5 -14.5z" />
    <glyph glyph-name="one.001" horiz-adv-x="417" 
d="M344 566h34l-120 -566h-32l108 514q-20 -22 -29 -33q-49 -54 -80 -91h-37z" />
    <glyph glyph-name="two.001" horiz-adv-x="418" 
d="M167 484.5q31 38.5 74.5 60t88.5 21.5q59 0 93 -35t34 -89q0 -32 -13.5 -66t-41.5 -66l-296 -280h277l-6 -28h-350l354 329q45 54 45 107q0 45 -30 70.5t-76 25.5q-35 0 -69.5 -16.5t-59.5 -47.5t-32 -72h-30q7 48 38 86.5z" />
    <glyph glyph-name="three.001" horiz-adv-x="417" 
d="M363 340.5q28 18.5 45.5 47.5t17.5 58q0 37 -30 58.5t-73 21.5q-62 0 -105 -36t-54 -94h-32q14 71 67 115.5t127 44.5q57 0 94 -25t37 -74q0 -44 -28 -88t-71 -65q46 -29 46 -95q0 -56 -22 -107.5t-67 -84.5t-112 -33q-59 0 -96 29.5t-37 86.5q0 38 14 66h32
q-14 -29 -14 -60q0 -43 30.5 -67.5t77.5 -24.5q42 0 79.5 22.5t61 65t23.5 100.5q0 34 -16 55t-49 33h-11l8 32q29 0 57 18.5z" />
    <glyph glyph-name="four.001" horiz-adv-x="417" 
d="M363 129l-27 -127h-32l27 127h-249l88 420h32l-84 -388h221l48 224h32q-9 -45 -29 -133l-20 -91h52l-6 -32h-53z" />
    <glyph glyph-name="five.001" horiz-adv-x="417" 
d="M101 114q0 -45 28.5 -72.5t78.5 -27.5q46 0 86 27t64 75t24 106q0 47 -22 77t-64 30q-30 0 -62 -13t-56 -34h-31l57 265h278l-7 -31h-246l-42 -193q64 39 119 39q53 0 80.5 -37.5t27.5 -97.5q0 -61 -29 -125t-75 -88q-57 -30 -109 -30q-57 0 -94.5 32t-37.5 88q0 30 6 55
t10 27l29 -2q-13 -36 -13 -70z" />
    <glyph glyph-name="six.001" horiz-adv-x="417" 
d="M369 276q26 -35 26 -85q0 -53 -25 -100.5t-70 -76.5t-102 -29q-55 0 -85 37t-30 92q0 20 5 45q22 103 56.5 176.5t73 121.5t88.5 93h46q-61 -45 -118.5 -124.5t-80.5 -161.5q2 4 19 17t44.5 24t61.5 11l14 -1q51 -4 77 -39zM287.5 41q35.5 23 55 62t19.5 87
q0 39 -20.5 63.5t-63.5 28.5h-10q-37 0 -72 -22.5t-57.5 -60t-22.5 -80.5q0 -42 21.5 -71.5t66.5 -29.5q48 0 83.5 23z" />
    <glyph glyph-name="seven.001" horiz-adv-x="416" 
d="M500 543l-6 -25l-57 -71q-64 -78 -109 -137t-84 -120q-49 -75 -102 -190h-35q54 115 110 203q35 55 75 107t103 129l57 72h-286l8 32h326z" />
    <glyph glyph-name="eight.001" horiz-adv-x="417" 
d="M403.5 535q21.5 -27 21.5 -67q0 -21 -3 -30q-12 -55 -33.5 -84t-57.5 -48q66 -32 66 -112q0 -54 -25 -102t-70.5 -77.5t-102.5 -29.5q-56 0 -85.5 36t-29.5 93q0 65 37.5 116t94.5 73q-23 15 -33.5 34.5t-10.5 50.5q0 49 21.5 90t58 65t78.5 24l12 -1q40 -4 61.5 -31z
M264 515.5q-27 -18.5 -43 -49t-16 -66.5q0 -34 15.5 -55t49.5 -21q49 0 78 26t40 83q4 20 4 31q0 31 -15.5 50.5t-48.5 19.5h-7q-30 0 -57 -18.5zM196.5 259.5q-35.5 -22.5 -57.5 -60t-22 -80.5q0 -42 21.5 -71.5t66.5 -29.5q72 0 114.5 49.5t42.5 122.5q0 39 -20 63.5
t-64 28.5h-9q-37 0 -72.5 -22.5z" />
    <glyph glyph-name="nine.001" horiz-adv-x="417" 
d="M157 258.5q-27 34.5 -27 83.5q0 54 25 102t70 77t103 29q55 0 85 -36.5t30 -92.5q0 -26 -5 -45q-22 -103 -56 -176.5t-72.5 -121t-89.5 -93.5h-46q61 45 118.5 124.5t81.5 161.5q-1 -4 -18 -17t-45 -24t-62 -11l-15 1q-50 4 -77 38.5zM331 275.5q35 22.5 57 60t22 80.5
q0 42 -21.5 71.5t-66.5 29.5q-34 0 -60 -11t-42 -24q-20 -19 -37.5 -52.5t-17.5 -84.5q0 -39 20.5 -63.5t64.5 -28.5h9q37 0 72 22.5z" />
    </font>
</defs>
</svg>
