<?xml version="1.0" standalone="no"?>
<!DOCTYPE svg PUBLIC "-//W3C//DTD SVG 1.1//EN" "http://www.w3.org/Graphics/SVG/1.1/DTD/svg11.dtd" >
<svg xmlns="http://www.w3.org/2000/svg" xmlns:xlink="http://www.w3.org/1999/xlink" version="1.1">
<metadata>
Created by FontForge 20170731 at Thu Jun  1 22:30:51 2017
 By Aleksey,,,
 Copyright (c) 1987, 1991, 1993, 2002 Fundicion Tipografica Neufville S. A
</metadata>
<defs>
<font id="Sandro-Regular" horiz-adv-x="496" >
  <font-face 
    font-family="Sandro"
    font-weight="400"
    font-stretch="normal"
    units-per-em="1000"
    panose-1="2 11 4 2 2 2 4 2 3 3"
    ascent="800"
    descent="-200"
    x-height="370"
    cap-height="603"
    bbox="-379 -284 902 777"
    underline-thickness="50"
    underline-position="-150"
    unicode-range="U+0020-FB02"
  />
<missing-glyph horiz-adv-x="400" 
d="M400 560v-560h-400v560h400zM64 520l136 -204l136 204h-272zM176 280l-136 204v-408zM360 484l-136 -204l136 -204v408zM200 244l-136 -204h272z" />
    <glyph glyph-name="f_i" unicode="fi" horiz-adv-x="380" 
d="M62 0v336h-41v34h41v165q0 30 2.5 52.5t11.5 38.5q12 21 34 32.5t48 11.5q20 0 32 -5v-33q-23 5 -29 5q-41 0 -52 -29.5t-11 -79.5v-158h92v-34h-92v-336h-36zM309.5 516q9.5 -10 9.5 -23q0 -14 -9.5 -23.5t-23.5 -9.5t-23 9.5t-9 23.5q0 13 9.5 23t22.5 10
q14 0 23.5 -10zM268 0v370h36v-370h-36z" />
    <glyph glyph-name="f_l" unicode="fl" horiz-adv-x="351" 
d="M62 0v336h-41v34h41v165q0 30 2.5 52.5t11.5 38.5q12 21 34 32.5t48 11.5q20 0 32 -5v-33q-23 5 -29 5q-41 0 -52 -29.5t-11 -79.5v-158h92v-34h-92v-336h-36zM254 0v660h36v-660h-36z" />
    <glyph glyph-name=".notdef" horiz-adv-x="400" 
d="M400 560v-560h-400v560h400zM64 520l136 -204l136 204h-272zM176 280l-136 204v-408zM360 484l-136 -204l136 -204v408zM200 244l-136 -204h272z" />
    <glyph glyph-name=".null" horiz-adv-x="0" 
 />
    <glyph glyph-name="nonmarkingreturn" horiz-adv-x="333" 
 />
    <glyph glyph-name="space" unicode=" " horiz-adv-x="350" 
 />
    <glyph glyph-name="exclam" unicode="!" horiz-adv-x="256" 
d="M147 603v-489h-38v489h38zM151.5 48.5q9.5 -9.5 9.5 -23.5t-9.5 -23.5t-23.5 -9.5t-23.5 9.5t-9.5 23.5t10 23.5t23 9.5q14 0 23.5 -9.5z" />
    <glyph glyph-name="quotedbl" unicode="&#x22;" horiz-adv-x="222" 
d="M76 411h-22l-8 192h39zM167 411h-21l-8 192h38z" />
    <glyph glyph-name="numbersign" unicode="#" 
d="M328 182l-30 -182h-36l28 182h-108l-26 -182h-38l26 182h-97v39h103l18 129h-98v39h104l25 169h40l-25 -169h108l26 169h40l-26 -169h88v-39h-95l-21 -129h95v-39h-101zM188 221h109l19 129h-109z" />
    <glyph glyph-name="dollar" unicode="$" 
d="M166.5 347.5q-25.5 15.5 -45.5 43t-20 67.5q0 64 39 106t102 47v84h36v-85q38 -5 70.5 -27.5t51.5 -56.5l-30 -24q-16 28 -40 47.5t-52 23.5v-240l22 -11q44 -22 70 -39.5t43 -45.5t17 -69q0 -42 -21 -79t-55.5 -62t-75.5 -33v-91h-36v89q-63 1 -108.5 35.5t-67.5 94.5
l33 16q18 -49 56 -79.5t87 -28.5v277q-50 25 -75.5 40.5zM169 538.5q-30 -34.5 -30 -78.5q0 -29 14.5 -49t33 -31t55.5 -30v223q-43 0 -73 -34.5zM359 82.5q32 38.5 32 88.5q0 43 -30 68t-83 51v-258q49 12 81 50.5z" />
    <glyph glyph-name="percent" unicode="%" horiz-adv-x="531" 
d="M98 -14l-24 15l356 616l27 -14zM230.5 575q35.5 -34 35.5 -85q0 -50 -35.5 -84t-86.5 -34t-86.5 34t-35.5 84q0 51 35.5 85t86.5 34t86.5 -34zM82 550.5q-26 -24.5 -26 -60.5q0 -35 26 -59.5t62 -24.5t62 24.5t26 59.5q0 36 -26 60.5t-62 24.5t-62 -24.5zM474 197.5
q35 -33.5 35 -85.5q0 -50 -35.5 -84t-86.5 -34t-86 33.5t-35 84.5q0 52 34.5 85.5t86.5 33.5t87 -33.5zM325 173q-26 -25 -26 -61q0 -34 26.5 -59t61.5 -25t61.5 25t26.5 59q0 36 -26 61t-62 25t-62 -25z" />
    <glyph glyph-name="ampersand" unicode="&#x26;" horiz-adv-x="514" 
d="M282.5 18q-53.5 -30 -107.5 -30q-44 0 -80 21.5t-56.5 58t-20.5 79.5q0 49 26.5 88.5t62 66.5t94.5 64l-12 17q-25 34 -38 59.5t-13 55.5q0 48 34.5 82t82.5 34q47 0 78.5 -32.5t31.5 -79.5q0 -46 -28.5 -77.5t-84.5 -70.5l149 -204l77 84l29 -16l-84 -96l92 -122h-41
l-76 100q-62 -52 -115.5 -82zM198.5 552.5q-22.5 -25.5 -22.5 -58.5q0 -22 9.5 -41t27.5 -44q15 -23 17 -26q4 3 10 8t15 11q35 26 53 47t18 54q0 31 -21 53t-52 22q-32 0 -54.5 -25.5zM91 237q-35 -36 -35 -86q0 -52 34 -89.5t85 -37.5q47 0 93.5 28t106.5 78l-152 206
l-38 -26q-59 -37 -94 -73z" />
    <glyph glyph-name="quotesingle" unicode="'" horiz-adv-x="178" 
d="M99 411h-21l-8 192h38z" />
    <glyph glyph-name="parenleft" unicode="(" horiz-adv-x="192" 
d="M89 236q0 -178 50 -358l-29 -20q-28 72 -42.5 178t-14.5 200q0 100 13.5 207t43.5 181l29 -21q-50 -176 -50 -367z" />
    <glyph glyph-name="parenright" unicode=")" horiz-adv-x="192" 
d="M125.5 443q13.5 -107 13.5 -207q0 -94 -14.5 -200t-42.5 -178l-29 20q50 180 50 358q0 191 -50 367l29 21q30 -74 43.5 -181z" />
    <glyph glyph-name="asterisk" unicode="*" horiz-adv-x="495" 
d="M267 603l-3 -120l114 40l12 -37l-116 -35l74 -95l-32 -23l-68 99l-69 -99l-31 22l73 96l-115 35l12 37l113 -40l-3 120h39z" />
    <glyph glyph-name="plus" unicode="+" 
d="M267 410v-186h186v-38h-186v-186h-38v186h-186v38h186v186h38z" />
    <glyph glyph-name="comma" unicode="," horiz-adv-x="248" 
d="M92 -133l-24 9l54 183l36 -11z" />
    <glyph glyph-name="hyphen" unicode="-" horiz-adv-x="152" 
d="M152 238h-152v36h152v-36z" />
    <glyph glyph-name="period" unicode="." horiz-adv-x="248" 
d="M147.5 48.5q9.5 -9.5 9.5 -23.5t-9.5 -23.5t-23.5 -9.5t-23.5 9.5t-9.5 23.5t10 23.5t23 9.5q14 0 23.5 -9.5z" />
    <glyph glyph-name="slash" unicode="/" horiz-adv-x="512" 
d="M58 -114l-30 16l428 758l28 -14z" />
    <glyph glyph-name="zero" unicode="0" horiz-adv-x="489" 
d="M367 600.5q38 -55.5 47 -149.5q4 -42 4 -137q0 -89 -11 -159t-51.5 -121t-121.5 -51h-4q-103 0 -135.5 101t-32.5 223q0 49 6 129q8 77 21.5 121t49 71t105.5 33q85 -5 123 -60.5zM159 594.5q-28 -23.5 -37.5 -59t-15.5 -101.5q-6 -58 -6 -127q0 -111 24 -198.5
t109 -87.5q151 0 151 273q0 104 -4 151q-6 81 -34 127t-102 51q-57 -5 -85 -28.5z" />
    <glyph glyph-name="one" unicode="1" horiz-adv-x="488" 
d="M262 662h40v-662h-38v601l-49 -71q-32 -46 -49 -72l-43 -1z" />
    <glyph glyph-name="two" unicode="2" horiz-adv-x="489" 
d="M51 490q0 62 47 111q29 29 68 45t80 16q53 0 95 -25t65.5 -67t23.5 -92q0 -61 -36 -116l-277 -327h324v-33h-409l332 385q29 48 29 93t-21 77.5t-55.5 49.5t-74.5 17q-31 0 -63.5 -13t-56.5 -37q-36 -38 -36 -86q0 -8 2 -22h-35q-2 7 -2 24z" />
    <glyph glyph-name="three" unicode="3" horiz-adv-x="488" 
d="M334.5 394q25.5 18 40.5 46.5t15 59.5q0 53 -42.5 84t-99.5 31q-72 0 -113 -42t-41 -110h-38q0 40 11 73q20 54 65.5 84t111.5 30q76 0 128.5 -38t52.5 -111q0 -45 -21 -84.5t-59 -60.5q83 -47 83 -176q0 -87 -44 -142.5t-142 -55.5q-81 0 -135 46.5t-54 137.5q0 13 4 28
h37q-4 -20 -4 -34q0 -69 48 -107q41 -36 105 -36q66 0 104 37q45 42 45 133q0 64 -25 100t-77 52h-12v37q31 0 56.5 18z" />
    <glyph glyph-name="four" unicode="4" horiz-adv-x="488" 
d="M393 150v-147h-37v147h-292v492h37q0 -151 -1 -226l-1 -228h259v262h37q0 -88 -2 -262h62v-38h-62z" />
    <glyph glyph-name="five" unicode="5" horiz-adv-x="488" 
d="M86 170q0 -66 43.5 -109.5t111.5 -43.5q72 0 114.5 51.5t42.5 136.5q0 76 -36 128t-97 52q-35 0 -68.5 -15t-57.5 -40h-36v310h325v-36h-289v-226q28 21 61.5 33t68.5 12q51 0 88.5 -31.5t57.5 -83t20 -111.5q0 -57 -21 -108.5t-55 -72.5q-50 -34 -119 -34
q-50 0 -93.5 22t-70 63t-26.5 97q0 23 0.5 35.5t3.5 18.5l35 -3q-3 -12 -3 -45z" />
    <glyph glyph-name="six" unicode="6" horiz-adv-x="488" 
d="M347.5 338.5q35.5 -27.5 54 -69.5t18.5 -88q0 -87 -46 -143t-137 -56q-53 0 -92 29t-60 75.5t-21 99.5q0 121 22 207t55.5 141.5t80.5 109.5h53q-59 -54 -107 -147.5t-54 -187.5q1 5 17.5 20t46.5 28t69 13l17 -1q48 -3 83.5 -30.5zM344 63.5q37 41.5 37 110.5
q0 66 -31.5 111t-95.5 45h-11q-38 0 -70 -20.5t-51 -55.5t-19 -78q0 -36 15 -71.5t45 -59t72 -23.5q72 0 109 41.5z" />
    <glyph glyph-name="seven" unicode="7" horiz-adv-x="486" 
d="M450 635v-29l-40 -67q-61 -101 -100 -171.5t-72 -145.5q-22 -50 -38 -102t-34 -120h-37q4 15 5 20q22 80 36 126.5t34 91.5q30 70 66 133.5t96 164.5l36 62h-334v37h382z" />
    <glyph glyph-name="eight" unicode="8" horiz-adv-x="488" 
d="M351 613q34 -44 34 -101q0 -64 -17.5 -98t-55.5 -56q52 -22 81 -69.5t29 -107.5q0 -87 -46.5 -143t-137.5 -56q-53 0 -92 28.5t-60 75.5t-21 100q0 58 32 103.5t81 64.5q-41 23 -60 60.5t-19 102.5q0 41 21 75t55 53t71 19q3 0 6.5 -1t6.5 -1q58 -5 92 -49zM168.5 591.5
q-31.5 -34.5 -31.5 -83.5q0 -52 25 -90.5t74 -38.5q56 0 83.5 30.5t27.5 96.5q0 48 -23.5 84t-71.5 36h-9q-43 0 -74.5 -34.5zM174 309.5q-32 -20.5 -51 -55.5t-19 -78q0 -36 15 -71.5t45 -59t72 -23.5q72 0 109 41.5t37 110.5q0 66 -31.5 111t-95.5 45h-11q-38 0 -70 -20.5
z" />
    <glyph glyph-name="nine" unicode="9" horiz-adv-x="488" 
d="M339 615q39 -29 60 -75.5t21 -99.5q0 -121 -22 -206.5t-55 -141t-81 -110.5h-53q59 54 106.5 147t54.5 189q-1 -5 -17.5 -20t-46.5 -28t-69 -13l-17 1q-48 3 -83.5 30.5t-54 69.5t-18.5 88q0 86 46.5 142t136.5 56q53 0 92 -29zM311 316.5q32 20.5 51 55.5t19 78
q0 36 -15 72t-45 59.5t-72 23.5q-72 0 -109 -42t-37 -111q0 -66 31.5 -111t95.5 -45h11q38 0 70 20.5z" />
    <glyph glyph-name="colon" unicode=":" horiz-adv-x="248" 
d="M147.5 368.5q9.5 -9.5 9.5 -23.5t-9.5 -23.5t-23.5 -9.5t-23.5 9.5t-9.5 23.5t10 23.5t23 9.5q14 0 23.5 -9.5zM147.5 48.5q9.5 -9.5 9.5 -23.5t-9.5 -23.5t-23.5 -9.5t-23.5 9.5t-9.5 23.5t10 23.5t23 9.5q14 0 23.5 -9.5z" />
    <glyph glyph-name="semicolon" unicode=";" horiz-adv-x="248" 
d="M152.5 368.5q9.5 -9.5 9.5 -23.5t-9.5 -23.5t-23.5 -9.5t-23.5 9.5t-9.5 23.5t9.5 23.5t23.5 9.5t23.5 -9.5zM92 -133l-24 9l54 183l36 -11z" />
    <glyph glyph-name="less" unicode="&#x3c;" 
d="M453 -4l-410 188v42l410 179v-37l-368 -163l368 -172v-37z" />
    <glyph glyph-name="equal" unicode="=" 
d="M43 254v38h410v-38h-410zM43 118v38h410v-38h-410z" />
    <glyph glyph-name="greater" unicode="&#x3e;" 
d="M43 368v37l410 -179v-42l-410 -188v37l368 172z" />
    <glyph glyph-name="question" unicode="?" horiz-adv-x="393" 
d="M289 150.5q-35 -36.5 -92 -36.5q-53 0 -90 34t-37 85t30 79.5t85 42.5q43 12 65.5 21.5t37 30.5t14.5 59q0 46 -30 77.5t-77 31.5q-45 0 -75 -29t-29 -72q0 -24 4 -43h-37q-5 28 -5 51q0 37 20 66.5t52.5 46t70.5 16.5q64 0 104 -40.5t40 -103.5t-33.5 -94.5t-99.5 -48.5
q-33 -9 -52.5 -17t-32.5 -25.5t-13 -46.5q0 -37 25 -61t64 -24q40 0 63 27t22 65h39q2 -55 -33 -91.5zM217.5 48.5q9.5 -9.5 9.5 -23.5t-9.5 -23.5t-23.5 -9.5t-23 9.5t-9 23.5t9.5 23.5t22.5 9.5q14 0 23.5 -9.5z" />
    <glyph glyph-name="at" unicode="@" horiz-adv-x="640" 
d="M488 470l-82 -259q-7 -19 -7 -32q0 -25 34 -25q32 0 65 32t54.5 79.5t21.5 90.5q0 64 -34.5 115t-89.5 79t-116 28q-72 0 -134 -39t-98 -103.5t-36 -137.5t37 -135.5t99 -99.5t133 -37q69 0 127.5 28t91.5 80h44q-34 -65 -103.5 -103.5t-159.5 -38.5q-84 0 -153.5 42
t-109.5 113.5t-40 156.5q0 83 41 153.5t110 112t149 41.5q76 0 139.5 -33.5t100 -92.5t36.5 -132q0 -62 -28 -115.5t-71.5 -85t-86.5 -31.5q-22 0 -38 10t-22 29q-46 -39 -104 -39q-50 0 -78.5 33t-28.5 84q0 57 24.5 114.5t69 95.5t100.5 38q28 0 53.5 -14t42.5 -39l12 37
h35zM339 184q33 30 43 66l38 117q2 6 2 11q0 16 -10.5 33.5t-30 29.5t-43.5 12q-40 0 -75 -34.5t-56.5 -84t-21.5 -91.5q0 -36 22 -62.5t61 -26.5q38 0 71 30z" />
    <glyph glyph-name="A" unicode="A" horiz-adv-x="513" 
d="M43 0h-39l253 623l252 -623h-39l-81 198h-265zM138 234h236l-117 292z" />
    <glyph glyph-name="B" unicode="B" horiz-adv-x="452" 
d="M65 603h121q41 0 70.5 -6.5t53.5 -28.5q51 -44 51 -125q0 -84 -70 -123q56 -11 90.5 -52.5t34.5 -99.5q0 -78 -56 -125q-29 -25 -62.5 -34t-78.5 -9h-154v603zM170 330q44 0 64.5 3t43.5 19q24 18 34 41t10 56q0 31 -12 57t-37 42q-21 13 -44 16t-59 3h-67v-237h67z
M195 36q47 0 73 3.5t50 19.5q28 19 44 47t16 60q0 34 -16.5 63.5t-46.5 44.5q-25 13 -56 16.5t-71 3.5h-85v-258h92z" />
    <glyph glyph-name="C" unicode="C" horiz-adv-x="591" 
d="M454 549q-56 26 -112 26q-74 0 -137 -38t-100.5 -102t-37.5 -137q0 -52 21.5 -100.5t59.5 -86.5q39 -37 90.5 -60t103.5 -23q53 0 111 26t91 66v-53q-91 -75 -201 -75q-83 0 -155 42t-115.5 113t-43.5 154q0 84 43 155t115.5 113t156.5 42q55 0 107 -20.5t93 -57.5v-53
q-34 43 -90 69z" />
    <glyph glyph-name="D" unicode="D" horiz-adv-x="522" 
d="M174 603q72 0 124.5 -16t99.5 -60t71.5 -102.5t24.5 -123.5q0 -63 -24 -120.5t-69 -100.5q-48 -45 -101.5 -62.5t-125.5 -17.5h-109v603h109zM285.5 52q48.5 16 89.5 57q38 38 59 88t21 104q0 58 -22.5 110t-64.5 91q-41 37 -87.5 51t-107.5 14h-70v-531h70
q64 0 112.5 16z" />
    <glyph glyph-name="E" unicode="E" horiz-adv-x="406" 
d="M103 348h243v-36h-243v-276h250v-36h-288v603h288v-36h-250v-219z" />
    <glyph glyph-name="F" unicode="F" horiz-adv-x="355" 
d="M103 348h199v-36h-199v-312h-38v603h243v-36h-205v-219z" />
    <glyph glyph-name="G" unicode="G" horiz-adv-x="659" 
d="M618.5 179q-13.5 -48 -51.5 -89q-42 -47 -103 -72.5t-126 -25.5q-82 0 -153 42t-113.5 112.5t-42.5 152.5q0 85 42.5 156.5t114.5 113.5t157 42q80 0 146.5 -37t115.5 -104l-31 -24q-41 61 -101 95t-132 34t-135 -38t-101 -101t-38 -134q0 -73 37 -136t100 -100.5
t137 -37.5q48 0 93.5 17.5t83.5 48.5q38 32 55 71t19 89h-216v36h254q2 -63 -11.5 -111z" />
    <glyph glyph-name="H" unicode="H" horiz-adv-x="573" 
d="M470 603h38v-603h-38v311h-367v-311h-38v603h38v-256h367v256z" />
    <glyph glyph-name="I" unicode="I" horiz-adv-x="168" 
d="M65 0v603h38v-603h-38z" />
    <glyph glyph-name="J" unicode="J" horiz-adv-x="174" 
d="M110 11q0 -64 -23 -100.5t-84 -36.5q-32 0 -58.5 17.5t-41.5 47.5l29 22q11 -22 31 -36.5t43 -14.5q40 0 52.5 28t12.5 73v592h39v-592z" />
    <glyph glyph-name="K" unicode="K" horiz-adv-x="455" 
d="M441 603l-295 -290l313 -313h-50l-290 288l-16 -16v-272h-38v603h38v-281l287 281h51z" />
    <glyph glyph-name="L" unicode="L" horiz-adv-x="262" 
d="M257 36v-36h-192v603h38v-567h154z" />
    <glyph glyph-name="M" unicode="M" horiz-adv-x="718" 
d="M569 499l-211 -519l-209 519h-2l-103 -499h-37l130 623l221 -549l223 549l129 -623h-36l-104 499h-1z" />
    <glyph glyph-name="N" unicode="N" horiz-adv-x="674" 
d="M103 518v-518h-38v611l506 -534v526h39v-623z" />
    <glyph glyph-name="O" unicode="O" horiz-adv-x="683" 
d="M497 569q72 -42 114.5 -113t42.5 -154t-42.5 -154.5t-114.5 -113.5t-155 -42q-84 0 -156 42t-114.5 113.5t-42.5 154.5t42.5 154t114.5 113t156 42q83 0 155 -42zM204.5 537.5q-63.5 -37.5 -100.5 -100t-37 -135.5t37 -136t100.5 -100.5t137.5 -37.5q73 0 136 37.5
t100.5 100.5t37.5 136t-37.5 135.5t-100.5 100t-136 37.5q-74 0 -137.5 -37.5z" />
    <glyph glyph-name="P" unicode="P" horiz-adv-x="378" 
d="M65 0v603h106q43 0 74 -6.5t57 -28.5q26 -23 40 -55.5t14 -68.5q0 -34 -13 -66.5t-37 -52.5q-45 -39 -135 -39h-68v-286h-38zM231.5 329q25.5 7 46.5 26q40 36 40 91q0 29 -12 55t-34 42q-20 15 -45 19.5t-61 4.5h-63v-245h70q33 0 58.5 7z" />
    <glyph glyph-name="Q" unicode="Q" horiz-adv-x="683" 
d="M446 11q-52 -19 -104 -19q-85 0 -157 41.5t-114 113t-42 155.5t42.5 155t114.5 112.5t156 41.5q83 0 155 -41.5t114.5 -112t42.5 -153.5q0 -62 -22 -115t-66 -103l80 -86h-52l-55 64q-41 -34 -93 -53zM616 297q0 75 -36 138.5t-99 101.5t-139 38q-73 0 -136.5 -37.5
t-101 -100t-37.5 -135.5q0 -75 37.5 -137.5t101 -99.5t138.5 -37q44 0 87.5 17t80.5 46l-150 156h54l122 -133q78 85 78 183z" />
    <glyph glyph-name="R" unicode="R" horiz-adv-x="390" 
d="M319 0l-197 286h-19v-286h-38v603h75q47 0 78.5 -5.5t59.5 -24.5q60 -43 60 -130q0 -77 -47.5 -118t-124.5 -39l197 -286h-44zM213 327q24 5 45 23q20 17 31 42t11 53q0 35 -16.5 65t-47.5 44q-19 9 -41.5 11t-41.5 2h-25h-25v-245h49q37 0 61 5z" />
    <glyph glyph-name="S" unicode="S" horiz-adv-x="435" 
d="M222 575q-48 0 -81 -33.5t-33 -81.5q0 -29 16 -50t37 -34t56 -29l115 -60q35 -22 52 -50.5t17 -69.5q0 -49 -26.5 -89t-70 -63t-92.5 -23q-62 0 -109.5 35.5t-68.5 94.5l34 15q21 -51 57.5 -80t88.5 -29q39 0 73 19t54.5 51.5t20.5 71.5q0 31 -18 53.5t-39 35.5t-64 34
l-109 57q-62 39 -62 108q0 67 43 110t111 43q46 0 85.5 -23t61.5 -62l-27 -22q-45 71 -122 71z" />
    <glyph glyph-name="T" unicode="T" horiz-adv-x="360" 
d="M161 0v567h-156v36h350v-36h-156v-567h-38z" />
    <glyph glyph-name="U" unicode="U" horiz-adv-x="528" 
d="M469 603v-376q0 -59 -7 -95t-34 -70q-30 -34 -73.5 -52t-90.5 -18t-90.5 18t-73.5 52q-27 34 -34 70t-7 95v376h39v-365q0 -55 5 -90t26 -62t59.5 -42.5t75.5 -15.5t75.5 15.5t59.5 42.5t26 62t5 90v365h39z" />
    <glyph glyph-name="V" unicode="V" horiz-adv-x="444" 
d="M223 88l179 515h38l-219 -623l-217 623h38l180 -515h1z" />
    <glyph glyph-name="W" unicode="W" horiz-adv-x="884" 
d="M443 634l226 -549l167 518h38l-203 -623l-230 558l-230 -558l-201 623h38l170 -518z" />
    <glyph glyph-name="X" unicode="X" horiz-adv-x="395" 
d="M58 603l139 -259l138 259h43l-158 -295l166 -308h-42l-147 273l-146 -273h-41l164 308l-158 295h42z" />
    <glyph glyph-name="Y" unicode="Y" horiz-adv-x="447" 
d="M46 603l177 -305l178 305h42l-201 -345v-258h-38v258l-201 345h43z" />
    <glyph glyph-name="Z" unicode="Z" horiz-adv-x="454" 
d="M434 0h-424l368 567h-333v36h400l-368 -567h357v-36z" />
    <glyph glyph-name="bracketleft" unicode="[" horiz-adv-x="240" 
d="M188 -122v-40h-136v765h136v-41h-98v-684h98z" />
    <glyph glyph-name="backslash" unicode="\" horiz-adv-x="512" 
d="M484 15l-30 -15l-426 646l28 14z" />
    <glyph glyph-name="bracketright" unicode="]" horiz-adv-x="240" 
d="M52 562v41h136v-765h-136v40h98v684h-98z" />
    <glyph glyph-name="asciicircum" unicode="^" 
d="M227 603h42l184 -362h-37l-168 326l-167 -326h-38z" />
    <glyph glyph-name="underscore" unicode="_" horiz-adv-x="400" 
d="M0 -60h400v-40h-400v40z" />
    <glyph glyph-name="grave" unicode="`" horiz-adv-x="250" 
d="M190 454l-31 -14l-99 116l49 15z" />
    <glyph glyph-name="a" unicode="a" horiz-adv-x="448" 
d="M350 0v66h-1q-20 -34 -59.5 -54t-81.5 -20q-55 0 -96 26t-63.5 70.5t-22.5 98.5t22 97.5t63 68.5t95 25q43 0 81.5 -19t61.5 -53h1v64h36v-370h-36zM131.5 322q-32.5 -22 -51 -58.5t-18.5 -76.5q0 -43 18 -80t51 -59t76 -22q68 0 107 47.5t39 117.5q0 66 -41 109.5
t-107 43.5q-41 0 -73.5 -22z" />
    <glyph glyph-name="b" unicode="b" horiz-adv-x="448" 
d="M98 660v-354h1q23 34 61.5 53t81.5 19q54 0 95 -25t63 -68.5t22 -97.5t-22.5 -98.5t-63.5 -70.5t-96 -26q-42 0 -81.5 20t-59.5 54h-1v-66h-36v660h36zM317.5 48q32.5 22 50.5 59t18 80q0 41 -18.5 77t-51 58t-74.5 22q-68 0 -107.5 -45t-39.5 -113q0 -43 18 -80
t51 -58.5t77 -21.5t76.5 22z" />
    <glyph glyph-name="c" unicode="c" horiz-adv-x="382" 
d="M214 344q-42 0 -77 -22t-55 -58t-20 -78t20 -79t54.5 -59t77.5 -22q39 0 74.5 17.5t61.5 48.5v-49q-59 -51 -135 -51q-53 0 -96.5 26t-68 70.5t-24.5 97.5t25 97t68.5 69.5t96.5 25.5q74 0 129 -46v-48q-55 60 -131 60z" />
    <glyph glyph-name="d" unicode="d" horiz-adv-x="448" 
d="M349 66q-20 -34 -59.5 -54t-81.5 -20q-55 0 -96 26t-63.5 70.5t-22.5 98.5t22 97.5t63 68.5t95 25q43 0 81.5 -19t61.5 -53h1v354h36v-660h-36v66h-1zM314 73.5q39 47.5 39 117.5q0 66 -41 109.5t-107 43.5q-41 0 -73.5 -22t-51 -58.5t-18.5 -76.5q0 -43 18 -80t51 -59
t76 -22q68 0 107 47.5z" />
    <glyph glyph-name="e" unicode="e" horiz-adv-x="408" 
d="M80 100.5q19 -35.5 53 -55t77 -19.5q42 0 76 22.5t54 61.5l30 -18q-25 -48 -67.5 -74t-97.5 -26q-53 0 -94 26t-63 70.5t-22 97.5q0 52 22.5 96t63.5 70t93 26q54 0 94.5 -26.5t62 -71t20.5 -98.5h-320q-1 -46 18 -81.5zM300.5 306q-39.5 38 -94.5 38q-37 0 -69 -17.5
t-52 -47t-23 -64.5h284q-6 53 -45.5 91z" />
    <glyph glyph-name="f" unicode="f" horiz-adv-x="192" 
d="M62 0v336h-41v34h41v165q0 30 2.5 52.5t11.5 38.5q12 21 34 32.5t48 11.5q20 0 32 -5v-33q-23 5 -29 5q-41 0 -52 -29.5t-11 -79.5v-158h92v-34h-92v-336h-36z" />
    <glyph glyph-name="g" unicode="g" horiz-adv-x="454" 
d="M385.5 -70.5q-6.5 -35.5 -30.5 -68.5q-25 -35 -64 -53t-83 -18q-76 0 -127 42t-55 116h36q3 -56 44 -90.5t99 -34.5q37 0 68 13.5t50 41.5q20 29 26.5 62.5t6.5 77.5v46h-2q-24 -33 -63 -52.5t-81 -19.5q-52 0 -93 26.5t-63.5 71t-22.5 96.5q0 53 23.5 97t65.5 69.5
t95 25.5q86 0 139 -72h2v64h36v-352q0 -53 -6.5 -88.5zM136.5 322q-32.5 -22 -51 -58.5t-18.5 -76.5q0 -43 18 -80t51 -59t77 -22q68 0 106.5 47.5t38.5 117.5q0 66 -41 109.5t-107 43.5q-41 0 -73.5 -22z" />
    <glyph glyph-name="h" unicode="h" horiz-adv-x="392" 
d="M98 312h1q17 31 45.5 48.5t64.5 17.5q67 0 94 -39t27 -116v-223h-36v223q0 60 -16.5 90.5t-71.5 30.5q-63 0 -85.5 -45.5t-22.5 -116.5v-182h-36v660h36v-348z" />
    <glyph glyph-name="i" unicode="i" horiz-adv-x="187" 
d="M116.5 516q9.5 -10 9.5 -23q0 -14 -9 -23.5t-23 -9.5t-23.5 9.5t-9.5 23.5q0 13 9.5 23t23.5 10q13 0 22.5 -10zM75 0v370h36v-370h-36z" />
    <glyph glyph-name="j" unicode="j" horiz-adv-x="187" 
d="M116.5 516q9.5 -10 9.5 -23q0 -14 -9 -23.5t-23 -9.5t-23.5 9.5t-9.5 23.5q0 13 9.5 23t23.5 10q13 0 22.5 -10zM75 -216v586h36v-586h-36z" />
    <glyph glyph-name="k" unicode="k" horiz-adv-x="342" 
d="M250 370h46l-155 -160l207 -210h-47l-183 185l-20 -21v-164h-36v660h36v-447z" />
    <glyph glyph-name="l" unicode="l" horiz-adv-x="159" 
d="M62 0v660h36v-660h-36z" />
    <glyph glyph-name="m" unicode="m" horiz-adv-x="580" 
d="M99 323q13 26 38 40.5t55 14.5q35 0 62.5 -17.5t41.5 -50.5q15 33 43.5 50.5t64.5 17.5q66 0 90 -38.5t24 -107.5v-232h-36v237q0 52 -15.5 79.5t-63.5 27.5q-53 0 -74 -37t-21 -94v-213h-36v228q0 53 -16.5 84.5t-65.5 31.5q-52 0 -72 -41.5t-20 -99.5v-203h-36v370h36
v-47h1z" />
    <glyph glyph-name="n" unicode="n" horiz-adv-x="392" 
d="M99 312q17 31 45.5 48.5t64.5 17.5q67 0 94 -39t27 -116v-223h-36v223q0 60 -16.5 90.5t-71.5 30.5q-63 0 -85.5 -45.5t-22.5 -116.5v-182h-36v370h36v-58h1z" />
    <glyph glyph-name="o" unicode="o" horiz-adv-x="438" 
d="M315.5 352.5q44.5 -25.5 70.5 -69.5t26 -98t-26 -98t-70.5 -69.5t-97.5 -25.5t-97 26t-69.5 70t-25.5 96t25.5 96.5t69.5 71t97 26.5t97.5 -25.5zM137 322q-35 -22 -55 -58.5t-20 -79.5q0 -42 20 -78t55.5 -58t77.5 -22q45 0 82 20.5t58 57t21 80.5q0 45 -21 81.5
t-58 57.5t-82 21q-43 0 -78 -22z" />
    <glyph glyph-name="p" unicode="p" horiz-adv-x="448" 
d="M99 303q20 34 59.5 54.5t81.5 20.5q55 0 96.5 -26t63.5 -71t22 -99t-22 -97.5t-63 -68t-95 -24.5q-44 0 -82 18.5t-61 53.5h-1v-280h-36v586h36v-67h1zM134 295.5q-39 -48.5 -39 -118.5q0 -66 41 -108.5t106 -42.5q42 0 75 21t51 56.5t18 77.5q0 43 -18 80.5t-51 60
t-76 22.5q-68 0 -107 -48.5z" />
    <glyph glyph-name="q" unicode="q" horiz-adv-x="448" 
d="M350 -216v280h-1q-23 -35 -61 -53.5t-82 -18.5q-54 0 -95 24.5t-63 67.5t-22 97q0 55 22 100t63.5 71t96.5 26q42 0 81.5 -20.5t59.5 -54.5h1v67h36v-586h-36zM100.5 295.5q-38.5 -48.5 -38.5 -118.5q0 -66 40.5 -108.5t106.5 -42.5q42 0 75 21t51 56.5t18 77.5
q0 43 -18 80.5t-51 60t-77 22.5q-68 0 -106.5 -48.5z" />
    <glyph glyph-name="r" unicode="r" horiz-adv-x="222" 
d="M99 322q25 56 80 56q17 0 39 -9l-19 -32q-13 7 -25 7q-37 0 -53.5 -25t-19.5 -54t-3 -76v-189h-36v370h36v-48h1z" />
    <glyph glyph-name="s" unicode="s" horiz-adv-x="300" 
d="M191 333q-17 11 -39 11q-24 0 -43.5 -17.5t-19.5 -40.5q0 -26 19 -40t57 -27q33 -12 54 -23.5t35.5 -33t14.5 -55.5q0 -50 -34.5 -82.5t-84.5 -32.5q-47 0 -81.5 26.5t-46.5 71.5l36 11q10 -35 33.5 -55t58.5 -20t59 24t24 59q0 30 -18.5 45.5t-53.5 27.5
q-51 18 -79.5 39.5t-28.5 62.5t29.5 67.5t71.5 26.5q28 0 55 -17t39 -43l-31 -16q-9 20 -26 31z" />
    <glyph glyph-name="t" unicode="t" horiz-adv-x="167" 
d="M66 0v336h-41v34h41v132h36v-132h64v-34h-64v-336h-36z" />
    <glyph glyph-name="u" unicode="u" horiz-adv-x="378" 
d="M322 148q0 -38 -4 -61.5t-19 -44.5q-18 -24 -48 -37t-62 -13q-33 0 -62.5 12.5t-48.5 37.5q-15 21 -18.5 44t-3.5 62v222h36v-209q0 -43 6.5 -71t27.5 -46t63 -18t63 18t27.5 46t6.5 71v209h36v-222z" />
    <glyph glyph-name="v" unicode="v" horiz-adv-x="346" 
d="M306 370h36l-168 -390l-170 390h37l133 -305z" />
    <glyph glyph-name="w" unicode="w" horiz-adv-x="602" 
d="M302 390l131 -324l128 304h37l-168 -390l-130 319l-130 -319l-166 390h37l130 -304z" />
    <glyph glyph-name="x" unicode="x" horiz-adv-x="354" 
d="M59 370l118 -150l118 150h43l-137 -175l150 -195h-42l-132 170l-131 -170h-43l151 195l-138 175h43z" />
    <glyph glyph-name="y" unicode="y" horiz-adv-x="368" 
d="M32 370l158 -335l141 335h37l-248 -586h-37l89 210l-178 376h38z" />
    <glyph glyph-name="z" unicode="z" horiz-adv-x="384" 
d="M378 0h-376l303 336h-254v34h329l-302 -336h300v-34z" />
    <glyph glyph-name="braceleft" unicode="{" horiz-adv-x="240" 
d="M77.5 280q13.5 19 13.5 51v141q0 71 24.5 100.5t91.5 30.5v-37q-34 0 -55.5 -13t-21.5 -51v-148q0 -57 -13.5 -83.5t-45.5 -47.5v-4q32 -20 45.5 -47.5t13.5 -86.5v-148q0 -38 21.5 -51t55.5 -13v-35q-67 2 -91.5 31t-24.5 99v141q0 32 -14 53t-44 42v35q31 22 44.5 41z
" />
    <glyph glyph-name="bar" unicode="|" horiz-adv-x="256" 
d="M147 629v-800h-38v800h38z" />
    <glyph glyph-name="braceright" unicode="}" horiz-adv-x="240" 
d="M163 162q-14 -21 -14 -53v-141q0 -70 -24.5 -99t-91.5 -31v35q34 0 55.5 13t21.5 51v148q0 59 13.5 86.5t45.5 47.5v4q-32 21 -45.5 47.5t-13.5 83.5v148q0 38 -21.5 51t-55.5 13v37q67 -1 91.5 -30.5t24.5 -100.5v-141q0 -32 13.5 -51t44.5 -41v-35q-30 -21 -44 -42z
" />
    <glyph glyph-name="asciitilde" unicode="~" 
d="M254 222l25 -12q16 -8 32 -14t26 -6q25 0 42.5 16.5t34.5 47.5l39 -18q-25 -39 -52.5 -63t-64.5 -24q-19 0 -38.5 7.5t-48.5 22.5q-34 17 -51.5 24t-36.5 7q-25 0 -43 -15.5t-37 -44.5l-38 19q4 5 23.5 29.5t44 38.5t50.5 14q33 0 93 -29z" />
    <glyph glyph-name="uni00A0" unicode="&#xa0;" horiz-adv-x="248" 
 />
    <glyph glyph-name="exclamdown" unicode="&#xa1;" horiz-adv-x="256" 
d="M151.5 368.5q9.5 -9.5 9.5 -23.5t-9.5 -23.5t-23.5 -9.5t-23.5 9.5t-9.5 23.5t10 23.5t23 9.5q14 0 23.5 -9.5zM109 -232v489h38v-489h-38z" />
    <glyph glyph-name="cent" unicode="&#xa2;" 
d="M289 467v-319q35 3 66.5 20.5t52.5 45.5h2v-48q-56 -48 -121 -52v-102h-36v103q-47 5 -85 31.5t-60 68t-22 88.5q0 50 20.5 93.5t58.5 71t88 32.5v94h36v-93q32 -2 62 -14t54 -33v-48q-52 57 -116 61zM159 412q-37 -46 -37 -105q0 -58 37 -104.5t94 -53.5v317
q-57 -8 -94 -54z" />
    <glyph glyph-name="sterling" unicode="&#xa3;" 
d="M100.5 61q29.5 15 57.5 14q23 19 37.5 43.5t14.5 51.5l-3 24h-99v36h90l-65 110q-22 34 -32.5 60.5t-10.5 59.5q0 43 22 77.5t59 54t79 19.5q44 0 79.5 -21.5t55.5 -58t19 -79.5h-38q0 53 -33.5 88t-86.5 35q-32 0 -59 -16.5t-43 -44t-16 -58.5q0 -23 9.5 -45t27.5 -49
l17 -28q41 -64 57 -104h109v-36h-102l2 -27q0 -27 -12.5 -53.5t-33.5 -47.5l8 -2q5 -2 11 -4.5t14 -4.5q68 -27 92 -27q27 0 48.5 19t36.5 47l33 -20q-20 -34 -49 -58t-64 -24q-19 0 -40 6.5t-50 17.5q-30 12 -48.5 17.5t-33.5 5.5q-24 0 -44.5 -12.5t-42.5 -34.5l-22 31
q20 23 49.5 38z" />
    <glyph glyph-name="currency" unicode="&#xa4;" 
d="M117 394q33 24 63.5 35t67.5 11t67.5 -11t63.5 -35l34 33l29 -29l-32 -32q22 -35 32 -63.5t10 -62.5t-10 -62.5t-32 -63.5l32 -32l-29 -29l-34 33q-33 -24 -63.5 -35t-67.5 -11t-67.5 11t-63.5 35l-34 -33l-29 29l32 32q-22 35 -32 63.5t-10 62.5t10 62.5t32 63.5l-32 32
l29 29zM164 380q-38 -21 -60 -57t-22 -81q0 -43 22.5 -81t60.5 -60.5t83 -22.5t83 22.5t60.5 60.5t22.5 81q0 45 -22 81t-60 57t-84 22q-46 -1 -84 -22z" />
    <glyph glyph-name="yen" unicode="&#xa5;" 
d="M66 318v36h107l-145 249h46l174 -301l174 301h46l-145 -249h107v-36h-128l-35 -60h163v-36h-163v-222h-38v222h-163v36h163l-35 60h-128z" />
    <glyph glyph-name="brokenbar" unicode="&#xa6;" horiz-adv-x="256" 
d="M147 529v-200h-38v200h38zM147 129v-200h-38v200h38z" />
    <glyph glyph-name="section" unicode="&#xa7;" 
d="M154 -19q0 -50 21.5 -74.5t71.5 -24.5q46 0 74.5 24.5t28.5 68.5q0 32 -16.5 52t-38.5 30.5t-61 24.5q-65 21 -98.5 52.5t-33.5 92.5q0 48 23.5 84t66.5 54q-40 19 -58.5 47.5t-18.5 72.5q0 59 40 92.5t100 33.5q71 0 99.5 -35.5t34.5 -109.5h-39q0 53 -23.5 81t-75.5 28
q-43 0 -70 -26t-27 -69q0 -34 16 -54t36 -28.5t68 -24.5q37 -12 62 -27t41.5 -44t16.5 -75q0 -44 -24.5 -78.5t-66.5 -54.5q42 -17 64 -48.5t22 -75.5q0 -61 -40 -92.5t-103 -31.5q-70 0 -101 34t-30 103v8h39v-10zM323.5 155q31.5 31 31.5 75q0 43 -32 75t-75 32t-75.5 -32
t-32.5 -75q0 -44 32 -75t76 -31t75.5 31z" />
    <glyph glyph-name="dieresis" unicode="&#xa8;" horiz-adv-x="337" 
d="M116.5 529.5q9.5 -9.5 9.5 -22.5t-9.5 -22.5t-22.5 -9.5t-22.5 9.5t-9.5 22.5q0 14 9.5 23t22.5 9t22.5 -9.5zM266 530q9 -9 9 -23q0 -13 -9.5 -22.5t-22.5 -9.5t-22.5 9.5t-9.5 22.5t9.5 22.5t22.5 9.5q14 0 23 -9z" />
    <glyph glyph-name="copyright" unicode="&#xa9;" horiz-adv-x="640" 
d="M165.5 34q-71.5 42 -113.5 113t-42 155t42 155t113.5 112.5t155.5 41.5t155 -41.5t112.5 -112.5t41.5 -155t-41.5 -155t-112.5 -113t-155 -42t-155.5 42zM457 66q62 36 98 98.5t36 137.5q0 74 -36 136.5t-98 98.5t-136 36t-136.5 -36t-99 -98.5t-36.5 -136.5
q0 -75 36.5 -137.5t99 -98.5t136.5 -36t136 36zM431 159q-41 -33 -97 -33q-50 0 -89 23.5t-60.5 64.5t-21.5 91q0 78 46 127.5t123 49.5q57 0 97 -31t49 -85h-39q-7 35 -37.5 56.5t-68.5 21.5q-60 0 -95.5 -39.5t-35.5 -98.5q0 -38 16.5 -70t46.5 -51.5t69 -19.5t70 22
t35 59h39q-6 -54 -47 -87z" />
    <glyph glyph-name="ordfeminine" unicode="&#xaa;" horiz-adv-x="269" 
d="M229 385v40h-2q-12 -21 -38 -33t-53 -12q-53 0 -85.5 33.5t-32.5 83.5t31.5 82t85.5 32q28 0 52.5 -11t39.5 -32h2v38h23v-221h-23zM69.5 557.5q-24.5 -26.5 -24.5 -61.5q0 -36 24 -62.5t63 -26.5q42 0 67.5 26.5t25.5 64.5q0 36 -27 61t-68 25q-36 0 -60.5 -26.5z" />
    <glyph glyph-name="guillemotleft" unicode="&#xab;" horiz-adv-x="318" 
d="M145 121l-117 135l117 135l23 -21l-97 -114l97 -114zM241 121l-117 135l117 135l23 -21l-97 -114l97 -114z" />
    <glyph glyph-name="logicalnot" unicode="&#xac;" 
d="M43 254v38h410v-213h-39v175h-371z" />
    <glyph glyph-name="uni00AD" unicode="&#xad;" horiz-adv-x="152" 
d="M152 238h-152v36h152v-36z" />
    <glyph glyph-name="registered" unicode="&#xae;" horiz-adv-x="640" 
d="M165.5 34q-71.5 42 -113.5 113t-42 155t42 155t113.5 112.5t155.5 41.5t155 -41.5t112.5 -112.5t41.5 -155t-41.5 -155t-112.5 -113t-155 -42t-155.5 42zM457 66q62 36 98 98.5t36 137.5q0 74 -36 136.5t-98 98.5t-136 36t-136.5 -36t-99 -98.5t-36.5 -136.5
q0 -75 36.5 -137.5t99 -98.5t136.5 -36t136 36zM422 126l-96 156h-80v-156h-38v339h148q65 0 92.5 -23t27.5 -67q0 -47 -28.5 -69t-77.5 -24l102 -156h-50zM345 321q42 0 67.5 10.5t25.5 44.5q0 30 -26 40t-66 10h-100v-105h67h32z" />
    <glyph glyph-name="macron" unicode="&#xaf;" horiz-adv-x="365" 
d="M304 503h-244v36h244v-36z" />
    <glyph glyph-name="degree" unicode="&#xb0;" horiz-adv-x="320" 
d="M245 406.5q-35 -35.5 -85 -35.5q-49 0 -84.5 36t-35.5 86q0 49 35.5 83.5t84.5 34.5q50 0 85 -35t35 -85q0 -49 -35 -84.5zM98.5 552.5q-24.5 -25.5 -24.5 -61.5q0 -37 24.5 -61.5t61.5 -24.5q36 0 61 24.5t25 61.5q0 36 -25 61.5t-62 25.5q-36 0 -60.5 -25.5z" />
    <glyph glyph-name="plusminus" unicode="&#xb1;" 
d="M267 410v-154h186v-38h-186v-154h-38v154h-186v38h186v154h38zM453 38v-38h-410v38h410z" />
    <glyph glyph-name="uni00B2" unicode="&#xb2;" horiz-adv-x="298" 
d="M269 245h-242l146 148q32 33 51 59.5t19 54.5q0 35 -26 56t-64 21q-41 0 -66 -21.5t-25 -57.5h-27q2 44 25 68q16 18 41.5 28t51.5 10q49 0 83 -30t34 -75q0 -33 -19.5 -63t-50.5 -61l-109 -110h178v-27z" />
    <glyph glyph-name="uni00B3" unicode="&#xb3;" horiz-adv-x="298" 
d="M205 466.5q23 19.5 23 52.5q0 29 -22 47t-54 18q-34 0 -53 -16t-21 -46h-27q4 41 30.5 65t71.5 24q42 0 72 -27t30 -66q0 -27 -15.5 -49.5t-43.5 -34.5q29 -10 47 -34.5t18 -53.5q0 -45 -33 -75.5t-82 -30.5q-45 0 -77 26.5t-32 67.5h27q4 -32 25 -49.5t56 -17.5
q37 0 63 22.5t26 55.5q0 34 -25 54.5t-63 20.5v27q36 0 59 19.5z" />
    <glyph glyph-name="acute" unicode="&#xb4;" horiz-adv-x="250" 
d="M90 440l-30 14l81 117l49 -15z" />
    <glyph glyph-name="uni00B5" unicode="&#xb5;" horiz-adv-x="378" 
d="M56 370h36v-183q0 -65 21 -113t76 -48q42 0 63 18t27.5 46t6.5 71v209h36v-222q0 -38 -4 -61.5t-19 -44.5q-18 -24 -48 -37t-62 -13q-28 0 -56.5 17.5t-38.5 48.5h-2v-274h-36v586z" />
    <glyph glyph-name="paragraph" unicode="&#xb6;" 
d="M154.5 316.5q-31.5 20.5 -49 55.5t-17.5 76q0 155 162 155h158v-36h-32v-709h-38v709h-74v-709h-38v438q-40 0 -71.5 20.5z" />
    <glyph glyph-name="periodcentered" unicode="&#xb7;" horiz-adv-x="248" 
d="M147.5 228.5q9.5 -9.5 9.5 -23.5t-9.5 -23.5t-23.5 -9.5t-23.5 9.5t-9.5 23.5t10 23.5t23 9.5q14 0 23.5 -9.5z" />
    <glyph glyph-name="cedilla" unicode="&#xb8;" horiz-adv-x="239" 
d="M60 -131l74 115l45 -18l-89 -112z" />
    <glyph glyph-name="uni00B9" unicode="&#xb9;" horiz-adv-x="298" 
d="M119 603h76v-358h-27v331h-61z" />
    <glyph glyph-name="ordmasculine" unicode="&#xba;" horiz-adv-x="262" 
d="M220.5 578q36.5 -33 36.5 -82t-37 -82.5t-90 -33.5q-33 0 -61.5 15.5t-45.5 42t-17 57.5q0 48 36 82t88 34q54 0 90.5 -33zM64 557.5q-27 -26.5 -27 -63.5q0 -34 27 -60.5t65 -26.5q40 0 68.5 25.5t28.5 61.5q0 38 -28 64t-69 26q-38 0 -65 -26.5z" />
    <glyph glyph-name="guillemotright" unicode="&#xbb;" horiz-adv-x="318" 
d="M54 370l23 21l117 -135l-117 -135l-23 21l96 114zM150 370l23 21l117 -135l-117 -135l-23 21l96 114z" />
    <glyph glyph-name="onequarter" unicode="&#xbc;" horiz-adv-x="744" 
d="M187 -14l-25 15l357 617l26 -15zM92 603h76v-358h-27v331h-61zM664 66h-53v-66h-27v66h-207v3l229 305h5v-281h53v-27zM580 294l-149 -198v-3h153v201h-4z" />
    <glyph glyph-name="onehalf" unicode="&#xbd;" horiz-adv-x="744" 
d="M152 -14l-26 15l358 617l26 -15zM92 603h76v-358h-27v331h-61zM662 0h-241l145 148q32 32 51.5 59t19.5 55q0 35 -26 56t-65 21q-40 0 -65 -21.5t-25 -57.5h-27q1 22 6 38t19 30q16 18 41.5 28t50.5 10q49 0 83.5 -30t34.5 -75q0 -33 -19 -62t-51 -61l-109 -111h177v-27z
" />
    <glyph glyph-name="threequarters" unicode="&#xbe;" horiz-adv-x="744" 
d="M230 -14l-26 15l358 617l25 -15zM216 467q23 20 23 52q0 29 -21.5 47t-54.5 18q-34 0 -53 -16t-20 -46h-28q4 41 30.5 65t71.5 24q42 0 72 -27t30 -66q0 -27 -15.5 -49.5t-43.5 -34.5q29 -10 47 -34.5t18 -53.5q0 -45 -33 -75.5t-82 -30.5q-45 0 -77 26.5t-32 67.5h27
q4 -32 25 -49.5t56 -17.5q38 0 63.5 22t25.5 56t-25 54.5t-62 20.5v27q35 0 58 20zM696 66h-53v-66h-27v66h-207v3l229 305h5v-281h53v-27zM612 294l-149 -198v-3h153v201h-4z" />
    <glyph glyph-name="questiondown" unicode="&#xbf;" horiz-adv-x="393" 
d="M221.5 368.5q9.5 -9.5 9.5 -23.5t-9.5 -23.5t-23.5 -9.5t-23 9.5t-9 23.5t9.5 23.5t22.5 9.5q14 0 23.5 -9.5zM104 219q35 37 92 37q53 0 89.5 -34t36.5 -85q0 -52 -30 -80.5t-84 -42.5q-42 -11 -65 -21t-37.5 -31t-14.5 -58q0 -46 30 -78t77 -32q45 0 74.5 29t29.5 73
q0 25 -4 42h36q6 -24 6 -51q0 -37 -20 -66.5t-52.5 -46t-70.5 -16.5q-65 0 -104.5 40t-39.5 104t33.5 95.5t99.5 48.5q32 8 52 16t33 25.5t13 46.5q0 37 -25.5 61.5t-64.5 24.5t-62 -27.5t-22 -65.5h-39q-2 55 33 92z" />
    <glyph glyph-name="Agrave" unicode="&#xc0;" horiz-adv-x="513" 
d="M321 659l-31 -13l-99 116l49 15zM43 0h-39l253 623l252 -623h-39l-81 198h-265zM138 234h236l-117 292z" />
    <glyph glyph-name="Aacute" unicode="&#xc1;" horiz-adv-x="513" 
d="M222 646l-31 13l81 118l49 -15zM43 0h-39l253 623l252 -623h-39l-81 198h-265zM138 234h236l-117 292z" />
    <glyph glyph-name="Acircumflex" unicode="&#xc2;" horiz-adv-x="513" 
d="M367 676l-30 -23l-80 61l-82 -61l-29 23l111 85zM43 0h-39l253 623l252 -623h-39l-81 198h-265zM138 234h236l-117 292z" />
    <glyph glyph-name="Atilde" unicode="&#xc3;" horiz-adv-x="513" 
d="M165.5 728q16.5 15 37.5 15q20 0 56 -15q7 -3 23 -9.5t28 -6.5q13 0 23 9.5t15 23.5l23 -18q-5 -22 -24 -37t-41 -15q-9 0 -23 5t-29 11q-36 16 -54 16q-25 0 -35 -33l-24 18q8 21 24.5 36zM43 0h-39l253 623l252 -623h-39l-81 198h-265zM138 234h236l-117 292z" />
    <glyph glyph-name="Adieresis" unicode="&#xc4;" horiz-adv-x="513" 
d="M204.5 735.5q9.5 -9.5 9.5 -22.5t-9.5 -22.5t-22.5 -9.5t-22.5 9.5t-9.5 22.5t9.5 22.5t22.5 9.5t22.5 -9.5zM353.5 735.5q9.5 -9.5 9.5 -22.5t-9 -22.5t-23 -9.5q-13 0 -22.5 9.5t-9.5 22.5t9.5 22.5t22.5 9.5t22.5 -9.5zM43 0h-39l253 623l252 -623h-39l-81 198h-265z
M138 234h236l-117 292z" />
    <glyph glyph-name="Aring" unicode="&#xc5;" horiz-adv-x="513" 
d="M306 756.5q20 -20.5 20 -49.5q0 -28 -20 -48.5t-49 -20.5t-49.5 20t-20.5 49t20.5 49.5t49.5 20.5t49 -20.5zM230 734q-11 -11 -11 -27t11 -26.5t27 -10.5t26.5 10.5t10.5 26.5t-10.5 27t-26.5 11t-27 -11zM43 0h-39l253 623l252 -623h-39l-81 198h-265zM138 234h236
l-117 292z" />
    <glyph glyph-name="AE" unicode="&#xc6;" horiz-adv-x="754" 
d="M47 0h-43l243 603h263l14 -36h-249l90 -219h242l15 -36h-242l112 -276h250l14 -36h-292l-80 198h-258zM141 234h228l-115 284z" />
    <glyph glyph-name="Ccedilla" unicode="&#xc7;" horiz-adv-x="591" 
d="M454 549q-56 26 -112 26q-74 0 -137 -38t-100.5 -102t-37.5 -137q0 -52 21.5 -100.5t59.5 -86.5q39 -37 90.5 -60t103.5 -23q53 0 111 26t91 66v-53q-91 -75 -201 -75q-83 0 -155 42t-115.5 113t-43.5 154q0 84 43 155t115.5 113t156.5 42q55 0 107 -20.5t93 -57.5v-53
q-34 43 -90 69zM236 -131l74 115l45 -18l-89 -112z" />
    <glyph glyph-name="Egrave" unicode="&#xc8;" horiz-adv-x="406" 
d="M267 659l-30 -13l-99 116l48 15zM103 348h243v-36h-243v-276h250v-36h-288v603h288v-36h-250v-219z" />
    <glyph glyph-name="Eacute" unicode="&#xc9;" horiz-adv-x="406" 
d="M184 646l-30 13l80 118l49 -15zM103 348h243v-36h-243v-276h250v-36h-288v603h288v-36h-250v-219z" />
    <glyph glyph-name="Ecircumflex" unicode="&#xca;" horiz-adv-x="406" 
d="M314 676l-31 -23l-80 61l-81 -61l-29 23l110 85zM103 348h243v-36h-243v-276h250v-36h-288v603h288v-36h-250v-219z" />
    <glyph glyph-name="Edieresis" unicode="&#xcb;" horiz-adv-x="406" 
d="M150.5 735.5q9.5 -9.5 9.5 -22.5t-9 -22.5t-23 -9.5q-13 0 -22.5 9.5t-9.5 22.5t9.5 22.5t22.5 9.5t22.5 -9.5zM300.5 735.5q9.5 -9.5 9.5 -22.5t-9.5 -22.5t-22.5 -9.5t-22.5 9.5t-9.5 22.5t9.5 22.5t22.5 9.5t22.5 -9.5zM103 348h243v-36h-243v-276h250v-36h-288v603
h288v-36h-250v-219z" />
    <glyph glyph-name="Igrave" unicode="&#xcc;" horiz-adv-x="168" 
d="M149 659l-31 -13l-99 116l49 15zM65 0v603h38v-603h-38z" />
    <glyph glyph-name="Iacute" unicode="&#xcd;" horiz-adv-x="168" 
d="M50 646l-31 13l81 118l49 -15zM65 0v603h38v-603h-38z" />
    <glyph glyph-name="Icircumflex" unicode="&#xce;" horiz-adv-x="168" 
d="M194 676l-30 -23l-80 61l-82 -61l-28 23l110 85zM65 0v603h38v-603h-38z" />
    <glyph glyph-name="Idieresis" unicode="&#xcf;" horiz-adv-x="168" 
d="M32.5 735.5q9.5 -9.5 9.5 -22.5t-9.5 -22.5t-22.5 -9.5q-14 0 -23 9.5t-9 22.5t9.5 22.5t22.5 9.5t22.5 -9.5zM181.5 735.5q9.5 -9.5 9.5 -22.5t-9 -22.5t-23 -9.5q-13 0 -22.5 9.5t-9.5 22.5t9.5 22.5t22.5 9.5t22.5 -9.5zM65 0v603h38v-603h-38z" />
    <glyph glyph-name="Eth" unicode="&#xd0;" horiz-adv-x="522" 
d="M0 311v36h65v256h109q72 0 124.5 -16t99.5 -60t71.5 -102.5t24.5 -123.5q0 -63 -24 -120.5t-69 -100.5q-48 -45 -101.5 -62.5t-125.5 -17.5h-109v311h-65zM242 347v-36h-139v-275h70q64 0 112.5 16t89.5 57q38 38 59 88t21 104q0 58 -22.5 110t-64.5 91q-41 37 -87.5 51
t-107.5 14h-70v-220h139z" />
    <glyph glyph-name="Ntilde" unicode="&#xd1;" horiz-adv-x="674" 
d="M246.5 728q16.5 15 37.5 15q12 0 27 -4.5t29 -10.5q6 -2 22 -9t28 -7q14 0 24 9.5t15 23.5l23 -18q-5 -22 -24 -37t-41 -15q-14 0 -52 16q-36 16 -54 16q-25 0 -35 -33l-24 18q8 21 24.5 36zM103 518v-518h-38v611l506 -534v526h39v-623z" />
    <glyph glyph-name="Ograve" unicode="&#xd2;" horiz-adv-x="683" 
d="M406 659l-30 -13l-99 116l49 15zM497 569q72 -42 114.5 -113t42.5 -154t-42.5 -154.5t-114.5 -113.5t-155 -42q-84 0 -156 42t-114.5 113.5t-42.5 154.5t42.5 154t114.5 113t156 42q83 0 155 -42zM204.5 537.5q-63.5 -37.5 -100.5 -100t-37 -135.5t37 -136t100.5 -100.5
t137.5 -37.5q73 0 136 37.5t100.5 100.5t37.5 136t-37.5 135.5t-100.5 100t-136 37.5q-74 0 -137.5 -37.5z" />
    <glyph glyph-name="Oacute" unicode="&#xd3;" horiz-adv-x="683" 
d="M307 646l-30 13l81 118l48 -15zM497 569q72 -42 114.5 -113t42.5 -154t-42.5 -154.5t-114.5 -113.5t-155 -42q-84 0 -156 42t-114.5 113.5t-42.5 154.5t42.5 154t114.5 113t156 42q83 0 155 -42zM204.5 537.5q-63.5 -37.5 -100.5 -100t-37 -135.5t37 -136t100.5 -100.5
t137.5 -37.5q73 0 136 37.5t100.5 100.5t37.5 136t-37.5 135.5t-100.5 100t-136 37.5q-74 0 -137.5 -37.5z" />
    <glyph glyph-name="Ocircumflex" unicode="&#xd4;" horiz-adv-x="683" 
d="M452 676l-30 -23l-80 61l-82 -61l-29 23l111 85zM497 569q72 -42 114.5 -113t42.5 -154t-42.5 -154.5t-114.5 -113.5t-155 -42q-84 0 -156 42t-114.5 113.5t-42.5 154.5t42.5 154t114.5 113t156 42q83 0 155 -42zM204.5 537.5q-63.5 -37.5 -100.5 -100t-37 -135.5
t37 -136t100.5 -100.5t137.5 -37.5q73 0 136 37.5t100.5 100.5t37.5 136t-37.5 135.5t-100.5 100t-136 37.5q-74 0 -137.5 -37.5z" />
    <glyph glyph-name="Otilde" unicode="&#xd5;" horiz-adv-x="683" 
d="M251.5 728.5q16.5 14.5 37.5 14.5q12 0 27 -4.5t29 -10.5q6 -2 22 -9t28 -7q13 0 23.5 9.5t15.5 23.5l23 -18q-5 -22 -24 -37t-41 -15q-14 0 -52 16q-36 16 -54 16q-24 0 -36 -33l-24 18q9 22 25.5 36.5zM497 569q72 -42 114.5 -113t42.5 -154t-42.5 -154.5
t-114.5 -113.5t-155 -42q-84 0 -156 42t-114.5 113.5t-42.5 154.5t42.5 154t114.5 113t156 42q83 0 155 -42zM204.5 537.5q-63.5 -37.5 -100.5 -100t-37 -135.5t37 -136t100.5 -100.5t137.5 -37.5q73 0 136 37.5t100.5 100.5t37.5 136t-37.5 135.5t-100.5 100t-136 37.5
q-74 0 -137.5 -37.5z" />
    <glyph glyph-name="Odieresis" unicode="&#xd6;" horiz-adv-x="683" 
d="M289.5 735.5q9.5 -9.5 9.5 -22.5t-9 -22.5t-23 -9.5q-13 0 -22.5 9.5t-9.5 22.5t9.5 22.5t22.5 9.5t22.5 -9.5zM439.5 735.5q9.5 -9.5 9.5 -22.5t-9.5 -22.5t-22.5 -9.5t-22.5 9.5t-9.5 22.5t9.5 22.5t22.5 9.5t22.5 -9.5zM497 569q72 -42 114.5 -113t42.5 -154
t-42.5 -154.5t-114.5 -113.5t-155 -42q-84 0 -156 42t-114.5 113.5t-42.5 154.5t42.5 154t114.5 113t156 42q83 0 155 -42zM204.5 537.5q-63.5 -37.5 -100.5 -100t-37 -135.5t37 -136t100.5 -100.5t137.5 -37.5q73 0 136 37.5t100.5 100.5t37.5 136t-37.5 135.5t-100.5 100
t-136 37.5q-74 0 -137.5 -37.5z" />
    <glyph glyph-name="multiply" unicode="&#xd7;" 
d="M67 410l181 -181l181 181l24 -28l-179 -177l179 -179l-24 -26l-181 180l-180 -180l-25 26l180 179l-180 177z" />
    <glyph glyph-name="Oslash" unicode="&#xd8;" horiz-adv-x="683" 
d="M50.5 190.5q-21.5 53.5 -21.5 111.5q0 83 42.5 154t114.5 113t156 42q58 0 111 -21t95 -58l73 73l23 -21l-74 -74q40 -42 62 -95.5t22 -112.5q0 -83 -42.5 -154.5t-114.5 -113.5t-155 -42q-59 0 -113 21t-95 60l-73 -73l-22 23l72 72q-39 42 -60.5 95.5zM438.5 557
q-46.5 18 -96.5 18q-74 0 -137.5 -37.5t-100.5 -100t-37 -135.5q0 -51 18.5 -97.5t51.5 -83.5l385 385q-37 33 -83.5 51zM244 46.5q47 -18.5 98 -18.5q73 0 136 37.5t100.5 100.5t37.5 136q0 51 -19 98.5t-53 83.5l-385 -386q38 -33 85 -51.5z" />
    <glyph glyph-name="Ugrave" unicode="&#xd9;" horiz-adv-x="528" 
d="M317 659l-31 -13l-99 116l49 15zM469 603v-376q0 -59 -7 -95t-34 -70q-30 -34 -73.5 -52t-90.5 -18t-90.5 18t-73.5 52q-27 34 -34 70t-7 95v376h39v-365q0 -55 5 -90t26 -62t59.5 -42.5t75.5 -15.5t75.5 15.5t59.5 42.5t26 62t5 90v365h39z" />
    <glyph glyph-name="Uacute" unicode="&#xda;" horiz-adv-x="528" 
d="M242 646l-31 13l81 118l49 -15zM469 603v-376q0 -59 -7 -95t-34 -70q-30 -34 -73.5 -52t-90.5 -18t-90.5 18t-73.5 52q-27 34 -34 70t-7 95v376h39v-365q0 -55 5 -90t26 -62t59.5 -42.5t75.5 -15.5t75.5 15.5t59.5 42.5t26 62t5 90v365h39z" />
    <glyph glyph-name="Ucircumflex" unicode="&#xdb;" horiz-adv-x="528" 
d="M374 676l-30 -23l-80 61l-82 -61l-28 23l110 85zM469 603v-376q0 -59 -7 -95t-34 -70q-30 -34 -73.5 -52t-90.5 -18t-90.5 18t-73.5 52q-27 34 -34 70t-7 95v376h39v-365q0 -55 5 -90t26 -62t59.5 -42.5t75.5 -15.5t75.5 15.5t59.5 42.5t26 62t5 90v365h39z" />
    <glyph glyph-name="Udieresis" unicode="&#xdc;" horiz-adv-x="528" 
d="M212.5 735.5q9.5 -9.5 9.5 -22.5t-9.5 -22.5t-22.5 -9.5t-22.5 9.5t-9.5 22.5t9.5 22.5t22.5 9.5t22.5 -9.5zM361.5 735.5q9.5 -9.5 9.5 -22.5t-9 -22.5t-23 -9.5q-13 0 -22.5 9.5t-9.5 22.5t9.5 22.5t22.5 9.5t22.5 -9.5zM469 603v-376q0 -59 -7 -95t-34 -70
q-30 -34 -73.5 -52t-90.5 -18t-90.5 18t-73.5 52q-27 34 -34 70t-7 95v376h39v-365q0 -55 5 -90t26 -62t59.5 -42.5t75.5 -15.5t75.5 15.5t59.5 42.5t26 62t5 90v365h39z" />
    <glyph glyph-name="Yacute" unicode="&#xdd;" horiz-adv-x="447" 
d="M213 646l-31 13l81 118l49 -15zM46 603l177 -305l178 305h42l-201 -345v-258h-38v258l-201 345h43z" />
    <glyph glyph-name="Thorn" unicode="&#xde;" horiz-adv-x="378" 
d="M103 603v-128h68q43 0 74 -6.5t57 -28.5q26 -23 40 -55.5t14 -68.5q0 -34 -13 -66.5t-37 -52.5q-45 -39 -135 -39h-68v-158h-38v603h38zM231.5 201q25.5 7 46.5 26q40 36 40 91q0 29 -12 55t-34 42q-20 15 -45 19.5t-61 4.5h-63v-245h70q33 0 58.5 7z" />
    <glyph glyph-name="germandbls" unicode="&#xdf;" horiz-adv-x="427" 
d="M22 336v34h40v150q0 34 5.5 59.5t21.5 45.5q18 22 46.5 33.5t59.5 11.5q56 0 91.5 -37t35.5 -92q0 -37 -18.5 -67t-51.5 -42v-2q44 -12 78 -43.5t53 -75t19 -89.5q0 -59 -29.5 -109t-79.5 -81.5t-108 -36.5v34q49 7 90.5 33.5t66 68t24.5 91.5q0 79 -51 130t-130 59v34
q45 1 73 28t28 72q0 41 -27.5 66.5t-68.5 25.5q-24 0 -45 -10t-32 -29q-10 -16 -12.5 -38t-2.5 -53v-507h-36v336h-40z" />
    <glyph glyph-name="agrave" unicode="&#xe0;" horiz-adv-x="448" 
d="M277 454l-31 -14l-99 116l49 15zM350 0v66h-1q-20 -34 -59.5 -54t-81.5 -20q-55 0 -96 26t-63.5 70.5t-22.5 98.5t22 97.5t63 68.5t95 25q43 0 81.5 -19t61.5 -53h1v64h36v-370h-36zM131.5 322q-32.5 -22 -51 -58.5t-18.5 -76.5q0 -43 18 -80t51 -59t76 -22
q68 0 107 47.5t39 117.5q0 66 -41 109.5t-107 43.5q-41 0 -73.5 -22z" />
    <glyph glyph-name="aacute" unicode="&#xe1;" horiz-adv-x="448" 
d="M202 440l-31 14l81 117l49 -15zM350 0v66h-1q-20 -34 -59.5 -54t-81.5 -20q-55 0 -96 26t-63.5 70.5t-22.5 98.5t22 97.5t63 68.5t95 25q43 0 81.5 -19t61.5 -53h1v64h36v-370h-36zM131.5 322q-32.5 -22 -51 -58.5t-18.5 -76.5q0 -43 18 -80t51 -59t76 -22q68 0 107 47.5
t39 117.5q0 66 -41 109.5t-107 43.5q-41 0 -73.5 -22z" />
    <glyph glyph-name="acircumflex" unicode="&#xe2;" horiz-adv-x="448" 
d="M334 470l-30 -23l-80 62l-82 -62l-28 23l110 85zM350 0v66h-1q-20 -34 -59.5 -54t-81.5 -20q-55 0 -96 26t-63.5 70.5t-22.5 98.5t22 97.5t63 68.5t95 25q43 0 81.5 -19t61.5 -53h1v64h36v-370h-36zM131.5 322q-32.5 -22 -51 -58.5t-18.5 -76.5q0 -43 18 -80t51 -59
t76 -22q68 0 107 47.5t39 117.5q0 66 -41 109.5t-107 43.5q-41 0 -73.5 -22z" />
    <glyph glyph-name="atilde" unicode="&#xe3;" horiz-adv-x="448" 
d="M134 522.5q17 15.5 37 15.5q22 0 56 -16q7 -3 23 -9.5t28 -6.5q13 0 23 9.5t15 23.5l23 -17q-5 -22 -24 -37t-41 -15q-9 0 -23 5t-29 11q-36 16 -54 16q-25 0 -35 -33l-24 17q8 21 25 36.5zM350 0v66h-1q-20 -34 -59.5 -54t-81.5 -20q-55 0 -96 26t-63.5 70.5t-22.5 98.5
t22 97.5t63 68.5t95 25q43 0 81.5 -19t61.5 -53h1v64h36v-370h-36zM131.5 322q-32.5 -22 -51 -58.5t-18.5 -76.5q0 -43 18 -80t51 -59t76 -22q68 0 107 47.5t39 117.5q0 66 -41 109.5t-107 43.5q-41 0 -73.5 -22z" />
    <glyph glyph-name="adieresis" unicode="&#xe4;" horiz-adv-x="448" 
d="M172.5 529.5q9.5 -9.5 9.5 -22.5t-9.5 -22.5t-22.5 -9.5t-22.5 9.5t-9.5 22.5q0 14 9.5 23t22.5 9t22.5 -9.5zM322 530q9 -9 9 -23q0 -13 -9.5 -22.5t-22.5 -9.5t-22.5 9.5t-9.5 22.5t9.5 22.5t22.5 9.5q14 0 23 -9zM350 0v66h-1q-20 -34 -59.5 -54t-81.5 -20
q-55 0 -96 26t-63.5 70.5t-22.5 98.5t22 97.5t63 68.5t95 25q43 0 81.5 -19t61.5 -53h1v64h36v-370h-36zM131.5 322q-32.5 -22 -51 -58.5t-18.5 -76.5q0 -43 18 -80t51 -59t76 -22q68 0 107 47.5t39 117.5q0 66 -41 109.5t-107 43.5q-41 0 -73.5 -22z" />
    <glyph glyph-name="aring" unicode="&#xe5;" horiz-adv-x="448" 
d="M273.5 550.5q20.5 -20.5 20.5 -48.5q0 -29 -20.5 -49.5t-49.5 -20.5t-49.5 20.5t-20.5 49.5q0 28 20.5 48.5t49.5 20.5t49.5 -20.5zM197 528q-11 -11 -11 -26q0 -16 11 -27t27 -11t27 11t11 27q0 15 -11 26t-27 11t-27 -11zM350 0v66h-1q-20 -34 -59.5 -54t-81.5 -20
q-55 0 -96 26t-63.5 70.5t-22.5 98.5t22 97.5t63 68.5t95 25q43 0 81.5 -19t61.5 -53h1v64h36v-370h-36zM131.5 322q-32.5 -22 -51 -58.5t-18.5 -76.5q0 -43 18 -80t51 -59t76 -22q68 0 107 47.5t39 117.5q0 66 -41 109.5t-107 43.5q-41 0 -73.5 -22z" />
    <glyph glyph-name="ae" unicode="&#xe6;" horiz-adv-x="679" 
d="M571 17.5q-43 -25.5 -94 -25.5q-48 0 -90.5 24.5t-60.5 66.5h-2q-12 -45 -56.5 -68t-97.5 -23q-37 0 -72 12.5t-58 38.5t-23 64q0 58 49.5 87t111.5 29q74 0 119 -39q1 70 -31 115t-100 45q-54 0 -124 -34v37q59 31 131 31q51 0 89 -27t56 -76q19 46 62.5 74.5t93.5 28.5
q54 0 95 -27t62.5 -72t22.5 -98h-321q1 -42 19.5 -77.5t51 -56.5t74.5 -21q41 0 76 23t56 60l32 -21q-28 -45 -71 -70.5zM593.5 278q-20.5 30 -51 48t-65.5 18q-37 0 -69 -18t-52 -47.5t-23 -64.5h285q-4 34 -24.5 64zM91.5 170.5q-38.5 -19.5 -38.5 -62.5q0 -45 35.5 -63.5
t85.5 -18.5q44 0 83.5 20.5t39.5 61.5q0 42 -36 62t-83 20q-48 0 -86.5 -19.5z" />
    <glyph glyph-name="ccedilla" unicode="&#xe7;" horiz-adv-x="382" 
d="M214 344q-42 0 -77 -22t-55 -58t-20 -78t20 -79t54.5 -59t77.5 -22q39 0 74.5 17.5t61.5 48.5v-49q-59 -51 -135 -51q-53 0 -96.5 26t-68 70.5t-24.5 97.5t25 97t68.5 69.5t96.5 25.5q74 0 129 -46v-48q-55 60 -131 60zM131 -131l75 115l44 -18l-88 -112z" />
    <glyph glyph-name="egrave" unicode="&#xe8;" horiz-adv-x="408" 
d="M257 454l-31 -14l-99 116l49 15zM80 100.5q19 -35.5 53 -55t77 -19.5q42 0 76 22.5t54 61.5l30 -18q-25 -48 -67.5 -74t-97.5 -26q-53 0 -94 26t-63 70.5t-22 97.5q0 52 22.5 96t63.5 70t93 26q54 0 94.5 -26.5t62 -71t20.5 -98.5h-320q-1 -46 18 -81.5zM300.5 306
q-39.5 38 -94.5 38q-37 0 -69 -17.5t-52 -47t-23 -64.5h284q-6 53 -45.5 91z" />
    <glyph glyph-name="eacute" unicode="&#xe9;" horiz-adv-x="408" 
d="M182 440l-31 14l81 117l49 -15zM80 100.5q19 -35.5 53 -55t77 -19.5q42 0 76 22.5t54 61.5l30 -18q-25 -48 -67.5 -74t-97.5 -26q-53 0 -94 26t-63 70.5t-22 97.5q0 52 22.5 96t63.5 70t93 26q54 0 94.5 -26.5t62 -71t20.5 -98.5h-320q-1 -46 18 -81.5zM300.5 306
q-39.5 38 -94.5 38q-37 0 -69 -17.5t-52 -47t-23 -64.5h284q-6 53 -45.5 91z" />
    <glyph glyph-name="ecircumflex" unicode="&#xea;" horiz-adv-x="408" 
d="M314 470l-30 -23l-80 62l-82 -62l-28 23l110 85zM80 100.5q19 -35.5 53 -55t77 -19.5q42 0 76 22.5t54 61.5l30 -18q-25 -48 -67.5 -74t-97.5 -26q-53 0 -94 26t-63 70.5t-22 97.5q0 52 22.5 96t63.5 70t93 26q54 0 94.5 -26.5t62 -71t20.5 -98.5h-320q-1 -46 18 -81.5z
M300.5 306q-39.5 38 -94.5 38q-37 0 -69 -17.5t-52 -47t-23 -64.5h284q-6 53 -45.5 91z" />
    <glyph glyph-name="edieresis" unicode="&#xeb;" horiz-adv-x="408" 
d="M152.5 529.5q9.5 -9.5 9.5 -22.5t-9.5 -22.5t-22.5 -9.5t-22.5 9.5t-9.5 22.5q0 14 9.5 23t22.5 9t22.5 -9.5zM302 530q9 -9 9 -23q0 -13 -9.5 -22.5t-22.5 -9.5t-22.5 9.5t-9.5 22.5t9.5 22.5t22.5 9.5q14 0 23 -9zM80 100.5q19 -35.5 53 -55t77 -19.5q42 0 76 22.5
t54 61.5l30 -18q-25 -48 -67.5 -74t-97.5 -26q-53 0 -94 26t-63 70.5t-22 97.5q0 52 22.5 96t63.5 70t93 26q54 0 94.5 -26.5t62 -71t20.5 -98.5h-320q-1 -46 18 -81.5zM300.5 306q-39.5 38 -94.5 38q-37 0 -69 -17.5t-52 -47t-23 -64.5h284q-6 53 -45.5 91z" />
    <glyph glyph-name="igrave" unicode="&#xec;" horiz-adv-x="187" 
d="M146 454l-31 -14l-99 116l49 15zM75 0v370h36v-370h-36z" />
    <glyph glyph-name="iacute" unicode="&#xed;" horiz-adv-x="187" 
d="M70 440l-30 14l81 117l49 -15zM75 0v370h36v-370h-36z" />
    <glyph glyph-name="icircumflex" unicode="&#xee;" horiz-adv-x="187" 
d="M204 470l-30 -23l-80 62l-82 -62l-29 23l111 85zM75 0v370h36v-370h-36z" />
    <glyph glyph-name="idieresis" unicode="&#xef;" horiz-adv-x="187" 
d="M42 530q9 -9 9 -23q0 -13 -9.5 -22.5t-22.5 -9.5t-22.5 9.5t-9.5 22.5t9.5 22.5t22.5 9.5q14 0 23 -9zM191.5 529.5q9.5 -9.5 9.5 -22.5t-9.5 -22.5t-22.5 -9.5t-22.5 9.5t-9.5 22.5q0 14 9.5 23t22.5 9t22.5 -9.5zM75 0v370h36v-370h-36z" />
    <glyph glyph-name="eth" unicode="&#xf0;" horiz-adv-x="438" 
d="M208 586l124 70l20 -26l-118 -66q83 -72 130.5 -163t47.5 -193q0 -72 -27.5 -121t-71.5 -72t-95 -23q-53 0 -97 26t-69.5 70.5t-25.5 96.5q0 51 25.5 95.5t70 71t98.5 26.5q76 0 135 -56q-23 65 -56 116t-97 108l-116 -66l-20 27l109 60q-44 36 -104 71l26 24
q63 -37 111 -76zM137 322q-35 -22 -55 -58.5t-20 -79.5q0 -42 20 -78t55.5 -58t77.5 -22q45 0 82 20.5t58 57t21 80.5q0 45 -21 81.5t-58 57.5t-82 21q-43 0 -78 -22z" />
    <glyph glyph-name="ntilde" unicode="&#xf1;" horiz-adv-x="392" 
d="M106 522.5q17 15.5 37 15.5q22 0 56 -16q7 -3 23 -9.5t28 -6.5q13 0 23 9.5t15 23.5l23 -17q-5 -22 -24 -37t-41 -15q-9 0 -23 5t-29 11q-36 16 -54 16q-25 0 -35 -33l-24 17q8 21 25 36.5zM99 312q17 31 45.5 48.5t64.5 17.5q67 0 94 -39t27 -116v-223h-36v223
q0 60 -16.5 90.5t-71.5 30.5q-63 0 -85.5 -45.5t-22.5 -116.5v-182h-36v370h36v-58h1z" />
    <glyph glyph-name="ograve" unicode="&#xf2;" horiz-adv-x="438" 
d="M271 454l-30 -14l-99 116l48 15zM315.5 352.5q44.5 -25.5 70.5 -69.5t26 -98t-26 -98t-70.5 -69.5t-97.5 -25.5t-97 26t-69.5 70t-25.5 96t25.5 96.5t69.5 71t97 26.5t97.5 -25.5zM137 322q-35 -22 -55 -58.5t-20 -79.5q0 -42 20 -78t55.5 -58t77.5 -22q45 0 82 20.5
t58 57t21 80.5q0 45 -21 81.5t-58 57.5t-82 21q-43 0 -78 -22z" />
    <glyph glyph-name="oacute" unicode="&#xf3;" horiz-adv-x="438" 
d="M196 440l-30 14l80 117l49 -15zM315.5 352.5q44.5 -25.5 70.5 -69.5t26 -98t-26 -98t-70.5 -69.5t-97.5 -25.5t-97 26t-69.5 70t-25.5 96t25.5 96.5t69.5 71t97 26.5t97.5 -25.5zM137 322q-35 -22 -55 -58.5t-20 -79.5q0 -42 20 -78t55.5 -58t77.5 -22q45 0 82 20.5
t58 57t21 80.5q0 45 -21 81.5t-58 57.5t-82 21q-43 0 -78 -22z" />
    <glyph glyph-name="ocircumflex" unicode="&#xf4;" horiz-adv-x="438" 
d="M330 470l-31 -23l-80 62l-81 -62l-29 23l110 85zM315.5 352.5q44.5 -25.5 70.5 -69.5t26 -98t-26 -98t-70.5 -69.5t-97.5 -25.5t-97 26t-69.5 70t-25.5 96t25.5 96.5t69.5 71t97 26.5t97.5 -25.5zM137 322q-35 -22 -55 -58.5t-20 -79.5q0 -42 20 -78t55.5 -58t77.5 -22
q45 0 82 20.5t58 57t21 80.5q0 45 -21 81.5t-58 57.5t-82 21q-43 0 -78 -22z" />
    <glyph glyph-name="otilde" unicode="&#xf5;" horiz-adv-x="438" 
d="M128.5 523q16.5 15 37.5 15q20 0 56 -16q6 -2 22 -9t28 -7q14 0 24 9.5t14 23.5l24 -17q-6 -22 -24.5 -37t-40.5 -15q-14 0 -52 16t-55 16q-23 0 -35 -33l-24 17q9 22 25.5 37zM315.5 352.5q44.5 -25.5 70.5 -69.5t26 -98t-26 -98t-70.5 -69.5t-97.5 -25.5t-97 26
t-69.5 70t-25.5 96t25.5 96.5t69.5 71t97 26.5t97.5 -25.5zM137 322q-35 -22 -55 -58.5t-20 -79.5q0 -42 20 -78t55.5 -58t77.5 -22q45 0 82 20.5t58 57t21 80.5q0 45 -21 81.5t-58 57.5t-82 21q-43 0 -78 -22z" />
    <glyph glyph-name="odieresis" unicode="&#xf6;" horiz-adv-x="438" 
d="M167 530q9 -9 9 -23q0 -13 -9.5 -22.5t-22.5 -9.5t-22.5 9.5t-9.5 22.5q0 14 9.5 23t22.5 9q14 0 23 -9zM316.5 529.5q9.5 -9.5 9.5 -22.5t-9.5 -22.5t-22.5 -9.5t-22.5 9.5t-9.5 22.5q0 14 9.5 23t22.5 9t22.5 -9.5zM315.5 352.5q44.5 -25.5 70.5 -69.5t26 -98t-26 -98
t-70.5 -69.5t-97.5 -25.5t-97 26t-69.5 70t-25.5 96t25.5 96.5t69.5 71t97 26.5t97.5 -25.5zM137 322q-35 -22 -55 -58.5t-20 -79.5q0 -42 20 -78t55.5 -58t77.5 -22q45 0 82 20.5t58 57t21 80.5q0 45 -21 81.5t-58 57.5t-82 21q-43 0 -78 -22z" />
    <glyph glyph-name="divide" unicode="&#xf7;" 
d="M271.5 400.5q9.5 -9.5 9.5 -23.5t-9.5 -23.5t-23.5 -9.5t-23.5 9.5t-9.5 23.5t10 23.5t23 9.5q14 0 23.5 -9.5zM453 224v-38h-410v38h410zM271.5 56.5q9.5 -9.5 9.5 -23.5t-9.5 -23.5t-23.5 -9.5t-23.5 9.5t-9.5 23.5t10 23.5t23 9.5q14 0 23.5 -9.5z" />
    <glyph glyph-name="oslash" unicode="&#xf8;" horiz-adv-x="438" 
d="M37.5 118.5q-11.5 31.5 -11.5 65.5q0 52 25.5 96.5t69.5 71t97 26.5q72 0 124 -44l51 50l22 -23l-49 -50q22 -25 34 -57.5t12 -68.5q0 -54 -26 -98t-70.5 -69.5t-97.5 -25.5q-36 0 -68.5 12.5t-57.5 35.5l-48 -48l-22 22l48 48q-21 25 -32.5 56.5zM215 344q-43 0 -78 -22
t-55 -58.5t-20 -79.5q0 -56 33 -98l223 223q-45 35 -103 35zM215 26q45 0 82 20.5t58 57t21 80.5q0 58 -36 102l-224 -222q41 -38 99 -38z" />
    <glyph glyph-name="ugrave" unicode="&#xf9;" horiz-adv-x="378" 
d="M234 454l-31 -14l-99 116l49 15zM322 148q0 -38 -4 -61.5t-19 -44.5q-18 -24 -48 -37t-62 -13q-33 0 -62.5 12.5t-48.5 37.5q-15 21 -18.5 44t-3.5 62v222h36v-209q0 -43 6.5 -71t27.5 -46t63 -18t63 18t27.5 46t6.5 71v209h36v-222z" />
    <glyph glyph-name="uacute" unicode="&#xfa;" horiz-adv-x="378" 
d="M174 440l-30 14l81 117l49 -15zM322 148q0 -38 -4 -61.5t-19 -44.5q-18 -24 -48 -37t-62 -13q-33 0 -62.5 12.5t-48.5 37.5q-15 21 -18.5 44t-3.5 62v222h36v-209q0 -43 6.5 -71t27.5 -46t63 -18t63 18t27.5 46t6.5 71v209h36v-222z" />
    <glyph glyph-name="ucircumflex" unicode="&#xfb;" horiz-adv-x="378" 
d="M299 470l-30 -23l-80 62l-82 -62l-29 23l111 85zM322 148q0 -38 -4 -61.5t-19 -44.5q-18 -24 -48 -37t-62 -13q-33 0 -62.5 12.5t-48.5 37.5q-15 21 -18.5 44t-3.5 62v222h36v-209q0 -43 6.5 -71t27.5 -46t63 -18t63 18t27.5 46t6.5 71v209h36v-222z" />
    <glyph glyph-name="udieresis" unicode="&#xfc;" horiz-adv-x="378" 
d="M137 530q9 -9 9 -23q0 -13 -9.5 -22.5t-22.5 -9.5t-22.5 9.5t-9.5 22.5t9.5 22.5t22.5 9.5q14 0 23 -9zM287 530q9 -9 9 -23q0 -13 -9.5 -22.5t-22.5 -9.5t-22.5 9.5t-9.5 22.5q0 14 9.5 23t22.5 9q14 0 23 -9zM322 148q0 -38 -4 -61.5t-19 -44.5q-18 -24 -48 -37
t-62 -13q-33 0 -62.5 12.5t-48.5 37.5q-15 21 -18.5 44t-3.5 62v222h36v-209q0 -43 6.5 -71t27.5 -46t63 -18t63 18t27.5 46t6.5 71v209h36v-222z" />
    <glyph glyph-name="yacute" unicode="&#xfd;" horiz-adv-x="368" 
d="M174 440l-31 14l81 117l49 -15zM32 370l158 -335l141 335h37l-248 -586h-37l89 210l-178 376h38z" />
    <glyph glyph-name="thorn" unicode="&#xfe;" horiz-adv-x="448" 
d="M62 -216v876h36v-357h1q20 34 59.5 54.5t81.5 20.5q55 0 96.5 -26t63.5 -71t22 -99t-22 -97.5t-63 -68t-95 -24.5q-44 0 -82 18.5t-61 53.5h-1v-280h-36zM134 295.5q-39 -48.5 -39 -118.5q0 -66 41 -108.5t106 -42.5q42 0 75 21t51 56.5t18 77.5q0 43 -18 80.5t-51 60
t-76 22.5q-68 0 -107 -48.5z" />
    <glyph glyph-name="ydieresis" unicode="&#xff;" horiz-adv-x="368" 
d="M136.5 529.5q9.5 -9.5 9.5 -22.5t-9.5 -22.5t-22.5 -9.5t-22.5 9.5t-9.5 22.5q0 14 9.5 23t22.5 9t22.5 -9.5zM286 530q9 -9 9 -23q0 -13 -9.5 -22.5t-22.5 -9.5t-22.5 9.5t-9.5 22.5t9.5 22.5t22.5 9.5q14 0 23 -9zM32 370l158 -335l141 335h37l-248 -586h-37l89 210
l-178 376h38z" />
    <glyph glyph-name="dotlessi" unicode="&#x131;" horiz-adv-x="187" 
d="M75 0v370h36v-370h-36z" />
    <glyph glyph-name="Lslash" unicode="&#x141;" horiz-adv-x="262" 
d="M0 238v39l65 45v281h38v-254l103 71v-39l-103 -71v-274h154v-36h-192v283z" />
    <glyph glyph-name="lslash" unicode="&#x142;" horiz-adv-x="183" 
d="M14 270v36l60 43v311h36v-286l60 43v-36l-60 -43v-338h-36v313z" />
    <glyph glyph-name="OE" unicode="&#x152;" horiz-adv-x="954" 
d="M612 155q-36 -75 -111 -119t-160 -44q-59 0 -116 23t-100 64q-46 44 -71 101.5t-25 121.5q0 84 43 155t115.5 112.5t156.5 41.5t157.5 -45t110.5 -120h2v157h288v-36h-250v-219h244v-36h-244v-276h250v-36h-288v155h-2zM206.5 537.5q-63.5 -37.5 -101.5 -100t-38 -135.5
q0 -55 22 -106.5t62 -89.5q38 -36 88 -57t103 -21q54 0 106 22.5t90 62.5q37 38 56 86.5t19 102.5q0 73 -36 136t-98 100t-136 37q-73 0 -136.5 -37.5z" />
    <glyph glyph-name="oe" unicode="&#x153;" horiz-adv-x="756" 
d="M427.5 104q18.5 -36 53 -57t76.5 -21q45 0 78 22t52 63l31 -18q-24 -49 -67 -75t-97 -26t-98 30t-63 79q-23 -49 -70.5 -79t-102.5 -30q-53 0 -97.5 25.5t-70.5 69.5t-26 97q0 54 26.5 98.5t71.5 70t98 25.5q54 0 101.5 -29.5t69.5 -78.5q19 50 62 79t98 29t95.5 -26
t61.5 -70.5t20 -99.5h-319q-2 -42 16.5 -78zM139.5 322.5q-36.5 -21.5 -57 -58.5t-20.5 -82q0 -41 21 -77t56.5 -57.5t77.5 -21.5q43 0 79.5 21t57.5 57.5t21 79.5t-20.5 79.5t-55.5 58.5t-78 22q-45 0 -81.5 -21.5zM648.5 306q-39.5 38 -94.5 38q-56 0 -97 -38t-46 -91h283
q-6 53 -45.5 91z" />
    <glyph glyph-name="Scaron" unicode="&#x160;" horiz-adv-x="435" 
d="M115 738l31 23l80 -61l81 61l29 -23l-110 -85zM222 575q-48 0 -81 -33.5t-33 -81.5q0 -29 16 -50t37 -34t56 -29l115 -60q35 -22 52 -50.5t17 -69.5q0 -49 -26.5 -89t-70 -63t-92.5 -23q-62 0 -109.5 35.5t-68.5 94.5l34 15q21 -51 57.5 -80t88.5 -29q39 0 73 19
t54.5 51.5t20.5 71.5q0 31 -18 53.5t-39 35.5t-64 34l-109 57q-62 39 -62 108q0 67 43 110t111 43q46 0 85.5 -23t61.5 -62l-27 -22q-45 71 -122 71z" />
    <glyph glyph-name="scaron" unicode="&#x161;" horiz-adv-x="300" 
d="M40 533l30 22l80 -61l82 61l29 -22l-111 -86zM191 333q-17 11 -39 11q-24 0 -43.5 -17.5t-19.5 -40.5q0 -26 19 -40t57 -27q33 -12 54 -23.5t35.5 -33t14.5 -55.5q0 -50 -34.5 -82.5t-84.5 -32.5q-47 0 -81.5 26.5t-46.5 71.5l36 11q10 -35 33.5 -55t58.5 -20t59 24
t24 59q0 30 -18.5 45.5t-53.5 27.5q-51 18 -79.5 39.5t-28.5 62.5t29.5 67.5t71.5 26.5q28 0 55 -17t39 -43l-31 -16q-9 20 -26 31z" />
    <glyph glyph-name="Ydieresis" unicode="&#x178;" horiz-adv-x="447" 
d="M180.5 735.5q9.5 -9.5 9.5 -22.5t-9 -22.5t-23 -9.5q-13 0 -22.5 9.5t-9.5 22.5t9.5 22.5t22.5 9.5t22.5 -9.5zM330.5 735.5q9.5 -9.5 9.5 -22.5t-9 -22.5t-23 -9.5q-13 0 -22.5 9.5t-9.5 22.5t9.5 22.5t22.5 9.5t22.5 -9.5zM46 603l177 -305l178 305h42l-201 -345v-258
h-38v258l-201 345h43z" />
    <glyph glyph-name="Zcaron" unicode="&#x17d;" horiz-adv-x="454" 
d="M126 738l31 23l80 -61l81 61l29 -23l-110 -85zM434 0h-424l368 567h-333v36h400l-368 -567h357v-36z" />
    <glyph glyph-name="zcaron" unicode="&#x17e;" horiz-adv-x="384" 
d="M102 533l30 22l80 -61l82 61l28 -22l-110 -86zM378 0h-376l303 336h-254v34h329l-302 -336h300v-34z" />
    <glyph glyph-name="florin" unicode="&#x192;" 
d="M381 353h-92l-58 -304q-2 -9 -10.5 -57.5t-34 -76t-66.5 -27.5q-27 0 -64 14l7 33q30 -11 54 -11q17 0 28.5 4t18.5 16q9 15 14.5 33.5t10.5 46.5l63 329h-55l7 36h54l32 171q6 28 11 44.5t13 29.5q12 17 32.5 26.5t42.5 9.5q25 0 52 -12l-7 -32q-21 8 -42 8
q-36 0 -48.5 -21.5t-16.5 -46.5t-5 -32l-27 -145h93z" />
    <glyph glyph-name="circumflex" unicode="&#x2c6;" horiz-adv-x="341" 
d="M281 470l-31 -23l-80 62l-81 -62l-29 23l110 85z" />
    <glyph glyph-name="caron" unicode="&#x2c7;" horiz-adv-x="341" 
d="M60 533l30 22l80 -61l82 61l29 -22l-111 -86z" />
    <glyph glyph-name="uni02C9" unicode="&#x2c9;" horiz-adv-x="365" 
d="M304 503h-244v36h244v-36z" />
    <glyph glyph-name="breve" unicode="&#x2d8;" horiz-adv-x="347" 
d="M124 502q21 -12 50 -12q28 0 49 12t29 37h34q-4 -40 -37 -62.5t-75 -22.5q-43 0 -76 22.5t-38 62.5h35q8 -25 29 -37z" />
    <glyph glyph-name="dotaccent" unicode="&#x2d9;" horiz-adv-x="250" 
d="M148.5 529.5q9.5 -9.5 9.5 -22.5t-9.5 -22.5t-22.5 -9.5t-22.5 9.5t-9.5 22.5q0 14 9.5 23t22.5 9t22.5 -9.5z" />
    <glyph glyph-name="ring" unicode="&#x2da;" horiz-adv-x="259" 
d="M179 551q20 -20 20 -49t-20 -49.5t-49 -20.5t-49.5 20.5t-20.5 49.5t20.5 49t49.5 20t49 -20zM103 528q-11 -11 -11 -26q0 -16 11 -27t27 -11q15 0 26 11t11 27q0 15 -11 26t-26 11q-16 0 -27 -11z" />
    <glyph glyph-name="ogonek" unicode="&#x2db;" horiz-adv-x="257" 
d="M157 0q-62 -47 -62 -84q0 -23 15.5 -35t39.5 -12q13 0 27.5 4t18.5 5l-8 -35q-24 -7 -42 -7q-35 0 -60.5 21.5t-25.5 55.5q0 48 62 89h35v-2z" />
    <glyph glyph-name="tilde" unicode="&#x2dc;" horiz-adv-x="351" 
d="M85 522.5q17 15.5 37 15.5q22 0 56 -16q7 -3 23.5 -9.5t27.5 -6.5q14 0 24 9.5t14 23.5l23 -17q-5 -22 -23.5 -37t-40.5 -15q-14 0 -52 16t-55 16q-23 0 -35 -33l-24 17q8 21 25 36.5z" />
    <glyph glyph-name="hungarumlaut" unicode="&#x2dd;" horiz-adv-x="357" 
d="M91 440l-30 14l81 117l48 -15zM198 440l-31 14l81 117l49 -15z" />
    <glyph glyph-name="uni0302" unicode="&#x302;" horiz-adv-x="0" 
d="M-107 462h-35l-101 83l-95 -83h-41l136 123z" />
    <glyph glyph-name="uni03A9" unicode="&#x3a9;" horiz-adv-x="652" 
d="M99 151q-36 72 -36 163q0 86 35.5 152.5t96.5 103t134 36.5q75 0 134 -39t92.5 -105.5t33.5 -145.5q0 -94 -38.5 -168.5t-92.5 -114.5v-3h144v-30h-202v22q64 39 108.5 115.5t44.5 174.5q-1 62 -27 123t-77 101t-121 40q-68 0 -120 -36t-80.5 -97t-28.5 -133
q0 -63 21.5 -120t56.5 -100.5t74 -67.5v-22h-201v30h142v3q-57 46 -93 118z" />
    <glyph glyph-name="uni03BC" unicode="&#x3bc;" horiz-adv-x="378" 
d="M56 370h36v-183q0 -65 21 -113t76 -48q42 0 63 18t27.5 46t6.5 71v209h36v-222q0 -38 -4 -61.5t-19 -44.5q-18 -24 -48 -37t-62 -13q-28 0 -56.5 17.5t-38.5 48.5h-2v-274h-36v586z" />
    <glyph glyph-name="pi" unicode="&#x3c0;" horiz-adv-x="491" 
d="M388 127q0 -53 3.5 -80t10.5 -47h-36q-14 22 -14 120v290h-188q-5 -100 -26 -228t-45 -182h-36q26 62 46 185t24 225q-46 0 -69 -3t-39 -10l-9 24q38 20 116 20h345l-5 -31h-78v-283z" />
    <glyph glyph-name="uni10D0" unicode="&#x10d0;" horiz-adv-x="418" 
d="M223 347.5q12 -16.5 42 -39.5l39 -24q43 -28 62 -62t19 -80t-24 -82.5t-66 -57t-96 -20.5q-70 0 -115.5 45t-45.5 116q0 21 6 43h39q-6 -24 -6 -44q0 -52 34.5 -88t87.5 -36q38 0 71.5 16.5t53.5 47.5t20 71q0 32 -23 60.5t-57 48.5q-3 2 -18.5 12t-27.5 20t-20 20
q-14 15 -22.5 32t-10.5 49h43q3 -31 15 -47.5z" />
    <glyph glyph-name="uni10D1" unicode="&#x10d1;" horiz-adv-x="469" 
d="M55.5 102q-14.5 36 -14.5 72q0 77 53 129.5t134 66.5q0 14 2 46q2 38 2 65q0 38 -4 52.5t-20.5 21.5t-58.5 11q-7 0 -14 0.5t-30 0.5l-36 -1v-54h-39v134h39v-40h31q57 0 92 -6q47 -8 64.5 -41t17.5 -85q0 -16 -2 -54q0 -7 -1.5 -23t-1.5 -29q83 -17 122 -66
q23 -32 35 -63.5t12 -67.5q0 -51 -22.5 -94.5t-63.5 -69t-96 -25.5q-104 0 -160 57q-26 27 -40.5 63zM124 66q22 -24 58.5 -34t73.5 -10q61 0 100.5 40.5t39.5 107.5q0 68 -39 114t-110 46q-41 0 -80 -20.5t-63.5 -55.5t-24.5 -76q0 -66 45 -112z" />
    <glyph glyph-name="uni10D2" unicode="&#x10d2;" horiz-adv-x="502" 
d="M346 171.5q-2 -13.5 -4.5 -24.5t-4.5 -21q61 -28 98.5 -88.5t37.5 -125.5q0 -58 -29.5 -101t-78 -65.5t-104.5 -22.5t-105.5 21.5t-80.5 64.5t-31 103q0 71 36 119.5t93 74t124 30.5q11 35 11 70q0 128 -92 128q-51 0 -74 -32.5t-23 -95.5q0 -10 3 -31h-43q-2 22 -2 38
q0 66 35 113t99 47q65 0 101 -44.5t36 -126.5q0 -17 -2 -30.5zM192 71.5q-48 -20.5 -79 -60.5t-31 -96q0 -41 22 -76t60.5 -56t87.5 -21q73 0 127.5 37.5t54.5 114.5q0 41 -18.5 80.5t-51 67t-72.5 33.5q-52 -3 -100 -23.5z" />
    <glyph glyph-name="uni10D3" unicode="&#x10d3;" horiz-adv-x="653" 
d="M161 -75q-49 43 -75 76.5t-36 68.5t-10 84q0 70 33 133q21 40 54.5 63t76.5 23q30 0 61.5 -18.5t50.5 -48.5q37 39 68 53.5t65 14.5q78 0 121 -50.5t43 -134.5q0 -90 -46 -140.5t-126 -50.5q-73 0 -115 48t-42 123q0 37 10 89q-4 29 -28 51.5t-62 22.5q-66 0 -102 -74
q-22 -49 -22 -95q0 -54 15 -91t41 -71q28 -33 90 -78q98 -11 150 -23t100 -48t90 -110h-50q-32 57 -71.5 85t-82 37.5t-124.5 17.5l-128 1h-50v42h101zM321 178q0 -64 35 -103.5t92 -39.5q55 0 91 44.5t36 116.5q0 66 -34 103t-87 37q-40 0 -73 -20.5t-46 -58.5
q-14 -37 -14 -79z" />
    <glyph glyph-name="uni10D4" unicode="&#x10d4;" horiz-adv-x="446" 
d="M91 202q0 61 25 101q17 28 53 44t74 16q34 0 65.5 -11.5t52.5 -32.5q29 -28 36.5 -72.5t7.5 -108.5q0 -62 0.5 -93.5t0.5 -47.5q1 -13 1 -34q0 -46 -2.5 -69t-14.5 -58q-8 -24 -22.5 -46.5t-31.5 -33.5q-49 -33 -113 -33q-38 0 -73 13t-58 37q-25 30 -35 59t-10 67
q0 23 4 40t14 47l4 13h43q-14 -32 -19.5 -52t-5.5 -46q0 -33 7.5 -54.5t28.5 -44.5q17 -21 46.5 -30t62.5 -9q47 0 76 23q37 27 49 79t12 123l-1 76q-2 56 -2 89q0 39 -4.5 69.5t-17.5 54.5q-12 22 -41 34.5t-60 12.5q-25 0 -47.5 -7.5t-35.5 -20.5q-29 -33 -29 -90
q0 -40 2 -57h-39q-3 16 -3 53z" />
    <glyph glyph-name="uni10D5" unicode="&#x10d5;" horiz-adv-x="446" 
d="M248 125q49 0 77.5 30t28.5 80q0 59 -37.5 77t-89.5 18q-41 0 -65 -17t-35 -55q-7 -24 -7 -76h-40q0 27 1.5 45t6.5 35q15 49 49.5 79t92.5 30q72 0 118 -36t46 -99q0 -36 -17.5 -71.5t-48.5 -61.5q38 -37 48.5 -73.5t10.5 -102.5q0 -88 -33.5 -145.5t-125.5 -57.5
q-85 0 -134.5 44t-49.5 134q0 23 5 50t6 33h38q-1 -8 -4.5 -31.5t-3.5 -47.5q0 -77 35 -109.5t110 -32.5q67 0 92.5 38t25.5 114q0 59 -5 89t-20 48t-49 31h-34v41h8z" />
    <glyph glyph-name="uni10D6" unicode="&#x10d6;" horiz-adv-x="595" 
d="M84.5 419.5q-43.5 35.5 -43.5 99.5q0 38 19 73t53.5 56.5t79.5 21.5q38 0 72.5 -17.5t56.5 -47.5t22 -66q0 -31 -8 -58.5t-24 -70.5q-16 -37 -26 -74q67 28 112 32q86 -2 126 -58t40 -132q0 -56 -23 -100.5t-66.5 -70t-102.5 -25.5q-51 0 -88.5 27t-57 72t-19.5 96
q0 54 33 149l5 12.5t7 18.5q16 39 18 46q-46 -16 -78 -19q-64 0 -107.5 35.5zM300 529q0 40 -33.5 69t-76.5 29q-41 0 -74 -27t-33 -72q0 -48 28 -76.5t73 -28.5q116 0 116 106zM287 283q-40 -41 -40 -110q0 -34 15.5 -70t44 -60.5t67.5 -24.5q40 0 74.5 20.5t54.5 55.5
t20 77q0 66 -29.5 108t-95.5 49q-71 -4 -111 -45z" />
    <glyph glyph-name="uni10D7" unicode="&#x10d7;" horiz-adv-x="692" 
d="M126 331.5q43 28.5 102 28.5q38 0 71.5 -17t65.5 -55q22 37 56 56t70 19q77 0 118.5 -51.5t41.5 -136.5q0 -79 -30 -175h-40q31 101 31 178q0 70 -31 108.5t-89 38.5q-86 0 -102 -100q6 -27 6 -58q0 -34 -13 -68q-25 -64 -64 -90.5t-96 -26.5q-52 0 -92.5 24.5t-63 67
t-22.5 95.5q0 41 13 81q25 53 68 81.5zM84 166q0 -67 40 -106t99 -39q58 0 95 42.5t37 110.5q0 63 -33 105t-94 42q-96 0 -134 -87q-10 -42 -10 -68z" />
    <glyph glyph-name="uni10D8" unicode="&#x10d8;" horiz-adv-x="430" 
d="M41 166q0 53 20 100t59.5 75.5t95.5 28.5q61 0 101.5 -31.5t59.5 -82.5t19 -110q0 -75 -16 -124l-7 -22h-43l7 22q19 57 19 134q0 71 -35 122.5t-101 51.5t-104 -49.5t-38 -122.5q0 -55 22 -136l5 -22h-41q-23 66 -23 166z" />
    <glyph glyph-name="uni10D9" unicode="&#x10d9;" horiz-adv-x="444" 
d="M271 125q38 3 60.5 36.5t22.5 75.5q0 22 -7.5 42.5t-22.5 34.5q-17 16 -72 18v41q70 -2 106 -37.5t36 -94.5q0 -36 -17.5 -74t-47.5 -65q27 -25 39 -47.5t15.5 -48t3.5 -70.5q0 -55 -9 -97t-35 -71q-39 -45 -121 -45q-80 0 -129 50t-49 139q0 39 17 88h39
q-17 -45 -17 -90q0 -15 1 -21q6 -62 41.5 -94t96.5 -32q33 0 55.5 7t38.5 26q33 40 33 139q0 40 -3.5 64t-19.5 46.5t-50 38.5h-23v41h18z" />
    <glyph glyph-name="uni10DA" unicode="&#x10da;" horiz-adv-x="793" 
d="M83 -85l67 1l-37 27q-41 40 -58.5 94t-18.5 123q0 41 9.5 79t27.5 67q42 65 115 65q22 0 38.5 -6t37.5 -27q8 -8 14 -22q8 -16 14 -23q43 77 105 77q31 0 60.5 -18t53.5 -55q22 36 54.5 56.5t65.5 20.5q41 0 65 -18t39 -52q19 -46 19 -129q0 -32 -8.5 -65.5t-9.5 -39.5
h-38q5 24 10 54t5 53q0 70 -17 105q-13 27 -28.5 39.5t-39.5 12.5q-38 0 -57.5 -21t-28.5 -56q-5 -23 -7 -75l-2 -39h-43q0 29 -1 56.5t-5 48.5q-18 80 -92 80q-25 -3 -46 -22t-31 -48q-7 -20 -7 -42q0 -3 1 -16t1 -57h-40v32q0 42 -3.5 69.5t-18.5 53.5q-13 20 -27 26.5
t-33 6.5q-23 0 -44.5 -12.5t-36.5 -33.5q-33 -49 -33 -124q0 -108 57 -177q18 -22 39.5 -37t38.5 -22t21 -7q103 0 188 -11t154 -50t90 -115h-44q-22 84 -126.5 110.5t-246.5 26.5h-33l-144 -1v37h15z" />
    <glyph glyph-name="uni10DB" unicode="&#x10db;" horiz-adv-x="448" 
d="M63.5 258.5q18.5 41.5 51.5 70.5q47 42 115 42q38 0 75.5 -24.5t58.5 -59.5v179q0 47 -6 80t-31.5 58.5t-78.5 25.5q-66 0 -103.5 -36.5t-33.5 -98.5l2 -51h-35l-2 22l-2 26q0 75 43.5 124.5t126.5 49.5q39 0 72 -13t54 -39q18 -22 24.5 -51.5t6.5 -66.5q0 -21 -1 -31
v-293q0 -82 -47.5 -136t-132.5 -54q-53 0 -92.5 24t-61 66t-21.5 95q0 50 18.5 91.5zM148 306q-30 -23 -47 -61t-17 -80q0 -64 36 -103.5t100 -39.5t102 42t38 107q0 36 -16 73.5t-45 62.5t-65 25q-51 0 -86 -26z" />
    <glyph glyph-name="uni10DC" unicode="&#x10dc;" horiz-adv-x="448" 
d="M118 319q16 16 25 21q27 18 51 23t54 5q50 0 89 -26t60.5 -71t21.5 -98q0 -54 -23 -97.5t-63.5 -68.5t-90.5 -25q-52 0 -93 25t-64.5 68.5t-23.5 96.5v361q0 53 22 90.5t69 37.5h238v-39h-235q-18 0 -28 -7t-16 -21q-11 -24 -11 -64v-228q3 2 18 17zM100 170
q0 -45 19.5 -79t52 -52.5t70.5 -18.5q60 0 97.5 42.5t37.5 114.5q0 62 -33.5 106.5t-95.5 44.5q-45 0 -80 -22.5t-57 -67.5q-11 -38 -11 -68z" />
    <glyph glyph-name="uni10DD" unicode="&#x10dd;" horiz-adv-x="645" 
d="M300 211q0 49 -19.5 83.5t-72.5 34.5q-68 0 -96 -45t-28 -114q0 -80 29 -170h-40q-29 96 -29 173q0 89 43.5 142t120.5 53q33 0 59.5 -16.5t52.5 -52.5q25 33 56.5 51t66.5 18q83 0 121 -56t38 -140q0 -77 -30 -172h-41q13 41 21.5 89t8.5 89q0 72 -29 111t-88 39
q-51 0 -77 -31.5t-26 -79.5v-76h-41v70z" />
    <glyph glyph-name="uni10DE" unicode="&#x10de;" horiz-adv-x="448" 
d="M79 150q0 -44 14 -68q19 -31 50.5 -46.5t72.5 -15.5q59 0 100.5 40t41.5 109q0 56 -32 82t-103 28v40q58 7 93.5 28t35.5 75q0 27 -14.5 45.5t-33.5 30t-60 32.5q-4 2 -22 10q-49 21 -73 42t-26 62h39q3 -29 21 -43.5t54 -27.5l27 -12q49 -22 68 -38q60 -41 60 -103
q0 -35 -20 -65.5t-58 -53.5l22 -15q17 -8 27 -20q16 -18 24.5 -45t8.5 -55q0 -53 -24 -95t-65 -65.5t-90 -23.5q-102 0 -151 72q-25 36 -25 90l2 25q2 14 2 22l4 29h38q-8 -44 -8 -70z" />
    <glyph glyph-name="uni10DF" unicode="&#x10df;" horiz-adv-x="504" 
d="M77 184q0 -37 24 -63.5t64 -26.5q36 0 63 20.5t27 55.5q0 19 -7.5 40.5t-22.5 35.5v44q53 6 103 25.5t87 51.5q11 0 19 -1t18 -1v-436q0 -85 -23 -136q-16 -37 -53 -56t-82 -19q-37 0 -71 12t-57 34q-49 48 -49 142q0 43 6 84h38q-5 -41 -5 -87q0 -60 24 -94
q17 -25 49 -39t68 -14q32 0 57.5 13.5t37.5 38.5q13 28 17 57.5t4 68.5v380q-70 -41 -142 -59q14 -35 18 -54.5t4 -37.5q0 -49 -38.5 -78.5t-89.5 -29.5q-30 0 -53 11q-35 14 -53.5 47.5t-18.5 74.5q0 31 8 47h36q-7 -23 -7 -51z" />
    <glyph glyph-name="uni10E0" unicode="&#x10e0;" horiz-adv-x="645" 
d="M49.5 111q-8.5 64 -8.5 114q0 110 65.5 178.5t187.5 118.5q19 8 61 20t68 23t47 30q23 21 35 51h47q-21 -55 -59 -84q-20 -16 -46 -27t-69 -26l-19 -7q-75 -24 -131 -55t-122 -101q74 20 101 20q33 0 61 -16t56 -51q23 34 58 51.5t72 17.5q82 0 116.5 -55.5t34.5 -140.5
q0 -43 -7.5 -89t-21.5 -83h-45q33 103 33 178q0 72 -25.5 111t-84.5 39q-97 0 -114 -106v-81h-36v70q0 48 -21.5 83t-74.5 35q-68 0 -96 -45t-28 -114q0 -83 34 -170h-45q-15 47 -23.5 111z" />
    <glyph glyph-name="uni10E1" unicode="&#x10e1;" horiz-adv-x="466" 
d="M406 326q23 -61 31 -89.5t8 -59.5q0 -50 -19.5 -91t-55.5 -69q-24 -18 -57 -25.5t-76 -8.5q-30 0 -63.5 12.5t-53.5 34.5q-32 33 -44 85t-12 119v410h40v-416q0 -67 14.5 -113.5t52.5 -72.5q13 -9 25.5 -13t39.5 -8q33 0 55 4t44 19q31 20 49.5 53.5t20.5 77.5
q-2 33 -9 60t-21 63l-23 60h42z" />
    <glyph glyph-name="uni10E2" unicode="&#x10e2;" horiz-adv-x="670" 
d="M309 16q-31 11 -46.5 17.5t-30.5 19.5q-26 22 -39.5 55.5t-13.5 73.5q0 51 35.5 84.5t91.5 47.5v72q0 55 6 88t27.5 52.5t65.5 19.5q63 0 88 -34q17 -23 22 -60.5t5 -101.5v-31v-49q67 -43 92 -115q22 -53 22 -133q0 -45 -9 -80.5t-29 -79.5q-32 -69 -99 -103t-154 -34
q-71 0 -130.5 19t-97.5 58q-43 44 -60.5 91.5t-17.5 111.5q0 51 16.5 125.5t33.5 119.5h39q-22 -60 -35.5 -123.5t-13.5 -120.5q0 -56 15 -99.5t48 -75.5q70 -65 192 -65q79 0 130.5 22.5t85.5 68.5q48 66 48 189q0 51 -17 96q-6 17 -15 30t-27 35l-17 21l-3 -28
q-5 -53 -10 -79.5t-20 -47.5q-20 -31 -59 -47t-82 -17v-99h-37v106zM344 386v-68q32 0 70.5 -7.5t67.5 -18.5v18q0 91 -3 126t-15 52q-8 10 -21.5 14t-37.5 4q-32 0 -46.5 -19t-14.5 -50v-51zM458 98q14 23 19 58.5t5 93.5q-55 25 -138 30l2 -232q85 4 112 50zM249 84
q9 -8 31 -19q18 -8 28 -14v226q-10 -4 -20 -6q-16 -4 -23 -9q-49 -31 -49 -85q0 -61 33 -93z" />
    <glyph glyph-name="uni10E3" unicode="&#x10e3;" horiz-adv-x="618" 
d="M328 240q0 38 -7.5 64t-32.5 26q-20 0 -35 -13.5t-37 -42.5q-25 -34 -47 -52.5t-53 -18.5q-35 0 -59 29.5t-24 68.5q0 17 7 66h38q-5 -27 -5 -53q0 -31 8.5 -50.5t35.5 -19.5q35 0 73 55q28 39 47.5 54t50.5 15q21 0 37.5 -9.5t31.5 -33.5q21 21 46 32t48 11q34 0 56 -12
t34 -38q20 -44 20 -140q0 -137 1 -167v-44q0 -53 -3.5 -86.5t-16.5 -62.5q-21 -47 -70 -69.5t-112 -22.5q-98 0 -151 54t-53 143q0 17 2.5 32.5t5.5 28t4 19.5h40q-11 -63 -11 -80q0 -77 40 -117.5t122 -40.5q52 0 88.5 15.5t54.5 52.5q13 23 17.5 50t4.5 61v270
q0 50 -14.5 82.5t-61.5 32.5q-35 0 -59 -28.5t-24 -62.5v-124h-37v126z" />
    <glyph glyph-name="uni10E4" unicode="&#x10e4;" horiz-adv-x="676" 
d="M358 301q33 41 66 55q31 14 69 14q57 0 91 -28q45 -35 45 -110q0 -45 -8 -70.5t-33 -49.5q-20 -18 -35 -24q35 -32 53 -75.5t18 -90.5q0 -96 -54.5 -147t-145.5 -51t-148.5 49.5t-57.5 137.5q0 23 4 55h40q-4 -38 -4 -58q0 -71 48 -108.5t121 -37.5q74 0 115.5 42
t41.5 119q0 47 -20 87.5t-56 55.5q-23 0 -33 1v38l22 1q42 4 68 37t26 88q0 68 -43 92q-19 11 -48 11q-27 0 -57 -12q-17 -7 -32 -21.5t-34 -38.5q11 -33 11 -60q0 -49 -22.5 -90t-62.5 -65.5t-89 -24.5q-47 0 -87.5 21.5t-64.5 60.5t-24 90t24 93t65 66.5t89 24.5
q51 0 96 -32q24 -16 46 -45zM329.5 268q-18.5 32 -49 50.5t-66.5 18.5q-37 0 -68 -20t-49 -53t-18 -70q0 -40 19 -70t49 -46.5t63 -16.5q59 0 98.5 38.5t39.5 96.5q0 40 -18.5 72z" />
    <glyph glyph-name="uni10E5" unicode="&#x10e5;" horiz-adv-x="446" 
d="M282 297q-95 0 -125 -43q-12 -18 -15.5 -38.5t-3.5 -46.5h-39q0 28 2.5 48t11.5 37q22 43 67.5 62.5t103.5 19.5q36 0 53.5 -1t23.5 -1v202q-37 -40 -71.5 -56.5t-95.5 -17.5v39q56 4 92.5 26.5t74.5 70.5v40h40v-719q0 -44 -10.5 -81.5t-31.5 -61.5q-44 -50 -139 -50
q-49 0 -89 17t-62 51q-32 52 -32 128q0 31 6 49.5t8 27.5h40q-6 -17 -10.5 -42.5t-4.5 -41.5q0 -63 28 -99q17 -25 49 -38t69 -13q70 0 104 36q16 19 25 50.5t9 70.5l1 371q-29 4 -79 4z" />
    <glyph glyph-name="uni10E6" unicode="&#x10e6;" horiz-adv-x="662" 
d="M573 171q0 63 -25 107t-84 44q-56 0 -84 -41.5t-28 -98.5v-44h-39v18q0 73 -29 121.5t-81 48.5q-34 0 -61 -23.5t-42.5 -62t-15.5 -82.5q0 -52 15.5 -89.5t39.5 -64t64 -61.5l19 -17q85 -10 151.5 -26.5t122.5 -54t80 -102.5h-41q-24 43 -54.5 68.5t-71.5 40.5
q-53 20 -112 27t-136 7h-88v38h94q-62 56 -91.5 111t-29.5 125q0 49 18.5 96.5t53.5 78t83 30.5q74 0 130 -91q26 41 60 64.5t74 23.5q76 0 111.5 -55.5t35.5 -132.5q0 -51 -12 -102h-36q9 50 9 99z" />
    <glyph glyph-name="uni10E7" unicode="&#x10e7;" horiz-adv-x="446" 
d="M391 -44q0 -110 -35 -164q-22 -33 -59 -50.5t-81 -17.5q-83 0 -129.5 53.5t-46.5 143.5q0 33 7 80h40q-6 -34 -7.5 -48t-1.5 -38q0 -71 36.5 -110.5t110.5 -39.5q52 0 90 42q20 24 26.5 56.5t6.5 78.5v136q-85 0 -117.5 1.5t-52.5 5.5q-35 11 -54 30q-40 42 -40 138
q0 64 5 111h42q0 -17 -1 -29.5t-2 -21.5q-4 -40 -4 -63q0 -44 9 -70t27 -41q27 -21 51 -21h137v246h43v-408z" />
    <glyph glyph-name="uni10E8" unicode="&#x10e8;" horiz-adv-x="468" 
d="M364.5 572.5q-4.5 22.5 -22 39t-54.5 16.5q-44 0 -60 -38.5t-16 -107.5h-39q0 32 -2.5 54.5t-9.5 40.5q-19 49 -68 49q-28 0 -89 -36v42q46 36 96 36q49 0 89 -58q21 29 48 43.5t55 14.5q117 0 117 -150v-345q0 -54 -23 -97.5t-64 -68.5t-94 -25q-55 0 -94 28.5t-65 92.5
q-12 33 -12 67q0 55 20.5 100t59.5 72t91 27q49 0 84 -18q17 -8 34 -23t23 -20v209q0 33 -4.5 55.5zM232 330q-66 0 -99 -44t-33 -110q0 -67 34 -111t94 -44q38 0 70.5 17.5t51.5 51.5t19 79q0 33 -9 69q-41 92 -128 92z" />
    <glyph glyph-name="uni10E9" unicode="&#x10e9;" horiz-adv-x="439" 
d="M61 100q0 38 0.5 126t0.5 293q0 47 23.5 79t60 48t74.5 16q66 0 105.5 -34t39.5 -84q0 -77 -79.5 -113t-185.5 -41v-98q28 39 65 55.5t76 16.5q75 0 117 -56t42 -145q0 -44 -8 -83t-27 -80h-40q36 71 36 167q0 71 -30.5 116t-86.5 45q-63 0 -103.5 -44.5t-40.5 -110.5
v-173h-40q0 65 1 100zM109.5 563q-6.5 -17 -9.5 -46v-84q76 0 151 25t75 91q0 37 -31 58.5t-75 21.5q-50 0 -92 -35q-12 -14 -18.5 -31z" />
    <glyph glyph-name="uni10EA" unicode="&#x10ea;" horiz-adv-x="635" 
d="M435 320q-12 21 -18 48h42q0 -15 12 -35.5t26 -34.5l20 -20t25.5 -33t9.5 -34q0 -32 -29 -81q67 -68 67 -161q0 -132 -77 -191q-68 -56 -165 -56q-66 0 -125.5 27t-101 75.5t-54.5 109.5q-10 40 -10 88q0 99 34 189q30 81 82 157h45q-50 -69 -78 -130q-44 -103 -44 -215
q0 -42 9 -81q13 -52 50 -94t88.5 -66t105.5 -24q47 0 87.5 17.5t67.5 47.5q25 28 36.5 66t11.5 80q0 90 -68 143h-60v40h64q24 32 24 55q0 16 -10.5 31t-33.5 40q-21 21 -33 42z" />
    <glyph glyph-name="uni10EB" unicode="&#x10eb;" horiz-adv-x="448" 
d="M208 370q50 0 83 -20t61 -51v350h40v-463q0 -53 -21 -99.5t-60.5 -75.5t-92.5 -29q-91 0 -138 56q-22 27 -33.5 64.5t-11.5 78.5q0 38 13 73t37 62q44 49 107 53q6 1 16 1zM111 288q-35 -39 -35 -114q0 -69 36 -110.5t108 -41.5q28 0 54 12.5t44 33.5q34 43 34 108
q0 64 -36 103q-25 26 -48 38.5t-56 12.5h-12q-51 0 -89 -42z" />
    <glyph glyph-name="uni10EC" unicode="&#x10ec;" horiz-adv-x="468" 
d="M116 321q25 23 41 30q35 18 85 18q52 0 90.5 -27t59 -72t20.5 -100q0 -34 -12 -67q-25 -64 -64 -92.5t-94 -28.5q-53 0 -94.5 25t-64.5 68.5t-23 97.5v342q0 151 117 151q28 0 55 -15t48 -45q41 60 90 60q25 0 47.5 -9t47.5 -28v-44q-33 19 -52.5 28.5t-36.5 9.5
q-48 0 -68 -49q-12 -34 -12 -95h-40q0 69 -15.5 108t-59.5 39q-37 0 -54.5 -16.5t-22 -39.5t-4.5 -56v-206zM100 169q0 -45 19.5 -79t52 -51.5t70.5 -17.5q60 0 94 44t34 111q0 66 -33.5 110t-98.5 44q-89 0 -128 -92q-10 -40 -10 -69z" />
    <glyph glyph-name="uni10ED" unicode="&#x10ed;" horiz-adv-x="510" 
d="M80 -82q0 -68 45.5 -111t115.5 -43q65 0 113.5 24.5t74 67.5t25.5 96t-16 89.5t-48 66.5q-21 18 -62.5 30.5t-80.5 15.5v61q-49 13 -82 54t-33 89q0 42 29.5 76.5t85.5 48.5v39h35v-40q35 -6 65 -19.5t49 -32.5l22 -22l26 67h35q-15 -45 -36 -93l63 -110h-37l-42 74
q-36 -93 -146 -131v-29q43 -8 74.5 -20t57.5 -32q37 -30 58 -76.5t21 -101.5q0 -72 -32 -124.5t-87.5 -80t-124.5 -27.5q-60 0 -107.5 25t-73.5 70t-26 104q0 25 8 59h38q-7 -29 -7 -64zM187.5 409.5q-21.5 -29.5 -21.5 -57.5q0 -36 22.5 -61t58.5 -38v191
q-38 -5 -59.5 -34.5zM402 374q-49 60 -121 70l-1 -193q86 26 122 123z" />
    <glyph glyph-name="uni10EE" unicode="&#x10ee;" horiz-adv-x="448" 
d="M368 314q24 -28 37 -63.5t13 -72.5q0 -41 -11.5 -78.5t-33.5 -64.5q-23 -27 -58.5 -41.5t-80.5 -14.5q-53 0 -92 29t-60 76t-21 99v463h39v-349l37 52q72 103 99 136h47q-11 -13 -36 -49.5t-33 -48.5l-15 -23l62 2q67 -10 107 -52zM137 276q-37 -38 -37 -103
q0 -64 35 -107q17 -21 43.5 -34.5t53.5 -13.5q72 0 108 42t36 111q0 77 -34 115q-33 37 -90 42q-72 -4 -115 -52z" />
    <glyph glyph-name="uni10EF" unicode="&#x10ef;" horiz-adv-x="667" 
d="M68 -213q32 -15 52 -22t42 -7q46 0 74 29t28 65q0 28 -18 46.5t-52 18.5h-27v40l176 136l-99 197q-10 19 -19.5 27.5t-36.5 11.5q-31 0 -56.5 -20t-25.5 -52q0 -21 10.5 -41.5t27.5 -43.5h-46q-16 25 -24 49t-8 38q0 29 17.5 54.5t45.5 41t58 15.5q59 0 97 -72l92 -180
l166 126q1 1 25.5 19t24.5 39q0 14 -9.5 18t-25.5 4h-141v39h129q44 0 66 -13.5t22 -45.5q0 -20 -11 -36t-33 -38l-196 -149l92 -183q12 -26 27.5 -41t38.5 -15q20 0 36.5 13.5t20.5 33.5q-1 20 -11 42t-27 54q-3 6 -7 13.5t-8 15.5l-4 8h43q16 -28 30 -57q13 -26 18.5 -42
t5.5 -37q-5 -37 -34 -60t-66 -23q-61 0 -100 81l-88 174l-139 -107q3 -1 23 -8q3 -1 11 -4t13 -6.5t9 -8.5q28 -32 28 -78q0 -32 -16.5 -61.5t-47.5 -47.5t-73 -18q-32 0 -61.5 9t-63.5 26v46z" />
    <glyph glyph-name="uni10F0" unicode="&#x10f0;" horiz-adv-x="475" 
d="M245 588l115 -26q24 -5 39.5 -25t15.5 -42q0 -28 -10.5 -48t-35.5 -44q50 -40 50 -85q0 -51 -59 -88l32 -28q28 -29 28 -77q0 -73 -52.5 -117.5t-135.5 -44.5q-41 0 -77 12t-59 36q-12 12 -20.5 25.5t-19.5 34.5q-17 38 -17 90q0 29 5 49h40q-1 -9 -2.5 -18.5t-1.5 -14.5
q0 -86 39.5 -130.5t116.5 -44.5q40 0 73.5 15.5t52.5 42t19 58.5q0 34 -17 58t-51 34q-12 3 -30.5 4t-23.5 1h-25v39q34 0 53.5 1t36.5 6q24 7 38.5 19t17.5 34q-6 44 -39 57q-19 10 -42.5 12.5t-56.5 2.5h-8v40h62q25 0 44 8q34 16 34 55q0 26 -27 37.5t-55 16t-37 6.5
q-44 9 -75.5 21t-48.5 40q-7 8 -10 34h45q9 -40 79 -56z" />
    <glyph glyph-name="uni10F1" unicode="&#x10f1;" horiz-adv-x="586" 
d="M49 371q6 124 43 205t102 81q39 0 61 -25.5t22 -65.5q0 -136 -187 -214v-20q0 -142 57.5 -226.5t174.5 -84.5q80 0 129.5 32t49.5 88q0 53 -37 80t-112 36v38q36 -10 66 -10q69 0 69 58q0 24 -12.5 40t-41 28.5t-81.5 26.5v37q41 -14 72 -14q22 0 37 14t15 37
q0 40 -46 70l-78 48v47l92 -59q74 -45 74 -107q0 -53 -49 -78q60 -30 60 -90q0 -61 -59 -85q74 -34 74 -120q0 -42 -26.5 -77.5t-77 -56.5t-118.5 -21q-132 0 -203 95.5t-71 256.5l-45 -21v39zM236 567q0 26 -11.5 40t-32.5 14q-23 0 -45.5 -29t-38 -82.5t-16.5 -122.5
q144 65 144 180z" />
    <glyph glyph-name="uni10F2" unicode="&#x10f2;" horiz-adv-x="354" 
d="M176 23q-75 -30 -148 -40v38q43 1 112 26q-105 47 -105 147q0 65 38 105t103 40t104 -38.5t39 -106.5q0 -100 -107 -147q67 -25 113 -26v-38q-73 10 -149 40zM276 197q0 49 -25.5 77t-74.5 28q-48 0 -73.5 -27.5t-25.5 -77.5q0 -88 99 -131q100 43 100 131z" />
    <glyph glyph-name="uni10F3" unicode="&#x10f3;" horiz-adv-x="337" 
d="M170 106q15 5 35 5q58 0 87 -44t29 -133q0 -115 -37 -166.5t-128 -51.5q-70 0 -111.5 39t-41.5 108q0 80 54 124l22 -21q-34 -34 -34 -100q0 -51 32 -81.5t85 -30.5q68 0 93 43t25 137q0 144 -90 144q-35 0 -56 -21l-22 21l124 208h-196v36h259z" />
    <glyph glyph-name="uni10F4" unicode="&#x10f4;" horiz-adv-x="354" 
d="M220.5 110.5q44.5 32.5 44.5 87.5q0 35 -21 56.5t-68 50.5l-31 20q-57 38 -87 84.5t-30 104.5q0 71 34.5 117t96.5 46q52 0 86.5 -28.5t34.5 -76.5q0 -66 -63 -102l-19 20q38 23 38 79q0 70 -75 70q-39 0 -65.5 -31.5t-26.5 -86.5q0 -56 28 -92t91 -75q70 -41 95 -72
t25 -76q0 -100 -113 -138v-6q61 -7 95.5 -50.5t34.5 -112.5q0 -82 -45 -132.5t-126 -50.5q-68 0 -109.5 38t-41.5 103q0 51 33 85l24 -19q-15 -26 -15 -61q0 -49 31 -78.5t80 -29.5q58 0 92.5 38.5t34.5 105.5q0 71 -38.5 106t-116.5 35h-9l-10 -1v40q67 0 111.5 32.5z" />
    <glyph glyph-name="uni10F5" unicode="&#x10f5;" horiz-adv-x="457" 
d="M292 360h-91q-73 0 -116.5 41.5t-43.5 113.5q0 67 40.5 106.5t112.5 39.5q63 0 100.5 -36.5t37.5 -102.5v-124h109v-38h-109v-76h109v-38h-109v-124q0 -63 -37 -101t-101 -38q-71 0 -112 39.5t-41 107.5q0 72 43.5 113t116.5 41h91v76zM292 519q0 104 -98 104
q-52 0 -81 -27.5t-29 -79.5q0 -118 131 -118h77v121zM215 246q-131 0 -131 -117q0 -52 29 -80t81 -28q98 0 98 104v121h-77z" />
    <glyph glyph-name="uni10F6" unicode="&#x10f6;" horiz-adv-x="615" 
d="M214 639q-36 0 -56.5 -27.5t-20.5 -70.5h-36q0 59 31.5 97.5t84.5 38.5q111 0 111 -148v-259q30 69 102 69q39 0 72 -21.5t52.5 -61.5t19.5 -95q0 -75 -39 -126.5t-105 -51.5q-72 0 -102 68v-187q0 -110 74 -110q35 0 56 27t21 71h35q0 -60 -30.5 -98t-84.5 -38
q-111 0 -111 148v187q-32 -68 -102 -68q-39 0 -72.5 22t-53 63t-19.5 93q0 75 39.5 126.5t105.5 51.5q71 0 102 -69v259q0 110 -74 110zM259.5 61.5q28.5 40.5 28.5 99.5q0 60 -27 100.5t-75 40.5q-44 0 -73 -39t-29 -102q0 -58 28 -99t74 -41q45 0 73.5 40.5zM479.5 38
q23.5 17 38 49t14.5 74q0 58 -27 99.5t-75 41.5q-44 0 -73 -38t-29 -103q0 -57 28.5 -98.5t73.5 -41.5q26 0 49.5 17z" />
    <glyph glyph-name="uni10F7" unicode="&#x10f7;" horiz-adv-x="334" 
d="M50 230q0 44 31.5 76.5t80.5 32.5q58 0 91.5 -31t33.5 -89q0 -72 -49.5 -119t-114.5 -82q-20 -11 -22 -13q-56 -53 -56 -126q0 -56 32 -90.5t95 -34.5q54 0 85 29t31 83q0 65 -33 100l22 21q55 -43 55 -114t-43 -114t-118 -43q-76 0 -122 44t-46 119q0 52 15 84t44.5 57
t96.5 69l45 30q40 34 40 98q0 40 -20.5 62.5t-57.5 22.5q-35 0 -55.5 -22t-20.5 -58t26 -68l-21 -21q-45 33 -45 97z" />
    <glyph glyph-name="uni10F8" unicode="&#x10f8;" horiz-adv-x="392" 
d="M94 339v-42q0 -77 26.5 -115t80.5 -38q48 0 75.5 28.5t27.5 76.5q0 38 -23 82l32 15q33 -54 33 -106q0 -57 -39 -94.5t-104 -37.5q-70 0 -109 58v-280q0 -132 121 -132q53 0 86.5 30.5t33.5 82.5q0 63 -46 102l23 24q64 -42 64 -134q0 -65 -43 -104t-118 -39
q-160 0 -160 172v451h39z" />
    <glyph glyph-name="uni2010" unicode="&#x2010;" horiz-adv-x="152" 
d="M152 238h-152v36h152v-36z" />
    <glyph glyph-name="endash" unicode="&#x2013;" horiz-adv-x="400" 
d="M400 238h-400v36h400v-36z" />
    <glyph glyph-name="emdash" unicode="&#x2014;" horiz-adv-x="800" 
d="M696 238h-592v36h592v-36z" />
    <glyph glyph-name="quoteleft" unicode="&#x2018;" horiz-adv-x="207" 
d="M125 611l24 -9l-55 -183l-36 11z" />
    <glyph glyph-name="quoteright" unicode="&#x2019;" horiz-adv-x="207" 
d="M82 419l-24 9l55 183l36 -10z" />
    <glyph glyph-name="quotesinglbase" unicode="&#x201a;" horiz-adv-x="207" 
d="M82 -133l-24 9l55 183l36 -11z" />
    <glyph glyph-name="quotedblleft" unicode="&#x201c;" horiz-adv-x="312" 
d="M125 611l24 -9l-55 -183l-36 11zM230 611l24 -9l-55 -183l-36 11z" />
    <glyph glyph-name="quotedblright" unicode="&#x201d;" horiz-adv-x="312" 
d="M82 419l-24 9l55 183l36 -10zM187 419l-24 9l55 183l36 -10z" />
    <glyph glyph-name="quotedblbase" unicode="&#x201e;" horiz-adv-x="312" 
d="M82 -133l-24 9l55 183l36 -11zM187 -133l-24 9l55 183l36 -11z" />
    <glyph glyph-name="dagger" unicode="&#x2020;" 
d="M267 444h145v-36h-145v-550h-38v550h-145v36h145v159h38v-159z" />
    <glyph glyph-name="daggerdbl" unicode="&#x2021;" 
d="M267 444h145v-36h-145v-342h145v-36h-145v-172h-38v172h-145v36h145v342h-145v36h145v159h38v-159z" />
    <glyph glyph-name="bullet" unicode="&#x2022;" 
d="M325.5 432.5q34.5 -20.5 54 -55t19.5 -75.5t-19.5 -75.5t-54 -55t-76.5 -20.5q-43 0 -77.5 20.5t-54 55t-19.5 75.5t19.5 75.5t54 55t77.5 20.5q42 0 76.5 -20.5z" />
    <glyph glyph-name="ellipsis" unicode="&#x2026;" horiz-adv-x="800" 
d="M157 50.5q9 -9.5 9 -23.5t-9.5 -23.5t-22.5 -9.5q-14 0 -23.5 9.5t-9.5 23.5t9.5 23.5t23.5 9.5t23 -9.5zM423.5 50.5q9.5 -9.5 9.5 -23.5q0 -13 -9.5 -23t-23.5 -10q-13 0 -23 10t-10 23q0 14 9.5 23.5t23.5 9.5t23.5 -9.5zM689.5 50.5q9.5 -9.5 9.5 -23.5t-9.5 -23.5
t-23.5 -9.5q-13 0 -22.5 9.5t-9.5 23.5t9 23.5t23 9.5t23.5 -9.5z" />
    <glyph glyph-name="perthousand" unicode="&#x2030;" horiz-adv-x="827" 
d="M98 -14l-24 15l356 616l27 -14zM230.5 575q35.5 -34 35.5 -85q0 -50 -35.5 -84t-86.5 -34t-86.5 34t-35.5 84q0 51 35.5 85t86.5 34t86.5 -34zM82 550.5q-26 -24.5 -26 -60.5q0 -35 26 -59.5t62 -24.5t62 24.5t26 59.5q0 36 -26 60.5t-62 24.5t-62 -24.5zM474 197.5
q35 -33.5 35 -85.5q0 -50 -35.5 -84t-86.5 -34t-86 33.5t-35 84.5q0 52 34.5 85.5t86.5 33.5t87 -33.5zM770 197.5q35 -33.5 35 -85.5q0 -50 -35.5 -84t-86.5 -34t-86 33.5t-35 84.5q0 52 34.5 85.5t86.5 33.5t87 -33.5zM325 173q-26 -25 -26 -61q0 -34 26.5 -59t61.5 -25
t61.5 25t26.5 59q0 36 -26 61t-62 25t-62 -25zM621 173q-26 -25 -26 -61q0 -34 26.5 -59t61.5 -25t61.5 25t26.5 59q0 36 -26 61t-62 25t-62 -25z" />
    <glyph glyph-name="guilsinglleft" unicode="&#x2039;" horiz-adv-x="222" 
d="M145 121l-117 135l117 135l23 -21l-97 -114l97 -114z" />
    <glyph glyph-name="guilsinglright" unicode="&#x203a;" horiz-adv-x="222" 
d="M54 370l23 21l117 -135l-117 -135l-23 21l96 114z" />
    <glyph glyph-name="fraction" unicode="&#x2044;" horiz-adv-x="103" 
d="M-114 -14l-26 15l358 617l25 -15z" />
    <glyph glyph-name="Euro" unicode="&#x20ac;" 
d="M394.5 560q-36.5 15 -83.5 15q-83 0 -130 -58t-56 -146h285l-12 -32h-276q-2 -18 -2 -37t2 -37h249l-11 -32h-234q11 -98 59 -152.5t127 -54.5q84 0 144 55v-42q-22 -19 -60.5 -32.5t-86.5 -13.5q-95 0 -151.5 60t-70.5 180h-59l11 32h45q-2 18 -2 37q0 17 2 37h-56
l11 32h47q13 108 67.5 173.5t155.5 65.5q48 0 86 -14t61 -34v-41q-25 24 -61.5 39z" />
    <glyph glyph-name="uni2113" unicode="&#x2113;" horiz-adv-x="414" 
d="M237 -3q-69 0 -103.5 48t-35.5 120v11l-54 -44l-15 25l22 18q34 28 47 41v247q0 107 36 152.5t86 45.5t76 -37t26 -94q0 -80 -49.5 -160t-140.5 -167v-22q0 -79 31.5 -117t78.5 -38q42 0 75 26.5t52 61.5l22 -15q-56 -102 -154 -102zM249.5 389q41.5 68 41.5 136
q0 49 -17.5 77.5t-55.5 28.5q-34 0 -60 -39.5t-26 -121.5v-227q76 78 117.5 146z" />
    <glyph glyph-name="trademark" unicode="&#x2122;" horiz-adv-x="752" 
d="M191 570v-304h-33v304h-112v33h256v-33h-111zM536 342h2l111 261h57v-337h-33v304h-3l-132 -304h-2l-130 304h-4v-304h-33v337h57z" />
    <glyph glyph-name="uni2126" unicode="&#x2126;" horiz-adv-x="652" 
d="M99 151q-36 72 -36 163q0 86 35.5 152.5t96.5 103t134 36.5q75 0 134 -39t92.5 -105.5t33.5 -145.5q0 -94 -38.5 -168.5t-92.5 -114.5v-3h144v-30h-202v22q64 39 108.5 115.5t44.5 174.5q-1 62 -27 123t-77 101t-121 40q-68 0 -120 -36t-80.5 -97t-28.5 -133
q0 -63 21.5 -120t56.5 -100.5t74 -67.5v-22h-201v30h142v3q-57 46 -93 118z" />
    <glyph glyph-name="estimated" unicode="&#x212e;" horiz-adv-x="746" 
d="M155 290v-169q0 -10 7 -19q43 -43 97 -67.5t115 -24.5q65 0 122.5 27.5t98.5 75.5h50q-47 -56 -119 -88t-153 -32q-94 0 -173 41.5t-125 112.5t-46 155t46 155t125 112.5t173 41.5q93 0 172 -41.5t125.5 -112.5t46.5 -155v-9h-557q-5 0 -5 -3zM582 505q-42 41 -95.5 64.5
t-112.5 23.5q-60 0 -114 -24t-97 -67q-8 -10 -8 -21v-166q0 -2 1.5 -3.5t3.5 -1.5h426q4 0 4 5v169q0 13 -8 21z" />
    <glyph glyph-name="partialdiff" unicode="&#x2202;" horiz-adv-x="470" 
d="M211 668q56 0 104.5 -36t78 -108.5t29.5 -177.5q0 -96 -24.5 -176t-74 -127.5t-121.5 -47.5q-53 0 -90 27.5t-55 72t-18 95.5q0 63 26 112t69 75.5t91 26.5q59 0 101 -31.5t59 -63.5q2 13 2 45q0 87 -25 151.5t-66 98.5t-87 34q-69 0 -120 -41l-17 25q58 46 138 46z
M322 93.5q47 68.5 58 170.5q-14 40 -55 75t-95 35q-41 0 -76 -24t-56 -66t-21 -91q0 -73 35 -120.5t93 -47.5h1q69 0 116 68.5z" />
    <glyph glyph-name="uni2206" unicode="&#x2206;" horiz-adv-x="574" 
d="M267 614h41l236 -582v-32h-514v32zM354 406l-22 52q-36 84 -44 112h-4q-5 -18 -31 -80q-18 -43 -27 -69l-160 -391h438z" />
    <glyph glyph-name="product" unicode="&#x220f;" horiz-adv-x="611" 
d="M484 -82h-35v645h-287v-645h-36v645h-103v33h564v-33h-103v-645z" />
    <glyph glyph-name="summation" unicode="&#x2211;" horiz-adv-x="490" 
d="M20 -57l255 312l-243 316v25h423v-32h-369v-3l232 -302l-248 -304v-2h398v-35h-448v25z" />
    <glyph glyph-name="minus" unicode="&#x2212;" 
d="M453 224v-38h-410v38h410z" />
    <glyph glyph-name="uni2215" unicode="&#x2215;" horiz-adv-x="103" 
d="M-114 -14l-26 15l358 617l25 -15z" />
    <glyph glyph-name="uni2219" unicode="&#x2219;" horiz-adv-x="248" 
d="M147.5 228.5q9.5 -9.5 9.5 -23.5t-9.5 -23.5t-23.5 -9.5t-23.5 9.5t-9.5 23.5t10 23.5t23 9.5q14 0 23.5 -9.5z" />
    <glyph glyph-name="radical" unicode="&#x221a;" horiz-adv-x="494" 
d="M256 -133l-148 411l-66 -25l-11 25l101 39l128 -351l14 -53l1 -1q2 15 11 51l174 741h30l-196 -837h-38z" />
    <glyph glyph-name="infinity" unicode="&#x221e;" horiz-adv-x="683" 
d="M619 180q-18 -30 -48 -47t-64 -17q-40 0 -74 24.5t-91 84.5q-34 -37 -55.5 -58t-50.5 -36t-62 -15q-34 0 -63.5 17.5t-47 47.5t-17.5 65q0 56 38 93.5t95 37.5q45 0 81.5 -28t85.5 -82q37 41 57.5 61t48.5 34.5t62 14.5q56 0 89.5 -36t33.5 -92v-1q0 -38 -18 -68z
M241.5 166q28.5 21 66.5 60l18 19q-32 37 -51 56t-46 34t-58 15q-42 0 -67.5 -31.5t-25.5 -74.5q1 -42 28.5 -70.5t71.5 -28.5h1q34 0 62.5 21zM448 329q-29 -21 -65 -59l-21 -22q57 -58 86 -80.5t62 -22.5q44 0 70 30t26 71q0 49 -27 76.5t-69 27.5q-33 0 -62 -21z" />
    <glyph glyph-name="integral" unicode="&#x222b;" horiz-adv-x="293" 
d="M257 691q-10 3 -19 3q-29 0 -44 -19q-19 -20 -27 -56.5t-8 -101.5t6 -221q1 -32 3 -102.5t2 -118.5q0 -119 -40 -173q-12 -16 -31 -24.5t-40 -8.5q-14 0 -29 5t-23 10l10 26q26 -11 42 -11q11 0 22.5 5.5t19.5 15.5q16 20 25.5 55.5t9.5 101.5q0 65 -6 223q-6 156 -6 220
q0 69 10 110t34 64q29 29 70 29q11 0 24.5 -4t19.5 -9l-10 -26q-5 4 -15 7z" />
    <glyph glyph-name="approxequal" unicode="&#x2248;" horiz-adv-x="508" 
d="M417 287q-26 -21 -65 -21q-22 0 -41 7t-39.5 17t-27.5 14q-26 14 -46 22t-41 8q-29 0 -50.5 -17.5t-40.5 -49.5l-20 15q20 39 50 59.5t67 20.5q24 0 44.5 -8.5t36.5 -18t22 -13.5q8 -4 25.5 -12.5t32 -12.5t31.5 -4q28 0 48.5 15.5t39.5 50.5l19 -15q-19 -36 -45 -57z
M417 146q-26 -21 -65 -21q-22 0 -41 7t-39.5 17t-27.5 14q-30 16 -48 23.5t-38 7.5q-30 0 -51 -18t-41 -50l-20 15q20 39 50 59.5t67 20.5q22 0 41 -7.5t44 -21.5q6 -4 18 -10q5 -3 23 -12t34 -13.5t33 -4.5q28 0 48 15.5t39 50.5l19 -16q-19 -35 -45 -56z" />
    <glyph glyph-name="notequal" unicode="&#x2260;" horiz-adv-x="508" 
d="M461 339v-29h-165l-65 -135h230v-28h-243l-50 -108l-23 12l45 96h-143v28h156l64 135h-220v29h233l50 105l23 -12l-44 -93h152z" />
    <glyph glyph-name="lessequal" unicode="&#x2264;" horiz-adv-x="508" 
d="M53 304l405 198v-35l-372 -176v-1l372 -179v-35l-405 199v29zM46 38h414v-28h-414v28z" />
    <glyph glyph-name="greaterequal" unicode="&#x2265;" horiz-adv-x="508" 
d="M458 275l-405 -199v35l371 177v2l-371 177v35l405 -198v-29zM47 38h413v-28h-413v28z" />
    <glyph glyph-name="lozenge" unicode="&#x25ca;" horiz-adv-x="494" 
d="M232 -39l-181 337l181 337h30l181 -337l-181 -337h-30zM247 602h-1q-12 -29 -18 -40l-142 -263l144 -267q12 -23 16 -38h3q9 24 16 38l143 265l-144 265q-13 29 -17 40z" />
    <glyph glyph-name="fi" unicode="&#xfb01;" horiz-adv-x="380" 
d="M62 0v336h-41v34h41v165q0 30 2.5 52.5t11.5 38.5q12 21 34 32.5t48 11.5q20 0 32 -5v-33q-23 5 -29 5q-41 0 -52 -29.5t-11 -79.5v-158h92v-34h-92v-336h-36zM309.5 516q9.5 -10 9.5 -23q0 -14 -9.5 -23.5t-23.5 -9.5t-23 9.5t-9 23.5q0 13 9.5 23t22.5 10
q14 0 23.5 -10zM268 0v370h36v-370h-36z" />
    <glyph glyph-name="fl" unicode="&#xfb02;" horiz-adv-x="351" 
d="M62 0v336h-41v34h41v165q0 30 2.5 52.5t11.5 38.5q12 21 34 32.5t48 11.5q20 0 32 -5v-33q-23 5 -29 5q-41 0 -52 -29.5t-11 -79.5v-158h92v-34h-92v-336h-36zM254 0v660h36v-660h-36z" />
    <glyph glyph-name="a.superior" horiz-adv-x="269" 
d="M229 385v40h-2q-12 -21 -38 -33t-53 -12q-53 0 -85.5 33.5t-32.5 83.5t31.5 82t85.5 32q28 0 52.5 -11t39.5 -32h2v38h23v-221h-23zM69.5 557.5q-24.5 -26.5 -24.5 -61.5q0 -36 24 -62.5t63 -26.5q42 0 67.5 26.5t25.5 64.5q0 36 -27 61t-68 25q-36 0 -60.5 -26.5z" />
    <glyph glyph-name="o.superior" horiz-adv-x="262" 
d="M220.5 578q36.5 -33 36.5 -82t-37 -82.5t-90 -33.5q-33 0 -61.5 15.5t-45.5 42t-17 57.5q0 48 36 82t88 34q54 0 90.5 -33zM64 557.5q-27 -26.5 -27 -63.5q0 -34 27 -60.5t65 -26.5q40 0 68.5 25.5t28.5 61.5q0 38 -28 64t-69 26q-38 0 -65 -26.5z" />
    <glyph glyph-name="one.superior" horiz-adv-x="298" 
d="M119 603h76v-358h-27v331h-61z" />
    <glyph glyph-name="two.superior" horiz-adv-x="298" 
d="M269 245h-242l146 148q32 33 51 59.5t19 54.5q0 35 -26 56t-64 21q-41 0 -66 -21.5t-25 -57.5h-27q2 44 25 68q16 18 41.5 28t51.5 10q49 0 83 -30t34 -75q0 -33 -19.5 -63t-50.5 -61l-109 -110h178v-27z" />
    <glyph glyph-name="three.superior" horiz-adv-x="298" 
d="M205 466.5q23 19.5 23 52.5q0 29 -22 47t-54 18q-34 0 -53 -16t-21 -46h-27q4 41 30.5 65t71.5 24q42 0 72 -27t30 -66q0 -27 -15.5 -49.5t-43.5 -34.5q29 -10 47 -34.5t18 -53.5q0 -45 -33 -75.5t-82 -30.5q-45 0 -77 26.5t-32 67.5h27q4 -32 25 -49.5t56 -17.5
q37 0 63 22.5t26 55.5q0 34 -25 54.5t-63 20.5v27q36 0 59 19.5z" />
    <glyph glyph-name="uni10E30302" horiz-adv-x="618" 
d="M498 425h-41l-118 97l-111 -97h-48l159 143zM328 240q0 38 -7.5 64t-32.5 26q-20 0 -35 -13.5t-37 -42.5q-25 -34 -47 -52.5t-53 -18.5q-35 0 -59 29.5t-24 68.5q0 17 7 66h38q-5 -27 -5 -53q0 -31 8.5 -50.5t35.5 -19.5q35 0 73 55q28 39 47.5 54t50.5 15
q21 0 37.5 -9.5t31.5 -33.5q21 21 46 32t48 11q34 0 56 -12t34 -38q20 -44 20 -140q0 -137 1 -167v-44q0 -53 -3.5 -86.5t-16.5 -62.5q-21 -47 -70 -69.5t-112 -22.5q-98 0 -151 54t-53 143q0 17 2.5 32.5t5.5 28t4 19.5h40q-11 -63 -11 -80q0 -77 40 -117.5t122 -40.5
q52 0 88.5 15.5t54.5 52.5q13 23 17.5 50t4.5 61v270q0 50 -14.5 82.5t-61.5 32.5q-35 0 -59 -28.5t-24 -62.5v-124h-37v126z" />
    </font>
</defs>
</svg>
