<svg xmlns="http://www.w3.org/2000/svg" xmlns:xlink="http://www.w3.org/1999/xlink" width="59.494" height="35.179" viewBox="0 0 59.494 35.179">
  <defs>
    <clipPath id="clip-path">
      <rect id="Rectangle_394" data-name="Rectangle 394" width="59.494" height="35.179" transform="translate(0 0)" fill="none"/>
    </clipPath>
  </defs>
  <g id="Group_576" data-name="Group 576" transform="translate(-85 -213.742)">
    <g id="Group_573" data-name="Group 573" transform="translate(85 213.742)" clip-path="url(#clip-path)">
      <path id="Path_3452" data-name="Path 3452" d="M417.3,253.588a21.853,21.853,0,0,1-2.757,1.518c-.14-.867-.289-1.655-.392-2.45q-.2-1.57-.342-3.147c-.08-.894-.111-1.793-.176-2.689-.094-1.3-.21-2.606-.3-3.91-.124-1.837-.235-3.676-.343-5.514-.019-.33.013-.663,0-.993a3.712,3.712,0,0,0-.1-.544l-.133-.011a.853.853,0,0,0-.138.24c-.133.714-.251,1.432-.382,2.147a32.992,32.992,0,0,0-.519,4.679c-.037.95-.118,1.9-.156,2.849-.065,1.666-.1,3.333-.177,5-.037.828-.128,1.654-.2,2.527l-3.406,1.669a18.553,18.553,0,0,0-.54-4.689c-.253-1.593-.5-3.186-.751-4.779-.16-1.013-.32-2.027-.492-3.038a3.981,3.981,0,0,0-.187-.578l-.127.01a3.243,3.243,0,0,0-.075.425c-.065,1.39-.126,2.781-.191,4.171q-.069,1.505-.147,3.01c-.057,1.111-.108,2.221-.182,3.332-.033.473-.117.942-.2,1.549l-3.118.8c.025-.366.042-.675.07-.982s.074-.6.1-.907c.112-1.344.214-2.689.327-4.033.176-2.071.364-4.141.538-6.213.076-.909.123-1.82.194-2.729.1-1.3.216-2.6.324-3.906.056-.671.1-1.343.166-2.013.1-.982.221-1.962.306-2.945.143-1.662.261-3.327.395-4.99.1-1.263.216-2.525.335-3.914l2.944-1.081c.011.189.026.339.027.488.007.756-.009,1.513.019,2.268.035.937.1,1.873.161,2.809q.163,2.515.338,5.03c.1,1.44.191,2.882.327,4.319.09.947.249,1.89.388,2.832a3.191,3.191,0,0,0,.167.517l.134.02a3.534,3.534,0,0,0,.163-.464q.425-2.133.833-4.269c.135-.7.253-1.406.4-2.107.152-.746.329-1.487.483-2.233.128-.618.238-1.241.359-1.859q.3-1.538.6-3.076.22-1.126.439-2.252c.118-.607.234-1.213.359-1.872l3.416-.773c-.107.5-.187.909-.278,1.312-.2.861-.435,1.714-.585,2.582a6.493,6.493,0,0,0,.025,1.339c.01.237.04.473.055.709.122,1.956.235,3.913.368,5.868.11,1.624.256,3.245.359,4.869.127,2,.229,4,.334,5.994.054,1.016.083,2.034.14,3.05.047.83.1,1.661.185,2.488.089.9.206,1.8.327,2.7C417.095,252.331,417.2,252.915,417.3,253.588Z" transform="translate(-371.861 -220.163)" fill="#fff"/>
      <path id="Path_3453" data-name="Path 3453" d="M243.663,255.733l-2.815.832c0-.408,0-.771,0-1.134.023-1.9.058-3.793.071-5.689.021-3.211.014-6.423.042-9.634.04-4.656.1-9.312.156-13.968a3.111,3.111,0,0,1,.061-.422l3.2-1.261c.017.168.041.3.041.436,0,1.566-.061,3.134.006,4.7a17.851,17.851,0,0,0,.437,2.572c.131.682.288,1.36.44,2.039.2.9.406,1.79.609,2.686.131.58.268,1.158.392,1.74.193.915.376,1.831.565,2.746q.313,1.511.632,3.021a1.875,1.875,0,0,0,.132.267,2.285,2.285,0,0,0,.239-.565c.194-2.388.372-4.777.559-7.166.106-1.355.21-2.711.337-4.065.189-2.013.4-4.024.594-6.036.083-.867.142-1.737.215-2.636l3.184-.727c-.018.237-.033.429-.047.621l-.49,6.141c-.109,1.358-.216,2.717-.334,4.074-.172,1.976-.359,3.952-.528,5.928-.118,1.37-.214,2.741-.329,4.111-.105,1.264-.224,2.528-.332,3.792s-.212,2.545-.322,3.818q-.172,1.955-.351,3.908a.778.778,0,0,1-.062.2l-3.18,1.666-2.191-11.516-.176-.026a1.4,1.4,0,0,0-.142.4c-.023.555,0,1.115-.033,1.671q-.151,2.572-.334,5.141C243.854,254.142,243.753,254.889,243.663,255.733Z" transform="translate(-226.129 -222.547)" fill="#fff"/>
      <path id="Path_3454" data-name="Path 3454" d="M574.425,255.608v14.66c.2-.085.307-.1.347-.153.249-.358.481-.726.721-1.09.529-.8,1.022-1.63,1.6-2.394a1.961,1.961,0,0,0,.47-2.126c-.372-.9-.618-1.846-.925-2.771-.32-.963-.646-1.924-.971-2.885-.338-1-.674-1.994-1.022-2.987-.036-.1-.145-.169-.221-.254Zm5.357,6.859c.707-.664,1.02-1.494,1.648-2.151l1.289,3.978a19.351,19.351,0,0,1-1.052,1.633,1.529,1.529,0,0,0-.279,1.655c.526,1.44.921,2.927,1.387,4.389.351,1.1.736,2.2,1.093,3.3.172.533.314,1.075.494,1.7l-2.856-.564c-.38-1.128-.742-2.254-1.14-3.37-.387-1.088-.666-2.217-1.111-3.285l-.143.007-4.668,6.962c-.93-.334-1.81-.638-2.678-.97a.624.624,0,0,1-.479-.649c.029-.575.023-1.152.019-1.728-.013-1.977-.013-3.954-.052-5.931-.058-2.944-.151-5.887-.22-8.831-.057-2.4-.1-4.8-.151-7.2-.043-1.894-.1-3.789-.143-5.685,0-.131,0-.264,0-.416l.339-.212,3.567,1.241Z" transform="translate(-524.867 -242.135)" fill="#fff"/>
      <path id="Path_3455" data-name="Path 3455" d="M94.713,270.425l.2-.041.143-14.546-.183-.048a2.344,2.344,0,0,0-.221.392c-.249.758-.476,1.523-.728,2.28-.261.784-.551,1.56-.817,2.344-.445,1.32-.877,2.646-1.321,3.965a1.461,1.461,0,0,0,.143,1.548c.665.849,1.228,1.777,1.832,2.674.321.476.636.954.953,1.431Zm.025-23.919,3.485-1.22.415.184a2.81,2.81,0,0,1,.077.518c-.06,2.188-.143,4.374-.194,6.561-.071,3.09-.118,6.181-.18,9.271-.052,2.548-.112,5.092-.166,7.638q-.062,2.922-.121,5.845c0,.13-.022.261-.038.443L94.95,276.9l-4.717-7.016-.128.035-2.217,6.655L85,277.155c.083-.289.147-.533.223-.773q.571-1.806,1.147-3.609c.251-.788.508-1.575.761-2.363.359-1.115.723-2.229,1.063-3.349a.608.608,0,0,0-.11-.43,19.463,19.463,0,0,0-1.13-1.63c-.34-.419-.168-.8-.019-1.18.308-.792.648-1.572.965-2.36.086-.214.138-.442.22-.71.633.523.823,1.394,1.5,1.875Z" transform="translate(-85 -242.307)" fill="#fff"/>
      <path id="Path_3456" data-name="Path 3456" d="M357.115,351.642l-3.157.389c.145-1.637.286-3.19.417-4.743.079-.936.137-1.874.213-2.809.112-1.4.231-2.79.346-4.185.055-.671.1-1.342.163-2.012.136-1.443.288-2.885.419-4.329.1-1.068.169-2.138.261-3.207.039-.447.105-.892.167-1.4l2.763-.613c0,.5.018.919,0,1.334-.035.672-.095,1.341-.148,2.012-.1,1.276-.216,2.551-.3,3.828-.081,1.195-.131,2.392-.2,3.587-.048.844-.1,1.687-.161,2.53-.16,2.043-.333,4.086-.489,6.129-.077,1.018-.127,2.037-.2,3.055A2.693,2.693,0,0,1,357.115,351.642Z" transform="translate(-328.559 -317.876)" fill="#fff"/>
      <path id="Path_3457" data-name="Path 3457" d="M375.327,214.619l3.111-.877-.815,9.044-2.957.657Z" transform="translate(-347.311 -213.742)" fill="#fff"/>
    </g>
  </g>
</svg>
