<svg xmlns="http://www.w3.org/2000/svg" width="128" height="128" viewBox="0 0 128 128">
  <g id="Group_605" data-name="Group 605" transform="translate(-1760 -1344)">
    <g id="Group_597" data-name="Group 597" transform="translate(710.32 -5057.327)">
      <g id="Group_596" data-name="Group 596" transform="translate(1072.18 6423.868)">
        <path id="Path_3469" data-name="Path 3469" d="M1157.37,6524.01q-8.167,0-16.335,0a2.672,2.672,0,0,1-2.863-2.181,2.748,2.748,0,0,1,2.4-3.308,7.132,7.132,0,0,1,.92-.031q15.958,0,31.916,0c.2,0,.391,0,.586,0a2.743,2.743,0,0,1,2.787,2.836,2.667,2.667,0,0,1-2.828,2.677C1168.428,6524.019,1162.9,6524.009,1157.37,6524.01Z" transform="translate(-1115.991 -6486.735)" fill="#fff"/>
        <path id="Path_3470" data-name="Path 3470" d="M1149.173,6559.754c2.653,0,5.305-.007,7.958,0,1.856.006,3.024,1.062,3.04,2.722a2.749,2.749,0,0,1-3,2.795q-8.042.019-16.083,0a2.73,2.73,0,0,1-2.76-1.659,2.74,2.74,0,0,1,2.633-3.863Q1145.068,6559.758,1149.173,6559.754Z" transform="translate(-1115.964 -6514.153)" fill="#fff"/>
      </g>
    </g>
    <g id="Group_623" data-name="Group 623">
      <g id="Ellipse_1" data-name="Ellipse 1" transform="translate(1760 1344)" fill="#fff" stroke="#707070" stroke-width="1">
        <circle cx="64" cy="64" r="64" stroke="none"/>
        <circle cx="64" cy="64" r="63.5" fill="none"/>
      </g>
      <path id="Path_3468" data-name="Path 3468" d="M1155.18,6464.807c-.125,9.992-3,18.713-9.063,26.292a41.383,41.383,0,0,1-51.189,11.146,2.516,2.516,0,0,0-1.974-.2q-8.392,2.276-16.8,4.5c-2.708.719-4.423-.933-3.832-3.662,1.333-6.157,2.67-12.313,3.968-18.477a2.552,2.552,0,0,0-.175-1.494,41.423,41.423,0,0,1,7.5-46.166,39.671,39.671,0,0,1,22.837-12.227c14.163-2.327,26.516,1.6,36.719,11.663a39.862,39.862,0,0,1,11.7,24.439C1155.045,6462.114,1155.1,6463.623,1155.18,6464.807Zm-41.621-3.665c5.529,0,11.058.009,16.587-.005a2.667,2.667,0,0,0,2.828-2.677,2.743,2.743,0,0,0-2.787-2.836c-.195-.009-.391,0-.586,0q-15.958,0-31.917,0a7.13,7.13,0,0,0-.92.031,2.748,2.748,0,0,0-2.4,3.308,2.672,2.672,0,0,0,2.863,2.181Q1105.391,6461.154,1113.559,6461.142Zm-8.17,8.327q-4.1,0-8.209,0a2.739,2.739,0,0,0-2.633,3.863,2.73,2.73,0,0,0,2.76,1.659q8.042.007,16.083,0a2.748,2.748,0,0,0,3-2.794c-.016-1.66-1.184-2.715-3.04-2.722C1110.694,6469.462,1108.042,6469.469,1105.389,6469.469Z" transform="translate(710.32 -5057.327)" fill="#527178"/>
    </g>
  </g>
</svg>
