<svg xmlns="http://www.w3.org/2000/svg" width="97.676" height="110.293" viewBox="0 0 97.676 110.293">
  <g id="Group_14" data-name="Group 14" transform="translate(397.627 -53.194)">
    <g id="Group_9" data-name="Group 9">
      <path id="Path_62" data-name="Path 62" d="M-359.394,63.735v.033c-4.21-.1-8.737.051-12.653.147-2.476.062-14.142-.116-18.365.092-1.368-1.157-2.346-1.449-3.591-2.909a8.23,8.23,0,0,1-1.918-3.717,4.564,4.564,0,0,1-.038-1.051c.314-3.033,9.451-2.549,10.923-2.564,2.542-.027,4.6.018,6.867-.009,5.46-.068,9.137.024,14.912.2,1.87.056,2.675.483,2.963.814a3.214,3.214,0,0,1,.654,2.071C-359.407,59.519-359.469,61.032-359.394,63.735Z" fill="#698fa3"/>
      <path id="Path_63" data-name="Path 63" d="M-360.277,113.873c.553.317.35,4.155.445,6.395l-1.934.033c-10.482.175-26.3.506-26.3.506s-1.662-.208-2.06-.312l-.091-.026a9.122,9.122,0,0,1-2.723-1.173,6.9,6.9,0,0,1-1.458-1.314,13.354,13.354,0,0,1-.892-1.2c-.2-.305-.409-.623-.624-.951l-.005,0a12.494,12.494,0,0,1,2.536-1.233c1.874-.785,11.17-1.969,13.91-2.064C-375.874,112.4-361.177,113.358-360.277,113.873Z" fill="#6391be"/>
      <path id="Path_64" data-name="Path 64" d="M-335.922,101.657c.019.431.024,1.384.024,1.384a5.866,5.866,0,0,1-5.035-4.1,93.58,93.58,0,0,1-.8-13.461c.005-6.489.133-11.056.445-18.189.049-1.157.5-5.94.666-10.818.029,4.164,4.755,6.538,4.755,6.538s-.153,5.1-.213,6.6c-.077,1.94-.139,3.754-.186,5.476,0,.081-.006.159-.008.239-.111,3.053-.195,6.166-.187,9.71,0,.659.052,2.246.125,4.228v0C-336.267,93.112-336.121,97.046-335.922,101.657Z" fill="#828b8e"/>
      <path id="Path_65" data-name="Path 65" d="M-390.412,64.007c-.02,0-.042,0-.062,0,0,13.256-.379,39.677,0,39.976l0,0a7.511,7.511,0,0,1-3.635-1.353c-1.179-.753-2.246-1.6-2.246-1.6-.752-5.943-.759-16.6-.712-24.674.009-1.449.343-14.8,1.1-20.029a4.564,4.564,0,0,0,.038,1.051A8.23,8.23,0,0,0-394,61.1C-392.758,62.558-391.78,62.85-390.412,64.007Z" fill="#62787f"/>
      <path id="Path_66" data-name="Path 66" d="M-300.827,63.691c.308.525.332.923.328,2.259-.027,11.374-.053,24.854-.08,36.227a1.224,1.224,0,0,1-.321,1.013,1.218,1.218,0,0,1-.685.172c-8.483.4-8.483.4-17,.365-2.529-.011-9.383-.108-17.315-.686.044-1.422-.263-8.825-.442-13.778v0c-.034-1.75-.052-3.482-.054-5.254,0-2.733.033-5.56.116-8.684,0-.08,0-.158.008-.239.14-3.854.319-7.627.4-12.073,0,0,1.121-.073,1.489-.089,9.71-.427,21.69-.515,31.691.04A2.48,2.48,0,0,1-300.827,63.691Z" fill="#96a4aa"/>
      <path id="Path_67" data-name="Path 67" d="M-359.832,120.268c3.445-.053,6.051-.085,6.87-.071-.125,7.644-.173,14.918-.352,21.567-.228,8.455-.1,20.095-.255,20.119-8.783,1.284-24.659,1.011-34.386-.256-.019-1.586-.176-8.45-.187-10.368v-.126q0-.928-.005-1.911c-.018-6.881-.06-15.437-.124-19.589-.037-2.33.058-4.073.1-6.525,0-.028,0-.059,0-.1s0-.113.008-.179.005-.14.009-.219c0-.053,0-.106.007-.161.028-.582.069-1.322.079-1.609,0-.015,0-.027,0-.038s15.821-.331,26.3-.506Z" fill="#6391be"/>
      <path id="Path_68" data-name="Path 68" d="M-355.85,64.218a4.394,4.394,0,0,1,.367,2.084c-.064,4.531-.281,10.586-.219,18.721.032,4.288-.093,9.173-.416,16.7a1.711,1.711,0,0,1-.387,1.219,2.2,2.2,0,0,1-1.48.374c-11.516.631-32.045.907-32.485.67l.062,0c.055-4.073-.139-11.562,0-25.531.046-4.574,0-9.511,0-14.445l0,0c4.223-.208,15.889-.03,18.365-.092,3.916-.1,8.443-.248,12.653-.147.593.014,1.179.032,1.756.058C-356.9,63.857-356.089,63.906-355.85,64.218Z" fill="#698fa3"/>
      <path id="Path_69" data-name="Path 69" d="M-395.917,115.827c.215.328.42.646.624.951a13.354,13.354,0,0,0,.892,1.2,6.9,6.9,0,0,0,1.458,1.314,9.122,9.122,0,0,0,2.723,1.173l.091.026c.4.1,2.06.312,2.06.312s0,.023,0,.038c-.01.287-.051,1.027-.079,1.609,0,.055-.005.108-.007.161q-.006.119-.009.219c0,.066-.006.128-.008.179s0,.067,0,.1c-.039,2.452-.134,4.195-.1,6.525.064,4.152.106,12.708.124,19.589q0,.981.005,1.911v.126c.011,1.918.168,8.782.187,10.368a6.3,6.3,0,0,1-2.749-.511,26.27,26.27,0,0,1-4.857-2.3c-.569-.439-1.024-7.961-1.122-11.162-.042-1.394-.455-14.812-.389-17.085.113-3.867.108-3.717.221-7.586.042-1.411.237-2.832.418-4.23.1-.755.2-1.513.352-2.259a2.27,2.27,0,0,1,.151-.659l.008-.009Z" fill="#4f7a9b"/>
    </g>
    <path id="Path_70" data-name="Path 70" d="M-388.07,120.845c-.01.287-.051,1.027-.079,1.609C-388.127,121.874-388.1,121.336-388.07,120.845Z" fill="#6099c6"/>
    <path id="Path_71" data-name="Path 71" d="M-388.271,129.633c.064,4.152.106,12.708.124,19.589q0-.316-.011-.653c-.177-8.181-.245-19-.016-25.461C-388.213,125.56-388.308,127.3-388.271,129.633Z" fill="#6099c6"/>
    <path id="Path_72" data-name="Path 72" d="M-388.156,122.615c0,.073-.006.146-.009.219s0,.119-.008.179" fill="none" stroke="#081041" stroke-linejoin="round" stroke-width="0.365"/>
    <path id="Path_73" data-name="Path 73" d="M-388.142,151.259c.011,1.918.168,8.782.187,10.368C-388.229,156.136-388.156,153.8-388.142,151.259Z" fill="#6099c6"/>
    <path id="Path_74" data-name="Path 74" d="M-388.147,149.222c.011.73.011,1.391.005,2.037" fill="none" stroke="#081041" stroke-linejoin="round" stroke-width="0.365"/>
    <path id="Path_75" data-name="Path 75" d="M-383.172,81.412c.238.966,4.935,5.715,10.675,5.9a11.361,11.361,0,0,0,10.1-5.777c.115-.286-3.868-4.6-10.04-4.6C-377.724,76.931-381.95,79.838-383.172,81.412Z" fill="#fff" stroke="#081041" stroke-linejoin="round" stroke-width="1.095"/>
    <path id="Path_76" data-name="Path 76" d="M-308.518,81.152c-1.222-1.573-5.448-4.481-10.733-4.481-6.172,0-10.155,4.318-10.04,4.6a11.36,11.36,0,0,0,10.1,5.777C-313.453,86.868-308.756,82.119-308.518,81.152Z" fill="#fff" stroke="#081041" stroke-linejoin="round" stroke-width="1.095"/>
    <g id="Group_10" data-name="Group 10">
      <path id="Path_77" data-name="Path 77" d="M-306.34,55.041q0,3.693,0,7.387l-.015.36q-1.491-.058-3.02-.1l0-.12q-.069-2.861-.06-5.721c-10.567-1.058-20.788-1.684-31.193-.376.27-1.352,1.989-2.171,2.856-2.377,2.363-.564,11.759-.291,14.945-.3q5.523-.016,11.045-.031a38.809,38.809,0,0,1,4.486.161,1.176,1.176,0,0,1,.739.272A1.206,1.206,0,0,1-306.34,55.041Z" fill="#96a4aa"/>
      <path id="Path_78" data-name="Path 78" d="M-309.373,62.567l0,.12-1.319-.033,0-.087c.046-1.5-.015-3.267-.117-4.761-6.478-.555-12.689-.792-19.191-.761a47.4,47.4,0,0,0-10.23.874l-.18.028a5.455,5.455,0,0,1-.214-1.477c10.4-1.308,20.626-.682,31.193.376Q-309.442,59.706-309.373,62.567Z" fill="#fff"/>
      <path id="Path_79" data-name="Path 79" d="M-310.811,57.806c.1,1.494.163,3.263.117,4.761l0,.087-1.518-.031,0-.195a31.422,31.422,0,0,0-.148-3.418c-2.721-.3-8.387-.337-11.124-.33-2.6.006-10.974-.195-16.135.646l-.168.073a6.162,6.162,0,0,1-.627-1.452l.18-.028A47.4,47.4,0,0,1-330,57.045C-323.5,57.014-317.289,57.251-310.811,57.806Z" fill="#fff"/>
      <path id="Path_80" data-name="Path 80" d="M-312.358,59.01a31.422,31.422,0,0,1,.148,3.418l0,.195q-.8-.014-1.606-.025l0-.243a11.354,11.354,0,0,0-.13-2.087c-2.128-.119-9.795-.276-12.649-.292-2.059-.011-3.717-.008-4.132,0a60.2,60.2,0,0,0-7.961.613l-.208.031a7.936,7.936,0,0,1-.889-1.221l.168-.073c5.161-.841,13.536-.64,16.135-.646C-320.745,58.673-315.079,58.713-312.358,59.01Z" fill="#fff"/>
      <path id="Path_81" data-name="Path 81" d="M-313.816,62.355l0,.243q-.756-.009-1.514-.015V62.51c0-.29-.026-.742-.026-1.078-.783-.1-9.336-.327-10.976-.27-3.746.128-7.407-.059-11.108.534l-.242.088a10.208,10.208,0,0,1-1.21-1.164l.208-.031a60.2,60.2,0,0,1,7.961-.613c.415-.008,2.073-.011,4.132,0,2.854.016,10.521.173,12.649.292A11.354,11.354,0,0,1-313.816,62.355Z" fill="#fff"/>
      <path id="Path_82" data-name="Path 82" d="M-315.334,62.51v.073c-6.553-.054-13.21.079-19.048.336-.368.016-1.489.089-1.489.089a10.773,10.773,0,0,1-1.815-1.224l.242-.088c3.7-.593,7.362-.406,11.108-.534,1.64-.057,10.193.171,10.976.27C-315.36,61.768-315.334,62.22-315.334,62.51Z" fill="#fff"/>
      <path id="Path_83" data-name="Path 83" d="M-390.1,120.124l.057.391c-.035-.008-.064-.013-.09-.02l-.091-.026a9.122,9.122,0,0,1-2.723-1.173l.458-.084a57.382,57.382,0,0,1,8.927-1.533,161.952,161.952,0,0,1,21.8.068c0,.372,0,.75,0,1.1v.118c-2.179-.1-9.9-.219-12.514-.175A118.256,118.256,0,0,0-390.1,120.124Z" fill="#fff"/>
      <path id="Path_84" data-name="Path 84" d="M-361.768,116.351c.007.407.009.894.011,1.4a161.952,161.952,0,0,0-21.8-.068,57.382,57.382,0,0,0-8.927,1.533l-.458.084a6.9,6.9,0,0,1-1.458-1.314l.447-.037a66.078,66.078,0,0,1,19.778-2.383c1.77.019,10.93.67,12.233.79Z" fill="#fff"/>
      <path id="Path_85" data-name="Path 85" d="M-361.759,118.969c0,.487-.005.922-.009,1.225l0,.107c-10.482.175-26.3.506-26.3.506s-1.461-.183-1.97-.292l-.057-.391a118.256,118.256,0,0,1,15.823-1.33C-371.655,118.75-363.938,118.867-361.759,118.969Z" fill="#fff"/>
      <path id="Path_86" data-name="Path 86" d="M-361.768,116.349v0h-.175c-1.3-.12-10.463-.771-12.233-.79a66.078,66.078,0,0,0-19.778,2.383l-.447.037a12.8,12.8,0,0,1-.861-1.159l.17-.117c3.213-.95,4.945-1.939,15.536-2.343,3.285-.126,11.233.225,14.511.5a19.835,19.835,0,0,1,3.233.472A7.6,7.6,0,0,1-361.768,116.349Z" fill="#fff"/>
      <path id="Path_87" data-name="Path 87" d="M-362.346,55.79q-.028.67-.053,1.341l-.177-.007a127.813,127.813,0,0,0-32.9,1.678,5.923,5.923,0,0,1-.446-1.421,107.7,107.7,0,0,1,25.14-2.183A51.005,51.005,0,0,1-362.346,55.79Z" fill="#fff"/>
      <path id="Path_88" data-name="Path 88" d="M-362.4,57.131c-.024.569-.046,1.14-.068,1.71h0c-12.894-.639-24.937.246-32.036,1.62a8.893,8.893,0,0,1-.97-1.659,127.813,127.813,0,0,1,32.9-1.678Z" fill="#fff"/>
      <path id="Path_89" data-name="Path 89" d="M-362.467,58.841q-.033.767-.062,1.534l-.306-.012c-3.343-.256-12.606-.307-15.4-.2-5.031.2-10.054.752-15.045,1.442l-.157.1c-.183-.179-.371-.378-.566-.606-.171-.2-.341-.414-.5-.637,7.1-1.374,19.142-2.259,32.036-1.62Z" fill="#fff"/>
      <path id="Path_90" data-name="Path 90" d="M-362.529,60.375c-.024.586-.047,1.17-.069,1.756h0a199.92,199.92,0,0,0-29.313.668l-.126.014a9.872,9.872,0,0,1-1.4-1.109l.157-.1c4.991-.69,10.014-1.246,15.045-1.442,2.794-.109,12.057-.058,15.4.2Z" fill="#fff"/>
      <path id="Path_91" data-name="Path 91" d="M-362.6,62.131q-.03.708-.057,1.418v.186c-3.213.005-6.472.107-9.392.18-2.476.062-14.142-.116-18.365.092a18.5,18.5,0,0,0-1.627-1.194l.126-.014a199.92,199.92,0,0,1,29.313-.668Z" fill="#fff"/>
    </g>
    <path id="Path_92" data-name="Path 92" d="M-395.926,115.856c0-.011.005-.02.009-.029.215.328.42.646.624.951.011.014.02.031.031.045a12.8,12.8,0,0,0,.861,1.159,6.9,6.9,0,0,0,1.458,1.314,9.122,9.122,0,0,0,2.723,1.173l.091.026c.026.007.055.012.09.02.509.109,1.97.292,1.97.292s0,.023,0,.038c-.01.287-.051,1.027-.079,1.609,0,.055-.005.108-.007.161q-.006.119-.009.219c0,.066-.006.128-.008.179s0,.067,0,.1c-.039,2.452-.134,4.195-.1,6.525.064,4.152.106,12.708.124,19.589q0,.981.005,1.911v.126c.011,1.918.168,8.782.187,10.368a6.3,6.3,0,0,1-2.749-.511,26.27,26.27,0,0,1-4.857-2.3c-.569-.439-1.024-7.961-1.122-11.162-.042-1.394-.455-14.812-.389-17.085.113-3.867.108-3.717.221-7.586.042-1.411.237-2.832.418-4.23.1-.755.2-1.513.352-2.259a2.27,2.27,0,0,1,.151-.659l.008-.009a12.494,12.494,0,0,1,2.536-1.233c1.874-.785,11.17-1.969,13.91-2.064,3.6-.122,18.3.832,19.2,1.347.553.317.35,4.155.445,6.395v0" fill="none" stroke="#081041" stroke-linejoin="round" stroke-width="1.095"/>
    <path id="Path_93" data-name="Path 93" d="M-387.955,161.627c9.727,1.267,25.6,1.54,34.386.256.157-.024.027-11.664.255-20.119.179-6.649.227-13.923.352-21.567-.819-.014-3.425.018-6.87.071l-1.934.033c-10.482.175-26.3.506-26.3.506" fill="none" stroke="#081041" stroke-linejoin="round" stroke-width="1.095"/>
    <path id="Path_94" data-name="Path 94" d="M-390.412,64.007c-.02,0-.042,0-.062,0,0,13.256-.379,39.677,0,39.976l0,0c.44.237,20.969-.039,32.485-.67a2.2,2.2,0,0,0,1.48-.374,1.711,1.711,0,0,0,.387-1.219c.323-7.529.448-12.414.416-16.7-.062-8.135.155-14.19.219-18.721a4.394,4.394,0,0,0-.367-2.084c-.239-.312-1.048-.361-1.788-.392-.577-.026-1.163-.044-1.756-.058-1.071-.026-2.164-.035-3.261-.033-3.213.005-6.472.107-9.392.18C-374.523,63.977-386.189,63.8-390.412,64.007Z" fill="none" stroke="#081041" stroke-linejoin="round" stroke-width="1.095"/>
    <path id="Path_95" data-name="Path 95" d="M-395.959,56.33c-.761,5.233-1.095,18.58-1.1,20.029-.047,8.071-.04,18.731.712,24.674,0,0,1.067.849,2.246,1.6a7.511,7.511,0,0,0,3.635,1.353l.062,0c.055-4.073-.139-11.562,0-25.531.046-4.574,0-9.511,0-14.445l0,0a18.5,18.5,0,0,0-1.627-1.194,9.872,9.872,0,0,1-1.4-1.109c-.183-.179-.371-.378-.566-.606-.171-.2-.341-.414-.5-.637a8.893,8.893,0,0,1-.97-1.659,5.923,5.923,0,0,1-.446-1.421,4.564,4.564,0,0,1-.038-1.051c.314-3.033,9.451-2.549,10.923-2.564,2.542-.027,4.6.018,6.867-.009,5.46-.068,9.137.024,14.912.2,1.87.056,2.675.483,2.963.814a3.214,3.214,0,0,1,.654,2.071c.233,2.68.171,4.193.246,6.9" fill="none" stroke="#081041" stroke-linejoin="round" stroke-width="1.095"/>
    <path id="Path_96" data-name="Path 96" d="M-336.34,89.263c.073,3.849.219,7.783.418,12.394.019.431.024,1.384.024,1.384,7.932.578,14.786.675,17.315.686,8.515.036,8.515.036,17-.365a1.218,1.218,0,0,0,.685-.172,1.224,1.224,0,0,0,.321-1.013c.027-11.373.053-24.853.08-36.227,0-1.336-.02-1.734-.328-2.259a2.48,2.48,0,0,0-1.864-.732q-1.8-.1-3.666-.171-1.491-.058-3.02-.1l-1.319-.033-1.518-.031q-.8-.014-1.606-.025-.756-.009-1.514-.015c-6.553-.054-13.21.079-19.048.336-.368.016-1.489.089-1.489.089s-.153,5.1-.213,6.6c-.077,1.94-.139,3.754-.186,5.476" fill="none" stroke="#081041" stroke-linejoin="round" stroke-width="1.095"/>
    <path id="Path_97" data-name="Path 97" d="M-336.278,75.32c-.083,3.124-.12,5.951-.116,8.684,0,1.772.02,3.5.054,5.254" fill="none" stroke="#081041" stroke-linejoin="round" stroke-width="1.095"/>
    <path id="Path_98" data-name="Path 98" d="M-335.871,63.008a10.773,10.773,0,0,1-1.815-1.224,10.208,10.208,0,0,1-1.21-1.164,7.936,7.936,0,0,1-.889-1.221,6.162,6.162,0,0,1-.627-1.452,5.455,5.455,0,0,1-.214-1.477c-.162,4.878-.617,9.661-.666,10.818-.312,7.133-.44,11.7-.445,18.189a93.58,93.58,0,0,0,.8,13.461,5.866,5.866,0,0,0,5.035,4.1c.044-1.422-.263-8.825-.442-13.778v0c-.073-1.982-.124-3.569-.125-4.228-.008-3.544.076-6.657.187-9.71,0-.08,0-.158.008-.239C-336.13,71.227-335.951,67.454-335.871,63.008Z" fill="none" stroke="#081041" stroke-linejoin="round" stroke-width="1.095"/>
    <path id="Path_99" data-name="Path 99" d="M-306.342,62.428q0-3.692,0-7.387a1.206,1.206,0,0,0-.215-.846,1.176,1.176,0,0,0-.739-.272,38.809,38.809,0,0,0-4.486-.161q-5.523.013-11.045.031c-3.186.009-12.582-.264-14.945.3-.867.206-2.586,1.025-2.856,2.377" fill="none" stroke="#081041" stroke-linejoin="round" stroke-width="1.095"/>
    <path id="Path_100" data-name="Path 100" d="M-390.129,120.13l.033-.006a118.256,118.256,0,0,1,15.823-1.33c2.618-.044,10.335.073,12.514.175l.035,0" fill="none" stroke="#081041" stroke-linejoin="round" stroke-width="0.547"/>
    <path id="Path_101" data-name="Path 101" d="M-362.6,62.131a199.92,199.92,0,0,0-29.313.668" fill="none" stroke="#081041" stroke-linejoin="round" stroke-width="0.547"/>
    <path id="Path_102" data-name="Path 102" d="M-395.092,116.706c3.213-.95,4.945-1.939,15.536-2.343,3.285-.126,11.233.225,14.511.5a19.835,19.835,0,0,1,3.233.472,7.6,7.6,0,0,1,.044,1.017v0c.007.407.009.894.011,1.4,0,.372,0,.75,0,1.1v.118c0,.487-.005.922-.009,1.225" fill="none" stroke="#081041" stroke-linejoin="round" stroke-width="0.547"/>
    <path id="Path_103" data-name="Path 103" d="M-361.943,116.352c-1.3-.12-10.463-.771-12.233-.79a66.078,66.078,0,0,0-19.778,2.383" fill="none" stroke="#081041" stroke-linejoin="round" stroke-width="0.547"/>
    <path id="Path_104" data-name="Path 104" d="M-361.724,117.75l-.033,0a161.952,161.952,0,0,0-21.8-.068,57.382,57.382,0,0,0-8.927,1.533" fill="none" stroke="#081041" stroke-linejoin="round" stroke-width="0.547"/>
    <path id="Path_105" data-name="Path 105" d="M-362.655,63.549q.027-.709.057-1.418c.022-.586.045-1.17.069-1.756q.03-.767.062-1.534c.022-.57.044-1.141.068-1.71q.024-.671.053-1.341a51.005,51.005,0,0,0-8.435-.592,107.7,107.7,0,0,0-25.14,2.183" fill="none" stroke="#081041" stroke-linejoin="round" stroke-width="0.547"/>
    <path id="Path_106" data-name="Path 106" d="M-362.576,57.124a127.813,127.813,0,0,0-32.9,1.678l-.216.039" fill="none" stroke="#081041" stroke-linejoin="round" stroke-width="0.547"/>
    <path id="Path_107" data-name="Path 107" d="M-362.469,58.841c-12.894-.639-24.937.246-32.036,1.62-.023,0-.047.007-.071.013" fill="none" stroke="#081041" stroke-linejoin="round" stroke-width="0.547"/>
    <path id="Path_108" data-name="Path 108" d="M-362.835,60.363c-3.343-.256-12.606-.307-15.4-.2-5.031.2-10.054.752-15.045,1.442" fill="none" stroke="#081041" stroke-linejoin="round" stroke-width="0.547"/>
    <path id="Path_109" data-name="Path 109" d="M-309.373,62.567q-.069-2.861-.06-5.721c-10.567-1.058-20.788-1.684-31.193-.376" fill="none" stroke="#081041" stroke-linejoin="round" stroke-width="0.547"/>
    <path id="Path_110" data-name="Path 110" d="M-310.694,62.567c.046-1.5-.015-3.267-.117-4.761-6.478-.555-12.689-.792-19.191-.761a47.4,47.4,0,0,0-10.23.874" fill="none" stroke="#081041" stroke-linejoin="round" stroke-width="0.547"/>
    <path id="Path_111" data-name="Path 111" d="M-312.21,62.428a31.422,31.422,0,0,0-.148-3.418c-2.721-.3-8.387-.337-11.124-.33-2.6.006-10.974-.195-16.135.646" fill="none" stroke="#081041" stroke-linejoin="round" stroke-width="0.547"/>
    <path id="Path_112" data-name="Path 112" d="M-313.816,62.355a11.354,11.354,0,0,0-.13-2.087c-2.128-.119-9.795-.276-12.649-.292-2.059-.011-3.717-.008-4.132,0a60.2,60.2,0,0,0-7.961.613" fill="none" stroke="#081041" stroke-linejoin="round" stroke-width="0.547"/>
    <path id="Path_113" data-name="Path 113" d="M-315.334,62.51c0-.29-.026-.742-.026-1.078-.783-.1-9.336-.327-10.976-.27-3.746.128-7.407-.059-11.108.534" fill="none" stroke="#081041" stroke-linejoin="round" stroke-width="0.547"/>
    <g id="Group_13" data-name="Group 13">
      <g id="Group_11" data-name="Group 11">
        <path id="Path_114" data-name="Path 114" d="M-360.835,142.066c.006,2.2-1.443,3.9-3.343,5-2.571,1.492-9.479,1-12.092-.032-2.145-.853-4.156-2.186-4.135-4.521A179.654,179.654,0,0,0-360.835,142.066Z" fill="#e08d8d"/>
        <path id="Path_115" data-name="Path 115" d="M-365.3,137.856c1.963.658,4.444,2.226,4.47,4.21a179.654,179.654,0,0,1-19.57.448c0-1.467.641-3.011,2.858-4.231C-374.258,136.472-367.662,137.067-365.3,137.856Z" fill="#e08d8d"/>
      </g>
      <g id="Group_12" data-name="Group 12">
        <path id="Path_116" data-name="Path 116" d="M-380.4,142.514c0-1.467.641-3.011,2.858-4.231,3.289-1.811,9.885-1.216,12.242-.427,1.963.658,4.444,2.226,4.47,4.21a179.654,179.654,0,0,1-19.57.448c-.021,2.335,1.99,3.668,4.135,4.521,2.613,1.036,9.521,1.524,12.092.032,1.9-1.1,3.349-2.8,3.343-5" fill="none" stroke="#081041" stroke-linejoin="round" stroke-width="0.806"/>
      </g>
    </g>
    <path id="Path_117" data-name="Path 117" d="M-372.794,76.931a5.192,5.192,0,0,0-4.958,5.1c0,3,1.811,5.271,4.958,5.271,5.077,0,5.789-3.624,5.788-5.271A5.391,5.391,0,0,0-372.794,76.931Z" fill="#6391be" stroke="#081041" stroke-linejoin="round" stroke-width="1.095"/>
    <path id="Path_118" data-name="Path 118" d="M-324.684,81.775c0,1.648.711,5.272,5.788,5.272,3.147,0,4.958-2.272,4.958-5.272a5.192,5.192,0,0,0-4.958-5.1A5.392,5.392,0,0,0-324.684,81.775Z" fill="#6391be" stroke="#081041" stroke-linejoin="round" stroke-width="1.095"/>
    <path id="Path_119" data-name="Path 119" d="M-370.12,83.6a2.178,2.178,0,0,0,.348-3.021c-.561-.545-1.535-1.14-2.607.881-.809-2.388-2.075-1.873-2.689-1.179a2.253,2.253,0,0,0,0,2.511,4.5,4.5,0,0,0,.926,1.167A3.084,3.084,0,0,0-370.12,83.6Z" fill="#081041"/>
    <path id="Path_120" data-name="Path 120" d="M-317.545,83.7a4.489,4.489,0,0,0,.926-1.168,2.251,2.251,0,0,0,0-2.51c-.614-.694-1.88-1.21-2.689,1.178-1.072-2.02-2.046-1.426-2.607-.881a2.178,2.178,0,0,0,.348,3.021A3.085,3.085,0,0,0-317.545,83.7Z" fill="#081041"/>
  </g>
</svg>
