<svg xmlns="http://www.w3.org/2000/svg" width="296.694" height="227.397" viewBox="0 0 296.694 227.397">
  <g id="Group_578" data-name="Group 578" transform="translate(-965.108 -1101.488)">
    <g id="Group_577" data-name="Group 577">
      <path id="Path_3458" data-name="Path 3458" d="M1113.524,1328.872q58.156,0,116.311-.01c18.667-.018,31.941-13.28,31.949-31.909q.037-81.71,0-163.419c-.007-18.776-13.269-31.964-32.1-32.013-5.99-.016-11.98,0-17.971,0q-106.952,0-213.9-.03c-7.312-.005-14.1,1.627-19.937,6-8.634,6.461-12.673,15.279-12.665,26.076q.059,74.723.019,149.447c0,5.405-.346,10.845.152,16.2a35.7,35.7,0,0,0,2.946,11.965c5.742,11.968,15.745,17.647,28.89,17.669Q1055.368,1328.946,1113.524,1328.872Z" fill="#ebebeb"/>
      <path id="Path_3459" data-name="Path 3459" d="M1113.524,1328.872q-58.155,0-116.311-.023c-13.145-.022-23.148-5.7-28.89-17.669a35.7,35.7,0,0,1-2.946-11.965c-.5-5.36-.152-10.8-.152-16.2q0-74.724-.019-149.447c-.008-10.8,4.031-19.615,12.665-26.076,5.841-4.372,12.625-6,19.937-6q106.952.075,213.9.03c5.991,0,11.981-.013,17.971,0,18.834.049,32.1,13.237,32.1,32.013q.033,81.709,0,163.419c-.008,18.629-13.282,31.891-31.949,31.909Q1171.68,1328.914,1113.524,1328.872Zm-39.568-113.178c0,15.886.229,31.776-.1,47.654a8.364,8.364,0,0,0,12.916,7.373c26.589-16.28,53.241-32.458,79.824-48.749a8.844,8.844,0,0,0,3.25-3.586c1.778-3.832.359-6.925-4.109-9.638q-39.443-23.946-78.888-47.888c-2.8-1.7-5.614-2.595-8.68-.91-3.166,1.74-4.282,4.481-4.257,8.089C1074.018,1183.924,1073.956,1199.809,1073.956,1215.694Z" fill="#ebebeb"/>
      <path id="Path_3460" data-name="Path 3460" d="M1073.956,1215.694c0-15.885.062-31.77-.047-47.655-.025-3.608,1.091-6.349,4.257-8.089,3.066-1.685,5.881-.791,8.68.91q39.426,23.973,78.888,47.888c4.468,2.713,5.887,5.806,4.109,9.638a8.844,8.844,0,0,1-3.25,3.586c-26.583,16.291-53.235,32.469-79.824,48.749a8.364,8.364,0,0,1-12.916-7.373C1074.185,1247.47,1073.956,1231.58,1073.956,1215.694Z" fill="#fff"/>
    </g>
  </g>
</svg>
