<svg xmlns="http://www.w3.org/2000/svg" width="31.588" height="33.322" viewBox="0 0 31.588 33.322">
  <path id="Path_3466" data-name="Path 3466" d="M1579.128,771.216a1.6,1.6,0,0,1,.262.179q2.778,2.771,5.55,5.547a1.91,1.91,0,0,1-.142,2.943,1.943,1.943,0,0,1-2.677-.267q-2.866-2.86-5.72-5.731a.361.361,0,0,0-.539-.055,13.226,13.226,0,0,1-5.057,1.8,13.851,13.851,0,1,1,3.194-26.56,13.811,13.811,0,0,1,5.46,3.974,13.771,13.771,0,0,1,.691,16.824C1579.846,770.3,1579.514,770.709,1579.128,771.216Zm-20.278-9.291a9.966,9.966,0,1,0,9.975-9.986A10,10,0,0,0,1558.85,761.925Z" transform="translate(-1554.477 -747.566)" fill="#527178" stroke="rgba(0,0,0,0)" stroke-width="1"/>
</svg>
