<svg xmlns="http://www.w3.org/2000/svg" width="60.033" height="59.441" viewBox="0 0 60.033 59.441">
  <g id="Group_600" data-name="Group 600" transform="translate(-920.296 -485.907)">
    <path id="Path_3471" data-name="Path 3471" d="M927.1,533.732c-.008.156-.015.312-.024.467-.116,1.921.27,2.355,2.222,2.5,2.208.159,4.414.35,6.624.459a1.4,1.4,0,0,1,1.341.881c1.056,2.014,2.179,3.993,3.279,5.984.8,1.445,1.519,1.666,2.967.885,2-1.079,4.008-2.151,5.984-3.275a1.434,1.434,0,0,1,1.621-.02c1.975,1.127,3.983,2.2,5.981,3.281,1.457.792,2.183.588,2.981-.848,1.149-2.07,2.3-4.141,3.421-6.225a1.055,1.055,0,0,1,1-.646c2.365-.134,4.727-.325,7.09-.491,1.566-.11,2.075-.687,1.978-2.284-.144-2.365-.323-4.728-.418-7.094a1.58,1.58,0,0,1,.528-1.132c1.858-1.467,3.769-2.868,5.655-4.3,1.208-.918,1.309-1.7.391-2.932-1.379-1.848-2.733-3.717-4.163-5.526a1.471,1.471,0,0,1-.21-1.673c.816-2.088,1.571-4.2,2.348-6.3.618-1.676.34-2.256-1.37-2.893-2.13-.793-4.252-1.6-6.39-2.374a1.231,1.231,0,0,1-.9-1.031c-.479-2.351-1-4.694-1.518-7.035a1.77,1.77,0,0,0-2.39-1.534c-2.283.488-4.564.979-6.839,1.5a1.5,1.5,0,0,1-1.631-.464c-1.54-1.633-3.156-3.194-4.746-4.778-1.223-1.218-1.963-1.225-3.169-.025-1.614,1.605-3.246,3.193-4.815,4.843a1.428,1.428,0,0,1-1.555.432c-2.244-.516-4.495-1-6.747-1.484-1.523-.325-2.208.127-2.543,1.65-.5,2.282-1.016,4.562-1.482,6.852a1.286,1.286,0,0,1-.956,1.086c-2.171.769-4.322,1.594-6.477,2.407-1.551.585-1.871,1.269-1.305,2.8.776,2.1,1.543,4.212,2.362,6.3a1.577,1.577,0,0,1-.231,1.768c-1.42,1.816-2.772,3.686-4.136,5.545-.864,1.178-.735,1.974.437,2.86,1.889,1.428,3.8,2.831,5.657,4.3a1.583,1.583,0,0,1,.533,1.132C927.4,529.44,927.235,531.586,927.1,533.732Z" fill="#fff"/>
    <path id="Path_3472" data-name="Path 3472" d="M927.1,533.732c.136-2.146.3-4.292.384-6.441a1.583,1.583,0,0,0-.533-1.132c-1.859-1.467-3.768-2.869-5.657-4.3-1.172-.886-1.3-1.682-.437-2.86,1.364-1.859,2.716-3.729,4.136-5.545a1.577,1.577,0,0,0,.231-1.768c-.819-2.087-1.586-4.195-2.362-6.3-.565-1.535-.245-2.218,1.305-2.8,2.155-.813,4.306-1.638,6.477-2.407a1.286,1.286,0,0,0,.956-1.086c.467-2.289.98-4.569,1.482-6.852.335-1.523,1.021-1.975,2.543-1.65,2.252.481,4.5.968,6.747,1.484a1.428,1.428,0,0,0,1.555-.432c1.568-1.649,3.2-3.237,4.815-4.843,1.206-1.2,1.946-1.193,3.169.025,1.591,1.585,3.207,3.146,4.746,4.778a1.5,1.5,0,0,0,1.631.464c2.275-.522,4.556-1.014,6.839-1.5a1.77,1.77,0,0,1,2.39,1.534c.523,2.341,1.039,4.685,1.518,7.035a1.231,1.231,0,0,0,.9,1.031c2.138.769,4.26,1.581,6.39,2.374,1.71.636,1.988,1.216,1.37,2.893-.777,2.1-1.531,4.216-2.348,6.3a1.471,1.471,0,0,0,.21,1.673c1.429,1.809,2.783,3.678,4.163,5.526.917,1.229.817,2.014-.391,2.932-1.886,1.432-3.8,2.833-5.655,4.3a1.58,1.58,0,0,0-.528,1.132c.1,2.366.275,4.73.418,7.094.1,1.6-.412,2.174-1.978,2.284-2.363.166-4.725.357-7.09.491a1.055,1.055,0,0,0-1,.646c-1.123,2.084-2.272,4.155-3.421,6.225-.8,1.436-1.524,1.64-2.981.848-2-1.086-4.006-2.155-5.981-3.281a1.434,1.434,0,0,0-1.621.02c-1.976,1.125-3.982,2.2-5.984,3.275-1.448.781-2.169.56-2.967-.885-1.1-1.991-2.222-3.97-3.279-5.984a1.4,1.4,0,0,0-1.341-.881c-2.21-.109-4.416-.3-6.624-.459-1.952-.141-2.338-.574-2.222-2.5C927.085,534.044,927.092,533.888,927.1,533.732Zm41.255-18.051a18.041,18.041,0,1,0-18.089,17.974A18.146,18.146,0,0,0,968.353,515.681Z" fill="#fff"/>
    <path id="Path_3473" data-name="Path 3473" d="M988.375,535.2a18.041,18.041,0,1,1-17.993-18.1A18.079,18.079,0,0,1,988.375,535.2Zm-18.028,6.707c2.119,1.549,4.14,3.059,6.207,4.5a3.638,3.638,0,0,0,1.337.284,3.78,3.78,0,0,0,.124-1.353q-.983-3.306-2.111-6.568a.9.9,0,0,1,.4-1.229c1.862-1.305,3.71-2.633,5.523-4a4.28,4.28,0,0,0,.77-1.15c-.44-.214-.875-.6-1.32-.612-2.274-.063-4.55-.046-6.825-.018a.9.9,0,0,1-1.042-.765q-1.046-3.339-2.25-6.627c-.135-.372-.595-.625-.9-.934-.284.331-.7.617-.83,1q-1.135,3.26-2.145,6.563a.92.92,0,0,1-1.057.765c-2.306-.031-4.613-.042-6.919.017-.406.01-.8.4-1.2.607.21.371.331.857.643,1.093q2.72,2.057,5.523,4a1,1,0,0,1,.474,1.368c-.753,2.14-1.443,4.3-2.091,6.476a.935.935,0,1,0,1.519,1.055C966.24,544.947,968.258,543.437,970.347,541.911Z" transform="translate(-20.021 -19.523)" fill="#74888e"/>
    <path id="Path_3474" data-name="Path 3474" d="M980.066,552.494c-2.089,1.525-4.107,3.036-6.174,4.475a.935.935,0,1,1-1.519-1.055c.649-2.173,1.339-4.336,2.091-6.476a1,1,0,0,0-.474-1.368q-2.8-1.953-5.523-4c-.311-.236-.433-.722-.643-1.093.4-.212.8-.6,1.2-.607,2.305-.059,4.612-.047,6.919-.017a.92.92,0,0,0,1.057-.765q1.017-3.3,2.145-6.563c.133-.383.546-.669.83-1,.31.308.77.562.9.934q1.2,3.287,2.25,6.627a.9.9,0,0,0,1.042.765c2.275-.027,4.552-.045,6.825.018.445.012.88.4,1.32.612a4.274,4.274,0,0,1-.77,1.15c-1.814,1.371-3.661,2.7-5.523,4a.9.9,0,0,0-.4,1.229q1.125,3.261,2.111,6.568a3.783,3.783,0,0,1-.124,1.353,3.638,3.638,0,0,1-1.337-.284C984.206,555.554,982.185,554.043,980.066,552.494Z" transform="translate(-29.74 -30.107)" fill="#fff"/>
  </g>
</svg>
